<svg xmlns="http://www.w3.org/2000/svg" width="24" height="24" viewBox="0 0 24 24">
  <metadata><?xpacket begin="﻿" id="W5M0MpCehiHzreSzNTczkc9d"?>
<x:xmpmeta xmlns:x="adobe:ns:meta/" x:xmptk="Adobe XMP Core 5.6-c140 79.160451, 2017/05/06-01:08:21        ">
   <rdf:RDF xmlns:rdf="http://www.w3.org/1999/02/22-rdf-syntax-ns#">
      <rdf:Description rdf:about=""/>
   </rdf:RDF>
</x:xmpmeta>
                                                                                                    
                                                                                                    
                                                                                                    
                                                                                                    
                                                                                                    
                                                                                                    
                                                                                                    
                                                                                                    
                                                                                                    
                                                                                                    
                                                                                                    
                                                                                                    
                                                                                                    
                                                                                                    
                                                                                                    
                                                                                                    
                                                                                                    
                                                                                                    
                                                                                                    
                                                                                                    
                           
<?xpacket end="w"?></metadata>
<defs>
    <style>
      .cls-1 {
        fill: #e20612;
        fill-rule: evenodd;
      }
    </style>
  </defs>
  <path id="winda" class="cls-1" d="M943.131,762.076l-3.177-3.163a0.554,0.554,0,0,0-.783,0L936,762.076a0.34,0.34,0,0,0,.242.581h1.536V766.7a0.552,0.552,0,0,0,.553.55H940.8a0.552,0.552,0,0,0,.553-0.55v-4.042h1.535A0.34,0.34,0,0,0,943.131,762.076Zm3.351,1.849,3.177,3.164a0.556,0.556,0,0,0,.783,0l3.177-3.164a0.34,0.34,0,0,0-.242-0.581h-1.535V759.3a0.551,0.551,0,0,0-.553-0.551h-2.475a0.553,0.553,0,0,0-.554.551v4.041h-1.536A0.34,0.34,0,0,0,946.482,763.925ZM955.488,751H934.511A1.51,1.51,0,0,0,933,752.506V773.5a1.51,1.51,0,0,0,1.511,1.5h20.977A1.51,1.51,0,0,0,957,773.5V752.506A1.51,1.51,0,0,0,955.488,751Zm-20.068,2.41h8.773v19.18H935.42V753.41Zm19.16,19.18h-8.773V753.41h8.773v19.18h0Z" transform="translate(-933 -751)"/>
</svg>
