<?xml version="1.0" encoding="utf-8"?>
<!-- Generator: Adobe Illustrator 14.0.0, SVG Export Plug-In . SVG Version: 6.00 Build 43363)  -->
<!DOCTYPE svg PUBLIC "-//W3C//DTD SVG 1.1//EN" "http://www.w3.org/Graphics/SVG/1.1/DTD/svg11.dtd">
<svg version="1.1" id="Warstwa_1" xmlns="http://www.w3.org/2000/svg" xmlns:xlink="http://www.w3.org/1999/xlink" x="0px" y="0px"
	 width="40px" height="40px" viewBox="0 0 40 40" enable-background="new 0 0 40 40" xml:space="preserve">
<path fill="#B1B0B0" d="M38,0H20.947h-1.895H2C0.9,0,0,0.9,0,2v17.053v1.895V38c0,1.1,0.9,2,2,2h17.053h1.895H38c1.1,0,2-0.9,2-2
	V20.947v-1.895V2C40,0.9,39.1,0,38,0z M38,2v16.947H21.053V2H38z M2,2h16.947v16.947H2V2z M2,38V21.053h16.947V38H2z M38,38H21.053
	V21.053H38V38z"/>
<path fill="#B1B0B0" d="M11.526,9.526v-3.21h-2v3.21h-3.21v2h3.21v3.21h2v-3.21h3.21v-2H11.526z"/>
<path fill="#B1B0B0" d="M33.685,9.526h-8.422v2h8.422V9.526z"/>
<path fill="#B1B0B0" d="M12.796,25.789l-2.27,2.271l-2.271-2.271l-1.414,1.414l2.271,2.271l-2.271,2.271l1.414,1.414l2.271-2.271
	l2.27,2.271l1.414-1.414l-2.27-2.271l2.27-2.271L12.796,25.789z"/>
<path fill="#B1B0B0" d="M27.203,33.158l5.955-5.955l-1.414-1.414l-5.955,5.955L27.203,33.158z"/>
</svg>
