<?xml version="1.0" encoding="utf-8"?>
<!-- Generator: Adobe Illustrator 14.0.0, SVG Export Plug-In . SVG Version: 6.00 Build 43363)  -->
<!DOCTYPE svg PUBLIC "-//W3C//DTD SVG 1.1//EN" "http://www.w3.org/Graphics/SVG/1.1/DTD/svg11.dtd">
<svg version="1.1" id="Warstwa_1" xmlns="http://www.w3.org/2000/svg" xmlns:xlink="http://www.w3.org/1999/xlink" x="0px" y="0px"
	 width="42px" height="42px" viewBox="0 0 42 42" enable-background="new 0 0 42 42" xml:space="preserve">
<path fill="#0d2657" d="M21,42c-4.659,0-9.072-1.494-12.76-4.32C3.003,33.668,0,27.589,0,21C0,9.42,9.42,0,21,0
	c11.579,0,21,9.42,21,21S32.579,42,21,42z M21,2C10.523,2,2,10.523,2,21c0,5.961,2.718,11.462,7.456,15.092
	C12.792,38.648,16.784,40,21,40c10.477,0,19-8.523,19-19S31.477,2,21,2z"/>
<path fill="#0d2657" d="M17.027,24.219c0-4.623,5.377-5.445,5.377-8.321c0-1.165-1.129-2.021-2.431-2.021
	c-1.643,0-3.253,1.473-3.253,1.473l-3.288-4.006c0,0,2.569-2.843,7.157-2.843c3.836,0,7.98,2.294,7.98,6.712
	c0,5.617-5.856,6.438-5.856,9.486v1.233h-5.686V24.219z M17.164,28.362h5.411V33.5h-5.411V28.362z"/>
<path fill="#0d2657" d="M17.027,24.219c0-4.623,5.377-5.445,5.377-8.321c0-1.165-1.129-2.021-2.431-2.021
	c-1.643,0-3.253,1.473-3.253,1.473l-3.288-4.006c0,0,2.569-2.843,7.157-2.843c3.836,0,7.98,2.294,7.98,6.712
	c0,5.617-5.856,6.438-5.856,9.486v1.233h-5.686V24.219z M17.164,28.362h5.411V33.5h-5.411V28.362z"/>
</svg>
