<?xml version="1.0" encoding="utf-8"?>
<!-- Generator: Adobe Illustrator 14.0.0, SVG Export Plug-In  -->
<!DOCTYPE svg PUBLIC "-//W3C//DTD SVG 1.1//EN" "http://www.w3.org/Graphics/SVG/1.1/DTD/svg11.dtd" [
	<!ENTITY ns_flows "http://ns.adobe.com/Flows/1.0/">
]>
<svg version="1.1"
	 xmlns="http://www.w3.org/2000/svg" xmlns:xlink="http://www.w3.org/1999/xlink" xmlns:a="http://ns.adobe.com/AdobeSVGViewerExtensions/3.0/"
	 x="0px" y="0px" width="39px" height="39px" viewBox="0 0 39 39" enable-background="new 0 0 39 39" xml:space="preserve">
<defs>
</defs>
<path fill="#E10E1A" d="M37,2v35H2V2H37 M37,0H2C0.9,0,0,0.9,0,2v35c0,1.1,0.9,2,2,2h35c1.1,0,2-0.9,2-2V2C39,0.9,38.1,0,37,0L37,0z
	"/>
<path fill="#E10E1A" d="M16.5,27c-0.44,0-0.882-0.145-1.249-0.438l-5-4c-0.862-0.688-1.002-1.948-0.312-2.81
	c0.69-0.863,1.949-1.002,2.811-0.313l3.602,2.882l9.734-9.734c0.781-0.781,2.047-0.781,2.828,0c0.781,0.78,0.781,2.047,0,2.828
	l-11,11C17.526,26.803,17.014,27,16.5,27z"/>
</svg>
