<?xml version="1.0" encoding="utf-8"?>
<!-- Generator: Adobe Illustrator 14.0.0, SVG Export Plug-In  -->
<!DOCTYPE svg PUBLIC "-//W3C//DTD SVG 1.1//EN" "http://www.w3.org/Graphics/SVG/1.1/DTD/svg11.dtd" [
	<!ENTITY ns_flows "http://ns.adobe.com/Flows/1.0/">
]>
<svg version="1.1"
	 xmlns="http://www.w3.org/2000/svg" xmlns:xlink="http://www.w3.org/1999/xlink" xmlns:a="http://ns.adobe.com/AdobeSVGViewerExtensions/3.0/"
	 x="0px" y="0px" width="61px" height="40px" viewBox="0 0 61 40" enable-background="new 0 0 61 40" xml:space="preserve">
<defs>
</defs>
<path fill="#E10E1A" d="M60.707,21.021L49.645,10.046c-0.188-0.186-0.441-0.291-0.707-0.291H37.875
	c-1.907,0-3.458,1.539-3.458,3.431v11.203H23.51V3.968c0-2.188-1.794-3.968-4-3.968H7.073c-2.206,0-4,1.78-4,3.968v20.421H1
	c-0.552,0-1,0.444-1,0.992v9.756c0,0.548,0.448,0.992,1,0.992h3.688v-1.984H2v-7.771h7.037h8.51h16.871v6.325v1.446H19.438v1.984
	h15.979c0.34,0,0.625-0.179,0.806-0.436c0.493,0.269,1.051,0.436,1.652,0.436h2.458v-1.984h-2.458c-0.804,0-1.458-0.648-1.458-1.446
	v-7.317V13.187c0-0.797,0.654-1.447,1.458-1.447h10.648L59,22.134v10.565c0,0.798-0.654,1.446-1.458,1.446h-2.459v1.984h2.459
	c1.907,0,3.458-1.539,3.458-3.431V21.723C61,21.46,60.895,21.208,60.707,21.021z M8.037,24.389H5.073V9.301h2.964V24.389z
	 M16.546,24.389h-6.51V6.479c0-0.078,0.163-0.228,0.418-0.228h5.673c0.255,0,0.418,0.15,0.418,0.228V24.389z M21.51,24.389h-2.964
	V9.301h2.964V24.389z M21.51,7.317h-2.964V6.479c0-1.219-1.084-2.212-2.418-2.212h-5.673c-1.333,0-2.418,0.993-2.418,2.212v0.837
	H5.073V3.968c0-1.094,0.897-1.984,2-1.984H19.51c1.103,0,2,0.89,2,1.984V7.317z"/>
<path fill="#E10E1A" d="M47.708,30.259c-2.715,0-4.917,2.184-4.917,4.878c0,2.694,2.201,4.877,4.917,4.877
	c2.716,0,4.917-2.184,4.917-4.877C52.625,32.443,50.424,30.259,47.708,30.259z M47.708,38.031c-1.608,0-2.917-1.298-2.917-2.894
	c0-1.596,1.309-2.894,2.917-2.894c1.608,0,2.917,1.298,2.917,2.894C50.625,36.733,49.316,38.031,47.708,38.031z"/>
<path fill="#E10E1A" d="M12.063,30.259c-2.715,0-4.917,2.184-4.917,4.878c0,2.694,2.202,4.877,4.917,4.877s4.917-2.184,4.917-4.877
	C16.979,32.443,14.778,30.259,12.063,30.259z M12.063,38.031c-1.608,0-2.917-1.298-2.917-2.894c0-1.596,1.309-2.894,2.917-2.894
	s2.917,1.298,2.917,2.894C14.979,36.733,13.671,38.031,12.063,38.031z"/>
</svg>
