<?xml version="1.0" encoding="utf-8"?>
<!-- Generator: Adobe Illustrator 14.0.0, SVG Export Plug-In . SVG Version: 6.00 Build 43363)  -->
<!DOCTYPE svg PUBLIC "-//W3C//DTD SVG 1.1//EN" "http://www.w3.org/Graphics/SVG/1.1/DTD/svg11.dtd">
<svg version="1.1" id="Warstwa_1" xmlns="http://www.w3.org/2000/svg" xmlns:xlink="http://www.w3.org/1999/xlink" x="0px" y="0px"
	 width="32px" height="39px" viewBox="0 0 32 39" enable-background="new 0 0 32 39" xml:space="preserve">
<path fill="#E10E1A" d="M24.5,8.5h-11v2h11V8.5z"/>
<path fill="#E10E1A" d="M22.5,16.5h-9v2h9V16.5z"/>
<path fill="#E10E1A" d="M24.5,24.5h-11v2h11V24.5z"/>
<path fill="#E10E1A" d="M30,0H2C0.9,0,0,0.9,0,2v35c0,1.1,0.9,2,2,2l6-3.5l8,3.5l6-3.5l8,3.5c1.1,0,2-0.9,2-2V2C32,0.9,31.1,0,30,0z
	 M30,36.817l-7.198-3.149C22.545,33.556,22.272,33.5,22,33.5c-0.349,0-0.698,0.092-1.008,0.272L15.87,36.76l-7.069-3.093
	C8.545,33.556,8.272,33.5,8,33.5c-0.349,0-0.698,0.092-1.008,0.272L2,36.685V2h28V36.817z"/>
<path fill="#E10E1A" d="M8,12.5c1.654,0,3-1.346,3-3s-1.346-3-3-3s-3,1.346-3,3S6.346,12.5,8,12.5z M8,8.5c0.551,0,1,0.449,1,1
	s-0.449,1-1,1s-1-0.449-1-1S7.449,8.5,8,8.5z"/>
<path fill="#E10E1A" d="M8,20.5c1.654,0,3-1.346,3-3s-1.346-3-3-3s-3,1.346-3,3S6.346,20.5,8,20.5z M8,16.5c0.551,0,1,0.449,1,1
	s-0.449,1-1,1s-1-0.449-1-1S7.449,16.5,8,16.5z"/>
<path fill="#E10E1A" d="M8,28.5c1.654,0,3-1.346,3-3s-1.346-3-3-3s-3,1.346-3,3S6.346,28.5,8,28.5z M8,24.5c0.551,0,1,0.448,1,1
	s-0.449,1-1,1s-1-0.448-1-1S7.449,24.5,8,24.5z"/>
</svg>
