<?xml version="1.0" encoding="utf-8"?>
<!-- Generator: Adobe Illustrator 14.0.0, SVG Export Plug-In . SVG Version: 6.00 Build 43363)  -->
<!DOCTYPE svg PUBLIC "-//W3C//DTD SVG 1.1//EN" "http://www.w3.org/Graphics/SVG/1.1/DTD/svg11.dtd">
<svg version="1.1" id="Warstwa_1" xmlns="http://www.w3.org/2000/svg" xmlns:xlink="http://www.w3.org/1999/xlink" x="0px" y="0px"
	 width="41px" height="39px" viewBox="0 0 41 39" enable-background="new 0 0 41 39" xml:space="preserve">
<path fill="#E10E1A" d="M29.433,0c-3.49,0-6.758,1.575-8.933,4.213C18.325,1.575,15.058,0,11.567,0C5.189,0,0,5.171,0,11.527
	c0,4.977,2.978,10.734,8.851,17.11c4.52,4.907,9.437,8.707,10.836,9.754L20.5,39l0.812-0.608c1.399-1.047,6.317-4.847,10.837-9.754
	C38.022,22.261,41,16.504,41,11.527C41,5.171,35.811,0,29.433,0z M30.157,26.816c-3.718,4.036-7.718,7.299-9.657,8.803
	c-1.939-1.504-5.939-4.767-9.657-8.803c-5.325-5.782-8.14-11.068-8.14-15.289c0-4.871,3.976-8.834,8.864-8.834
	c3.217,0,6.186,1.747,7.751,4.56L20.5,9.378l1.182-2.125c1.564-2.812,4.534-4.56,7.751-4.56c4.887,0,8.864,3.963,8.864,8.834
	C38.297,15.748,35.482,21.035,30.157,26.816z"/>
</svg>
