<?xml version="1.0" encoding="utf-8"?>
<!-- Generator: Adobe Illustrator 14.0.0, SVG Export Plug-In  -->
<!DOCTYPE svg PUBLIC "-//W3C//DTD SVG 1.1//EN" "http://www.w3.org/Graphics/SVG/1.1/DTD/svg11.dtd" [
	<!ENTITY ns_flows "http://ns.adobe.com/Flows/1.0/">
]>
<svg version="1.1"
	 xmlns="http://www.w3.org/2000/svg" xmlns:xlink="http://www.w3.org/1999/xlink" xmlns:a="http://ns.adobe.com/AdobeSVGViewerExtensions/3.0/"
	 x="0px" y="0px" width="54px" height="41px" viewBox="0 0 54 41" enable-background="new 0 0 54 41" xml:space="preserve">
<defs>
</defs>
<path fill="#FFFFFF" d="M46.909,28.796H14.62L6.866,2.7H1.438C0.643,2.7,0,2.095,0,1.35C0,0.604,0.643,0,1.438,0h7.61l7.754,26.096
	h27.926L50.21,7.638H14.406c-0.795,0-1.438-0.605-1.438-1.351c0-0.745,0.643-1.349,1.438-1.349h39.592L46.909,28.796z"/>
<path fill="#FFFFFF" d="M43.76,35.041H16.476L6.573,1.714C6.359,0.995,6.806,0.249,7.571,0.049c0.762-0.198,1.557,0.219,1.77,0.937
	l9.316,31.354H43.76c0.795,0,1.438,0.604,1.438,1.351C45.197,34.437,44.554,35.041,43.76,35.041z"/>
<path fill="#FFFFFF" d="M17.566,40.976c-2.535,0-4.598-1.936-4.598-4.317c0-2.381,2.062-4.318,4.598-4.318
	c2.534,0,4.596,1.937,4.596,4.318C22.163,39.04,20.1,40.976,17.566,40.976z M17.566,35.041c-0.95,0-1.722,0.725-1.722,1.617
	c0,0.892,0.772,1.616,1.722,1.616c0.949,0,1.721-0.725,1.721-1.616C19.288,35.766,18.515,35.041,17.566,35.041z"/>
<path fill="#FFFFFF" d="M43.76,40.976c-2.534,0-4.596-1.936-4.596-4.317c0-2.381,2.062-4.318,4.596-4.318
	c2.534,0,4.596,1.937,4.596,4.318C48.356,39.04,46.294,40.976,43.76,40.976z M43.76,35.041c-0.949,0-1.721,0.725-1.721,1.617
	c0,0.892,0.772,1.616,1.721,1.616c0.949,0,1.721-0.725,1.721-1.616C45.481,35.766,44.709,35.041,43.76,35.041z"/>
</svg>
