<svg xmlns="http://www.w3.org/2000/svg" width="14" height="24" viewBox="0 0 14 24">
  <metadata><?xpacket begin="﻿" id="W5M0MpCehiHzreSzNTczkc9d"?>
<x:xmpmeta xmlns:x="adobe:ns:meta/" x:xmptk="Adobe XMP Core 5.6-c138 79.159824, 2016/09/14-01:09:01        ">
   <rdf:RDF xmlns:rdf="http://www.w3.org/1999/02/22-rdf-syntax-ns#">
      <rdf:Description rdf:about=""/>
   </rdf:RDF>
</x:xmpmeta>
                                                                                                    
                                                                                                    
                                                                                                    
                                                                                                    
                                                                                                    
                                                                                                    
                                                                                                    
                                                                                                    
                                                                                                    
                                                                                                    
                                                                                                    
                                                                                                    
                                                                                                    
                                                                                                    
                                                                                                    
                                                                                                    
                                                                                                    
                                                                                                    
                                                                                                    
                                                                                                    
                           
<?xpacket end="w"?></metadata>
<defs>
    <style>
      .cls-1 {
        fill: #e20612;
        fill-rule: evenodd;
      }
    </style>
  </defs>
  <path id="meble_biurowe" class="cls-1" d="M601.149,429.743a0.856,0.856,0,0,0-.851.861v3.178a29.888,29.888,0,0,1,.176-11.97,0.721,0.721,0,0,0-.411-0.8,13.69,13.69,0,0,0-5.078-1.01,13.424,13.424,0,0,0-5.048,1.01,0.7,0.7,0,0,0-.411.8,30.44,30.44,0,0,1,.176,11.97v-3.148a0.851,0.851,0,1,0-1.7,0v5.2a0.856,0.856,0,0,0,.851.861h12.3a0.856,0.856,0,0,0,.851-0.861v-5.2A0.864,0.864,0,0,0,601.149,429.743Zm0.117,11.584a0.849,0.849,0,0,0-.411-0.743l-5.429-3.5a0.911,0.911,0,0,0-.91.03l-5.4,3.475a0.888,0.888,0,0,0-.411.743v0.712a1.2,1.2,0,0,0-.293.773,1.174,1.174,0,1,0,2.348,0,1.2,1.2,0,0,0-.294-0.773V441.8l3.64-2.347v2.555a1.2,1.2,0,0,0-.294.772,1.174,1.174,0,1,0,2.055-.772v-2.555l3.639,2.347v0.208a1.175,1.175,0,1,0,1.761,0v-0.683h0Z" transform="translate(-588 -420)"/>
</svg>
