<svg xmlns="http://www.w3.org/2000/svg" width="24" height="19" viewBox="0 0 24 19">
  <metadata><?xpacket begin="﻿" id="W5M0MpCehiHzreSzNTczkc9d"?>
<x:xmpmeta xmlns:x="adobe:ns:meta/" x:xmptk="Adobe XMP Core 5.6-c138 79.159824, 2016/09/14-01:09:01        ">
   <rdf:RDF xmlns:rdf="http://www.w3.org/1999/02/22-rdf-syntax-ns#">
      <rdf:Description rdf:about=""/>
   </rdf:RDF>
</x:xmpmeta>
                                                                                                    
                                                                                                    
                                                                                                    
                                                                                                    
                                                                                                    
                                                                                                    
                                                                                                    
                                                                                                    
                                                                                                    
                                                                                                    
                                                                                                    
                                                                                                    
                                                                                                    
                                                                                                    
                                                                                                    
                                                                                                    
                                                                                                    
                                                                                                    
                                                                                                    
                                                                                                    
                           
<?xpacket end="w"?></metadata>
<defs>
    <style>
      .cls-1 {
        fill: #e20612;
        fill-rule: evenodd;
      }
    </style>
  </defs>
  <path id="ogrzewanie" class="cls-1" d="M266.572,365.876v0.9H265.4v-0.325a2.453,2.453,0,0,0-4.19-1.717,2.456,2.456,0,0,0-3.477,0,2.456,2.456,0,0,0-3.477,0,2.455,2.455,0,0,0-3.476,0,2.453,2.453,0,0,0-4.19,1.717v0.325H244v3.53H246.6v8.708a2.445,2.445,0,0,0,1.739,2.333v1.644h1.425v-1.644a2.451,2.451,0,0,0,1.026-.616,2.456,2.456,0,0,0,3.477,0,2.455,2.455,0,0,0,3.476,0,2.456,2.456,0,0,0,3.477,0,2.451,2.451,0,0,0,1.026.616v1.644h1.425v-1.644a2.445,2.445,0,0,0,1.739-2.333V370.3h1.168v0.9H268v-5.326h-1.426Zm-19.977,3.01h-1.168v-0.694H246.6v0.694Zm3.477,10.126a1.026,1.026,0,0,1-2.051,0V366.45a1.026,1.026,0,0,1,2.051,0v12.562Zm3.477,0a1.026,1.026,0,0,1-2.051,0V366.45a1.026,1.026,0,0,1,2.051,0v12.562Zm3.476,0a1.026,1.026,0,0,1-2.051,0V366.45a1.026,1.026,0,0,1,2.051,0v12.562Zm3.477,0a1.026,1.026,0,0,1-2.051,0V366.45a1.026,1.026,0,0,1,2.051,0v12.562Zm3.477-12.238v12.238a1.026,1.026,0,0,1-2.051,0V366.45a1.026,1.026,0,0,1,2.051,0v0.324Zm2.593,2.112H265.4v-0.694h1.167v0.694Z" transform="translate(-244 -364)"/>
</svg>
