<svg xmlns="http://www.w3.org/2000/svg" width="23.031" height="24" viewBox="0 0 23.031 24">
  <metadata><?xpacket begin="﻿" id="W5M0MpCehiHzreSzNTczkc9d"?>
<x:xmpmeta xmlns:x="adobe:ns:meta/" x:xmptk="Adobe XMP Core 5.6-c140 79.160451, 2017/05/06-01:08:21        ">
   <rdf:RDF xmlns:rdf="http://www.w3.org/1999/02/22-rdf-syntax-ns#">
      <rdf:Description rdf:about=""/>
   </rdf:RDF>
</x:xmpmeta>
                                                                                                    
                                                                                                    
                                                                                                    
                                                                                                    
                                                                                                    
                                                                                                    
                                                                                                    
                                                                                                    
                                                                                                    
                                                                                                    
                                                                                                    
                                                                                                    
                                                                                                    
                                                                                                    
                                                                                                    
                                                                                                    
                                                                                                    
                                                                                                    
                                                                                                    
                                                                                                    
                           
<?xpacket end="w"?></metadata>
<defs>
    <style>
      .cls-1 {
        fill: #e20612;
        fill-rule: evenodd;
      }
    </style>
  </defs>
  <path id="okna_przeszklone" class="cls-1" d="M920.812,339.154V317.923A0.916,0.916,0,0,0,919.9,317H898.691a0.916,0.916,0,0,0-.909.923v0.923h0v21.231a0.916,0.916,0,0,0,.909.923H919.9a0.916,0.916,0,0,0,.909-0.923v-0.923h0Zm-12.424,0H899.6V318.846h8.788v20.308Zm10.606,0h-8.788V318.846h8.788v20.308Zm-14.234-18.74-2.924,2.969a1.01,1.01,0,0,0,0,1.414,0.974,0.974,0,0,0,1.393,0l2.923-2.969a1.01,1.01,0,0,0,0-1.414A0.974,0.974,0,0,0,904.76,320.414Zm0,5-2.924,2.969a1.01,1.01,0,0,0,0,1.414,0.974,0.974,0,0,0,1.393,0l2.923-2.969a1.01,1.01,0,0,0,0-1.414A0.974,0.974,0,0,0,904.76,325.414Z" transform="translate(-897.781 -317)"/>
</svg>
