<svg xmlns="http://www.w3.org/2000/svg" width="25.218" height="25.25" viewBox="0 0 25.218 25.25">
  <metadata><?xpacket begin="﻿" id="W5M0MpCehiHzreSzNTczkc9d"?>
<x:xmpmeta xmlns:x="adobe:ns:meta/" x:xmptk="Adobe XMP Core 5.6-c138 79.159824, 2016/09/14-01:09:01        ">
   <rdf:RDF xmlns:rdf="http://www.w3.org/1999/02/22-rdf-syntax-ns#">
      <rdf:Description rdf:about=""/>
   </rdf:RDF>
</x:xmpmeta>
                                                                                                    
                                                                                                    
                                                                                                    
                                                                                                    
                                                                                                    
                                                                                                    
                                                                                                    
                                                                                                    
                                                                                                    
                                                                                                    
                                                                                                    
                                                                                                    
                                                                                                    
                                                                                                    
                                                                                                    
                                                                                                    
                                                                                                    
                                                                                                    
                                                                                                    
                                                                                                    
                           
<?xpacket end="w"?></metadata>
<defs>
    <style>
      .cls-1 {
        fill: #e20612;
        fill-rule: evenodd;
      }
    </style>
  </defs>
  <path id="podlaczenie_pradu" class="cls-1" d="M333.786,381.5a8.027,8.027,0,1,0-8.026-8.027A8.035,8.035,0,0,0,333.786,381.5Zm0-13.76a5.733,5.733,0,1,1-5.733,5.733A5.74,5.74,0,0,1,333.786,367.735Zm-2.293,6.88a1.145,1.145,0,1,0-.811-0.335A1.157,1.157,0,0,0,331.493,374.615Zm4.586,0a1.144,1.144,0,1,0-.811-0.335A1.157,1.157,0,0,0,336.079,374.615Zm9.984-13.423a1.148,1.148,0,0,0-.811-0.336H322.32A1.147,1.147,0,0,0,321.173,362v22.93a1.147,1.147,0,0,0,1.147,1.147h22.932a1.147,1.147,0,0,0,1.147-1.147V362A1.145,1.145,0,0,0,346.063,361.192Zm-1.958,22.6H323.466V363.15h20.639v20.639Z" transform="translate(-321.188 -360.844)"/>
</svg>
