<svg xmlns="http://www.w3.org/2000/svg" width="17" height="26" viewBox="0 0 17 26">
  <metadata><?xpacket begin="﻿" id="W5M0MpCehiHzreSzNTczkc9d"?>
<x:xmpmeta xmlns:x="adobe:ns:meta/" x:xmptk="Adobe XMP Core 5.6-c138 79.159824, 2016/09/14-01:09:01        ">
   <rdf:RDF xmlns:rdf="http://www.w3.org/1999/02/22-rdf-syntax-ns#">
      <rdf:Description rdf:about=""/>
   </rdf:RDF>
</x:xmpmeta>
                                                                                                    
                                                                                                    
                                                                                                    
                                                                                                    
                                                                                                    
                                                                                                    
                                                                                                    
                                                                                                    
                                                                                                    
                                                                                                    
                                                                                                    
                                                                                                    
                                                                                                    
                                                                                                    
                                                                                                    
                                                                                                    
                                                                                                    
                                                                                                    
                                                                                                    
                                                                                                    
                           
<?xpacket end="w"?></metadata>
<defs>
    <style>
      .cls-1 {
        fill: #e20612;
        fill-rule: evenodd;
      }
    </style>
  </defs>
  <path id="dozownik" class="cls-1" d="M1000.12,6193.29a7.849,7.849,0,0,0,1.88-5.38c0-3.14-2.184-6.2-3.486-7.75a19.22,19.22,0,0,0-2.1-2.15v-2.55a1.271,1.271,0,0,0-1.289-1.25h-0.66v-1.75c1.083-.03,2.818-0.05,3.478.01a13.956,13.956,0,0,1,2.135.56,1.177,1.177,0,0,0,.31.05,0.972,0.972,0,0,0,.92-0.64,0.933,0.933,0,0,0-.6-1.19,16.178,16.178,0,0,0-2.566-.65c-0.516-.05-1.451-0.05-2.325-0.05a0.976,0.976,0,0,0-.88-0.55h-5.3a0.953,0.953,0,0,0-.966.94v0.57a0.953,0.953,0,0,0,.966.94h2.9v1.76h-0.66a1.271,1.271,0,0,0-1.289,1.25V6178a19.185,19.185,0,0,0-2.118,2.16c-1.294,1.54-3.466,4.6-3.466,7.75a7.827,7.827,0,0,0,1.883,5.38,0.868,0.868,0,0,0-.05.28l-0.009,1.49a0.9,0.9,0,0,0,.28.66,0.964,0.964,0,0,0,.682.28h11.428a0.968,0.968,0,0,0,.683-0.28,0.915,0.915,0,0,0,.283-0.66l-0.01-1.49A0.868,0.868,0,0,0,1000.12,6193.29Zm-6.62-1.16a5.06,5.06,0,1,1,4.51-5.03A4.79,4.79,0,0,1,993.5,6192.13Z" transform="translate(-985 -6170)"/>
</svg>
