<svg xmlns="http://www.w3.org/2000/svg" width="24" height="21" viewBox="0 0 24 21">
  <metadata><?xpacket begin="﻿" id="W5M0MpCehiHzreSzNTczkc9d"?>
<x:xmpmeta xmlns:x="adobe:ns:meta/" x:xmptk="Adobe XMP Core 5.6-c138 79.159824, 2016/09/14-01:09:01        ">
   <rdf:RDF xmlns:rdf="http://www.w3.org/1999/02/22-rdf-syntax-ns#">
      <rdf:Description rdf:about=""/>
   </rdf:RDF>
</x:xmpmeta>
                                                                                                    
                                                                                                    
                                                                                                    
                                                                                                    
                                                                                                    
                                                                                                    
                                                                                                    
                                                                                                    
                                                                                                    
                                                                                                    
                                                                                                    
                                                                                                    
                                                                                                    
                                                                                                    
                                                                                                    
                                                                                                    
                                                                                                    
                                                                                                    
                                                                                                    
                                                                                                    
                           
<?xpacket end="w"?></metadata>
<defs>
    <style>
      .cls-1 {
        fill: #e20612;
        fill-rule: evenodd;
      }
    </style>
  </defs>
  <path id="scieki" class="cls-1" d="M599.408,4042.05a1.6,1.6,0,0,0-1.591,1.62v0.26h-6.552v-1.88a0.452,0.452,0,0,0-.451-0.46h-0.668v-2.09h3.82a1.75,1.75,0,0,0,0-3.5h-9.932a1.75,1.75,0,0,0,0,3.5h3.82v2.09h-0.669a0.452,0.452,0,0,0-.45.46v1.88h-6.552v-0.26a1.592,1.592,0,1,0-3.183,0v11.72a1.592,1.592,0,1,0,3.183,0v-0.27h17.634v0.27a1.592,1.592,0,1,0,3.183,0v-11.72A1.6,1.6,0,0,0,599.408,4042.05Z" transform="translate(-577 -4036)"/>
</svg>
