<svg xmlns="http://www.w3.org/2000/svg" width="22.97" height="29.47" viewBox="0 0 22.97 29.47">
  <metadata><?xpacket begin="﻿" id="W5M0MpCehiHzreSzNTczkc9d"?>
<x:xmpmeta xmlns:x="adobe:ns:meta/" x:xmptk="Adobe XMP Core 5.6-c138 79.159824, 2016/09/14-01:09:01        ">
   <rdf:RDF xmlns:rdf="http://www.w3.org/1999/02/22-rdf-syntax-ns#">
      <rdf:Description rdf:about=""/>
   </rdf:RDF>
</x:xmpmeta>
                                                                                                    
                                                                                                    
                                                                                                    
                                                                                                    
                                                                                                    
                                                                                                    
                                                                                                    
                                                                                                    
                                                                                                    
                                                                                                    
                                                                                                    
                                                                                                    
                                                                                                    
                                                                                                    
                                                                                                    
                                                                                                    
                                                                                                    
                                                                                                    
                                                                                                    
                                                                                                    
                           
<?xpacket end="w"?></metadata>
<defs>
    <style>
      .cls-1 {
        fill: #e20612;
        fill-rule: evenodd;
      }
    </style>
  </defs>
  <path id="klimatyzacja" class="cls-1" d="M1052.78,4735.76h-15.15a3.916,3.916,0,0,0-3.91,3.91v21.65a3.922,3.922,0,0,0,3.91,3.91h15.15a3.916,3.916,0,0,0,3.91-3.91v-21.65A3.909,3.909,0,0,0,1052.78,4735.76Zm2.11,25.56a2.1,2.1,0,0,1-2.11,2.1h-15.15a2.1,2.1,0,0,1-2.1-2.1v-21.65a2.108,2.108,0,0,1,2.1-2.11h15.15a2.11,2.11,0,0,1,2.11,2.11v21.65h0Zm-3.18-21.46h-1.16a0.9,0.9,0,0,0,0,1.8h1.16A0.9,0.9,0,0,0,1051.71,4739.86Zm-9.22-1.39a5.83,5.83,0,1,0,5.83,5.83A5.843,5.843,0,0,0,1042.49,4738.47Zm-4.02,5.83a4.236,4.236,0,0,1,.03-0.51h1.67v1.02h-1.67A4.236,4.236,0,0,1,1038.47,4744.3Zm3.51-.51h1.03v1.02h-1.03v-1.02Zm2.83,1.02v-1.02h1.67a3.271,3.271,0,0,1,0,1.02h-1.67Zm0-2.83v-0.97a4.252,4.252,0,0,1,.97.97h-0.97Zm-1.8,0h-1.03v-1.67a3.335,3.335,0,0,1,1.03,0v1.67h0Zm-2.84-.97v0.97h-0.96A4.208,4.208,0,0,1,1040.17,4741.01Zm0,5.61v0.97a4.208,4.208,0,0,1-.96-0.97h0.96Zm1.81,1.67v-1.67h1.03v1.67A3.335,3.335,0,0,1,1041.98,4748.29Zm2.83-.7v-0.97h0.97A4.252,4.252,0,0,1,1044.81,4747.59Zm-2.32,3.27a5.83,5.83,0,1,0,5.83,5.83A5.836,5.836,0,0,0,1042.49,4750.86Zm-4.02,5.83a4.405,4.405,0,0,1,.03-0.52h1.67v1.03h-1.67A4.361,4.361,0,0,1,1038.47,4756.69Zm3.51-.52h1.03v1.03h-1.03v-1.03Zm2.83,1.03v-1.03h1.67a2.961,2.961,0,0,1,.04.52,2.922,2.922,0,0,1-.04.51h-1.67Zm0-2.83v-0.97a3.887,3.887,0,0,1,.97.97h-0.97Zm-1.8,0h-1.03v-1.68a4.361,4.361,0,0,1,.51-0.03,4.405,4.405,0,0,1,.52.03v1.68h0Zm-2.84-.97v0.97h-0.96A3.849,3.849,0,0,1,1040.17,4753.4Zm0,5.6v0.97a3.849,3.849,0,0,1-.96-0.97h0.96Zm1.81,1.68V4759h1.03v1.68a4.405,4.405,0,0,1-.52.03A4.361,4.361,0,0,1,1041.98,4760.68Zm2.83-.71V4759h0.97A3.887,3.887,0,0,1,1044.81,4759.97Z" transform="translate(-1033.72 -4735.75)"/>
</svg>
