<?xml version="1.0" encoding="utf-8"?>
<!-- Generator: Adobe Illustrator 14.0.0, SVG Export Plug-In  -->
<!DOCTYPE svg PUBLIC "-//W3C//DTD SVG 1.1//EN" "http://www.w3.org/Graphics/SVG/1.1/DTD/svg11.dtd" [
	<!ENTITY ns_flows "http://ns.adobe.com/Flows/1.0/">
]>
<svg version="1.1"
	 xmlns="http://www.w3.org/2000/svg" xmlns:xlink="http://www.w3.org/1999/xlink" xmlns:a="http://ns.adobe.com/AdobeSVGViewerExtensions/3.0/"
	 x="0px" y="0px" width="25px" height="25px" viewBox="0 0 25 25" enable-background="new 0 0 25 25" xml:space="preserve">
<defs>
</defs>
<path fill="#E10E1A" d="M12.613,20.639c4.425,0,8.026-3.601,8.026-8.026s-3.601-8.026-8.026-8.026c-4.426,0-8.026,3.601-8.026,8.026
	S8.187,20.639,12.613,20.639z M12.613,6.879c3.161,0,5.733,2.572,5.733,5.733s-2.572,5.733-5.733,5.733s-5.733-2.572-5.733-5.733
	S9.452,6.879,12.613,6.879z"/>
<path fill="#E10E1A" d="M10.319,13.759c0.302,0,0.597-0.122,0.811-0.335c0.213-0.214,0.336-0.509,0.336-0.811
	c0-0.302-0.123-0.597-0.336-0.812c-0.214-0.213-0.509-0.335-0.811-0.335c-0.302,0-0.597,0.123-0.811,0.335
	c-0.213,0.214-0.335,0.509-0.335,0.812c0,0.302,0.122,0.598,0.335,0.811C9.722,13.637,10.018,13.759,10.319,13.759z"/>
<path fill="#E10E1A" d="M14.906,13.759c0.302,0,0.597-0.122,0.811-0.335c0.213-0.214,0.335-0.509,0.335-0.811
	c0-0.302-0.122-0.597-0.335-0.812c-0.214-0.213-0.509-0.335-0.811-0.335s-0.598,0.123-0.811,0.335
	c-0.213,0.214-0.335,0.509-0.335,0.812c0,0.302,0.122,0.598,0.335,0.811S14.604,13.759,14.906,13.759z"/>
<path fill="#E10E1A" d="M24.889,0.336C24.674,0.121,24.383,0,24.079,0L1.146,0.001C0.513,0.001,0,0.515,0,1.148v22.931
	c0,0.633,0.513,1.146,1.146,1.146h22.932c0.633,0,1.146-0.513,1.146-1.146V1.147C25.225,0.842,25.104,0.551,24.889,0.336z
	 M22.932,22.932H2.293V2.294l20.639-0.001V22.932z"/>
</svg>
