<svg xmlns="http://www.w3.org/2000/svg" width="24" height="20" viewBox="0 0 24 20">
  <metadata><?xpacket begin="﻿" id="W5M0MpCehiHzreSzNTczkc9d"?>
<x:xmpmeta xmlns:x="adobe:ns:meta/" x:xmptk="Adobe XMP Core 5.6-c138 79.159824, 2016/09/14-01:09:01        ">
   <rdf:RDF xmlns:rdf="http://www.w3.org/1999/02/22-rdf-syntax-ns#">
      <rdf:Description rdf:about=""/>
   </rdf:RDF>
</x:xmpmeta>
                                                                                                    
                                                                                                    
                                                                                                    
                                                                                                    
                                                                                                    
                                                                                                    
                                                                                                    
                                                                                                    
                                                                                                    
                                                                                                    
                                                                                                    
                                                                                                    
                                                                                                    
                                                                                                    
                                                                                                    
                                                                                                    
                                                                                                    
                                                                                                    
                                                                                                    
                                                                                                    
                           
<?xpacket end="w"?></metadata>
<defs>
    <style>
      .cls-1 {
        fill: #e20612;
        fill-rule: evenodd;
      }
    </style>
  </defs>
  <path id="rtv" class="cls-1" d="M711.176,364H688.824a0.826,0.826,0,0,0-.824.829v14.4a0.827,0.827,0,0,0,.824.83h8.011v2.286h-1.961a0.83,0.83,0,0,0,0,1.659h10.252a0.83,0.83,0,0,0,0-1.659h-1.961v-2.286h8.011a0.827,0.827,0,0,0,.824-0.83v-14.4A0.826,0.826,0,0,0,711.176,364Zm-9.66,18.341h-3.032v-2.287h3.032v2.287Zm8.836-3.945h-0.938v-0.7a0.824,0.824,0,1,0-1.648,0v0.7h-1.352v-0.7a0.824,0.824,0,1,0-1.648,0v0.7H689.648V365.658h20.7V378.4Z" transform="translate(-688 -364)"/>
</svg>
