<svg xmlns="http://www.w3.org/2000/svg" width="16" height="24" viewBox="0 0 16 24">
  <metadata><?xpacket begin="﻿" id="W5M0MpCehiHzreSzNTczkc9d"?>
<x:xmpmeta xmlns:x="adobe:ns:meta/" x:xmptk="Adobe XMP Core 5.6-c138 79.159824, 2016/09/14-01:09:01        ">
   <rdf:RDF xmlns:rdf="http://www.w3.org/1999/02/22-rdf-syntax-ns#">
      <rdf:Description rdf:about=""/>
   </rdf:RDF>
</x:xmpmeta>
                                                                                                    
                                                                                                    
                                                                                                    
                                                                                                    
                                                                                                    
                                                                                                    
                                                                                                    
                                                                                                    
                                                                                                    
                                                                                                    
                                                                                                    
                                                                                                    
                                                                                                    
                                                                                                    
                                                                                                    
                                                                                                    
                                                                                                    
                                                                                                    
                                                                                                    
                                                                                                    
                           
<?xpacket end="w"?></metadata>
<defs>
    <style>
      .cls-1 {
        fill: #e20612;
        fill-rule: evenodd;
      }
    </style>
  </defs>
  <path id="boiler" class="cls-1" d="M544.522,423h-9.044A3.563,3.563,0,0,0,532,426.636v13.091a3.564,3.564,0,0,0,3.478,3.637h3.131v2.181a1.392,1.392,0,1,0,2.782,0v-2.181h3.131A3.564,3.564,0,0,0,548,439.727V426.636A3.563,3.563,0,0,0,544.522,423Zm-9.044,2.909h9.044a0.721,0.721,0,0,1,.695.727V432.5A14.7,14.7,0,0,0,540,434a4.953,4.953,0,0,1-5.217-.3v-7.069A0.721,0.721,0,0,1,535.478,425.909Z" transform="translate(-532 -423)"/>
</svg>
