<svg xmlns="http://www.w3.org/2000/svg" width="23" height="26" viewBox="0 0 23 26">
  <metadata><?xpacket begin="﻿" id="W5M0MpCehiHzreSzNTczkc9d"?>
<x:xmpmeta xmlns:x="adobe:ns:meta/" x:xmptk="Adobe XMP Core 5.6-c138 79.159824, 2016/09/14-01:09:01        ">
   <rdf:RDF xmlns:rdf="http://www.w3.org/1999/02/22-rdf-syntax-ns#">
      <rdf:Description rdf:about=""/>
   </rdf:RDF>
</x:xmpmeta>
                                                                                                    
                                                                                                    
                                                                                                    
                                                                                                    
                                                                                                    
                                                                                                    
                                                                                                    
                                                                                                    
                                                                                                    
                                                                                                    
                                                                                                    
                                                                                                    
                                                                                                    
                                                                                                    
                                                                                                    
                                                                                                    
                                                                                                    
                                                                                                    
                                                                                                    
                                                                                                    
                           
<?xpacket end="w"?></metadata>
<defs>
    <style>
      .cls-1 {
        fill: #e20612;
        fill-rule: evenodd;
      }
    </style>
  </defs>
  <path id="wentylacja" class="cls-1" d="M417.5,7372c-6.348,0-11.5,4.87-11.5,10.9s5.152,10.89,11.5,10.89,11.5-4.87,11.5-10.9S423.848,7372,417.5,7372Zm0.63,1.16c2.178,0,3.94.93,3.94,2.06,0,0.91-1.676,1.16-3.729,4.15a4.019,4.019,0,0,0-3.077.66,28.159,28.159,0,0,1-1.067-4.81C414.191,7374.07,415.948,7373.16,418.13,7373.16Zm1.337,9.73a1.967,1.967,0,1,1-1.967-1.93A1.946,1.946,0,0,1,419.467,7382.89Zm-11.856-.63c0-2.15.943-3.88,2.1-3.88,0.921,0,1.174,1.65,4.208,3.67a4.021,4.021,0,0,0,.669,3.03,29.044,29.044,0,0,1-4.883,1.05C408.554,7386.16,407.611,7384.4,407.611,7382.26Zm9.258,10.37c-2.177,0-3.939-.93-3.939-2.06,0-.91,1.676-1.16,3.729-4.15a3.992,3.992,0,0,0,3.077-.66,28.159,28.159,0,0,1,1.067,4.81C420.809,7391.7,419.052,7392.63,416.869,7392.63Zm8.423-5.24c-0.921,0-1.174-1.65-4.208-3.67a3.27,3.27,0,0,0-.669-3.03,29.044,29.044,0,0,1,4.883-1.05c1.153,0,2.1,1.73,2.1,3.88S426.446,7387.39,425.292,7387.39Zm-4.02,6.92a13.364,13.364,0,0,1-3.772.55,12.682,12.682,0,0,1-3.772-.55l-0.965,2.82a0.653,0.653,0,0,0,.631.87h8.191a0.656,0.656,0,0,0,.63-0.87Zm-2.85,2.64h-1.843a0.515,0.515,0,1,1,0-1.03h1.843A0.515,0.515,0,1,1,418.422,7396.95Z" transform="translate(-406 -7372)"/>
</svg>
