<?xml version="1.0" encoding="UTF-8"?>
<svg xmlns="http://www.w3.org/2000/svg" xmlns:xlink="http://www.w3.org/1999/xlink" version="1.2" id="Ebene_1" x="0px" y="0px" width="108.532px" height="101.992px" viewBox="0 0 108.532 101.992" overflow="visible" xml:space="preserve">
<g>
	<path fill="#CCE0ED" d="M49.413,39.686v-3.748c0-3.539-2.854-6.419-6.361-6.419h-5.343c-3.394,2.773-7.63,4.291-12.018,4.291   c-4.386,0-8.622-1.518-12.018-4.291H8.443c-3.508,0-6.361,2.88-6.361,6.419v20.044h33.123   C36.139,48.159,41.771,41.684,49.413,39.686"></path>
	<path fill="none" stroke="#0064A3" stroke-width="4.165" d="M49.413,39.686v-3.748c0-3.539-2.854-6.419-6.361-6.419h-5.343   c-3.394,2.773-7.63,4.291-12.018,4.291c-4.386,0-8.622-1.518-12.018-4.291H8.443c-3.508,0-6.361,2.88-6.361,6.419v20.044h33.123   C36.139,48.159,41.771,41.684,49.413,39.686z"></path>
	<path fill="#CCE0ED" d="M59.119,39.686v-3.748c0-3.539,2.854-6.419,6.361-6.419h5.343c3.394,2.773,7.63,4.291,12.018,4.291   c4.386,0,8.622-1.518,12.018-4.291h5.229c3.508,0,6.361,2.88,6.361,6.419v20.044H73.326C72.392,48.159,66.76,41.684,59.119,39.686"></path>
	<path fill="none" stroke="#0064A3" stroke-width="4.165" d="M59.119,39.686v-3.748c0-3.539,2.854-6.419,6.361-6.419h5.343   c3.394,2.773,7.63,4.291,12.018,4.291c4.386,0,8.622-1.518,12.018-4.291h5.229c3.508,0,6.361,2.88,6.361,6.419v20.044H73.326   C72.392,48.159,66.76,41.684,59.119,39.686z"></path>
	<path fill="#0064A3" d="M12.911,42.508h25.845v7.528h0.007v0.991c1.073-2.294,2.632-4.315,4.554-5.92   c-0.436,0.36-0.862,0.735-1.26,1.138v-7.037H9.611v18.856h3.282v-8.028h0.018V42.508z M9.409,37.565l3.595-0.024l-1.988-10.104   H8.443c-0.346,0-0.675,0.013-1.01,0.054L9.409,37.565z M44.23,27.692c-0.389-0.055-0.775-0.12-1.179-0.12h-2.399l-1.988,9.969   l3.595,0.024L44.23,27.692z"></path>
	<path fill="none" stroke="#0064A3" stroke-width="4.165" stroke-miterlimit="10" d="M25.749,27.591   c-7.013,0-12.718-5.705-12.718-12.718c0-7.011,5.705-12.715,12.718-12.715c7.011,0,12.715,5.704,12.715,12.715   C38.464,21.886,32.76,27.591,25.749,27.591"></path>
	<path fill="none" stroke="#0064A3" stroke-width="4.165" stroke-miterlimit="10" d="M82.786,27.515   c-7.013,0-12.718-5.705-12.718-12.718c0-7.011,5.705-12.715,12.718-12.715c7.011,0,12.715,5.704,12.715,12.715   C95.501,21.811,89.797,27.515,82.786,27.515"></path>
	<path fill="none" stroke="#0064A3" stroke-width="4.165" stroke-miterlimit="10" d="M54.268,71.003   c-7.013,0-12.718-5.705-12.718-12.718c0-7.011,5.705-12.715,12.718-12.715c7.011,0,12.715,5.704,12.715,12.715   C66.983,65.298,61.279,71.003,54.268,71.003"></path>
	<path fill="#CCE0ED" d="M77.931,99.91V79.866c0-3.539-2.854-6.419-6.361-6.419h-5.343c-3.393,2.773-7.63,4.29-12.018,4.29   c-4.387,0-8.623-1.518-12.018-4.29h-5.229c-3.508,0-6.361,2.88-6.361,6.419V99.91H77.931z"></path>
	<path fill="none" stroke="#0064A3" stroke-width="4.165" d="M77.931,99.91V79.866c0-3.539-2.854-6.419-6.361-6.419h-5.343   c-3.393,2.773-7.63,4.29-12.018,4.29c-4.387,0-8.623-1.518-12.018-4.29h-5.229c-3.508,0-6.361,2.88-6.361,6.419V99.91H77.931z"></path>
</g>
<path fill="#0064A3" d="M84.396,40.155h-3.593l-0.678,11.57l2.456,1.884l2.493-1.884L84.396,40.155z M80.803,39.07h3.593v-2.242  h-3.593V39.07z"></path>
<g>
	<path fill="#0064A3" d="M65.023,82.654c-1.505-1.817-4.328-1.607-5.457-0.029c-1.253,1.816-0.47,3.664,0.722,4.944   c0.533,0.596,2.791,2.56,4.735,4.11c1.944-1.55,4.202-3.514,4.734-4.11c1.19-1.28,1.978-3.128,0.722-4.944   C69.35,81.047,66.528,80.837,65.023,82.654"></path>
</g>
</svg>
