<?xml version="1.0" encoding="utf-8"?>
<!-- Generator: Adobe Illustrator 14.0.0, SVG Export Plug-In  -->
<!DOCTYPE svg PUBLIC "-//W3C//DTD SVG 1.1//EN" "http://www.w3.org/Graphics/SVG/1.1/DTD/svg11.dtd" [
	<!ENTITY ns_flows "http://ns.adobe.com/Flows/1.0/">
]>
<svg version="1.1"
	 xmlns="http://www.w3.org/2000/svg" xmlns:xlink="http://www.w3.org/1999/xlink" xmlns:a="http://ns.adobe.com/AdobeSVGViewerExtensions/3.0/"
	 x="0px" y="0px" width="138px" height="94px" viewBox="0 0 138 94" enable-background="new 0 0 138 94" xml:space="preserve">
<defs>
</defs>
<path fill="#4BA829" d="M117.144,56.124l-12.537,12.568l-4.481-4.493c-0.786-0.788-2.059-0.788-2.845,0
	c-0.786,0.788-0.786,2.065,0,2.853l5.904,5.919c0.393,0.394,0.908,0.591,1.422,0.591c0.515,0,1.03-0.197,1.423-0.591l13.958-13.993
	c0.786-0.788,0.786-2.064,0-2.853C119.203,55.336,117.93,55.336,117.144,56.124z"/>
<path fill="#4BA829" d="M112.659,35.437V6.052c0-3.337-2.708-6.052-6.036-6.052H6.035C2.707,0,0,2.715,0,6.052v70.598
	c0,3.337,2.707,6.052,6.035,6.052h79.558c5.377,6.846,13.697,11.265,23.042,11.265c16.178,0,29.341-13.198,29.341-29.419
	C137.977,49.696,126.936,37.414,112.659,35.437z M81.25,54.072L68.466,43.99l40.169-37.055v28.191
	C96.14,35.127,85.473,43.013,81.25,54.072z M4.023,75.677V6.937l39.86,36.769L4.023,75.677z M6.82,4.034h99.019l-49.51,45.67
	L6.82,4.034z M6.739,78.667l40.14-32.198l8.088,7.461c0.385,0.355,0.874,0.532,1.362,0.532s0.978-0.177,1.362-0.532l7.775-7.172
	l14.53,11.458c-0.449,2.042-0.703,4.156-0.703,6.331c0,5.115,1.313,9.925,3.612,14.12H6.739z M108.635,89.932
	c-13.961,0-25.318-11.387-25.318-25.385s11.357-25.386,25.318-25.386c13.96,0,25.318,11.388,25.318,25.386
	S122.596,89.932,108.635,89.932z"/>
</svg>
