<?xml version="1.0" encoding="UTF-8"?>
<svg xmlns="http://www.w3.org/2000/svg" xmlns:xlink="http://www.w3.org/1999/xlink" version="1.2" x="0px" y="0px" viewBox="0 0 387.384 350.34" overflow="visible" xml:space="preserve">
<g id="Ebene_8" display="none">
	<g display="inline">
		<rect x="-38.758" y="-47.787" fill="#FFFFFF" width="453.543" height="453.543"></rect>
	</g>
</g>
<g id="Ebene_5">
	<path fill="#CCE0ED" d="M325.248,117.837c-2.109-43.988-38.435-79.006-82.946-79.006c-28.035,0-52.807,13.906-67.846,35.182   c-9.966-2.317-20.35-3.545-31.021-3.545C68.084,70.468,7,131.553,7,206.904S68.084,343.34,143.436,343.34   c29.636,0,57.062-9.454,79.436-25.504c13.774,6.011,28.981,9.353,44.97,9.353c62.155,0,112.542-50.387,112.542-112.542   C380.384,173.463,358.258,137.453,325.248,117.837z"></path>
	<circle fill="#CCE0ED" cx="48.456" cy="36.66" r="29.66"></circle>
</g>
<g id="Ebene_7">
	<path fill="none" stroke="#0064A3" stroke-width="14" stroke-miterlimit="10" d="M325.248,117.837   c-2.109-43.988-38.435-79.006-82.946-79.006c-28.035,0-52.807,13.906-67.846,35.182c-9.966-2.317-20.35-3.545-31.021-3.545   C68.084,70.468,7,131.553,7,206.904S68.084,343.34,143.436,343.34c29.636,0,57.062-9.454,79.436-25.504   c13.774,6.011,28.981,9.353,44.97,9.353c62.155,0,112.542-50.387,112.542-112.542C380.384,173.463,358.258,137.453,325.248,117.837   z"></path>
	<circle fill="none" stroke="#0064A3" stroke-width="14" stroke-miterlimit="10" cx="48.456" cy="36.66" r="29.66"></circle>
	<g>
		<path fill="#FFFFFF" d="M142.269,247.48c-7.859,2.004-16.488,3.236-24.501,3.236c-28.662,0-40.835-10.324-40.835-54.858    c0-44.379,15.409-56.244,42.684-56.244c8.013,0,15.563,1.079,22.652,3.082l-3.082,21.881c-5.701-1.541-10.941-2.311-16.488-2.311    c-12.327,0-16.642,4.314-16.642,32.822c0,28.816,3.853,33.131,16.642,33.131c5.24,0,10.17-0.925,16.488-2.774L142.269,247.48z"></path>
		<path fill="#FFFFFF" d="M195.736,251.025c-27.737,0-41.143-10.17-41.143-55.166c0-44.841,15.101-56.553,42.838-56.553    s41.297,10.324,41.297,55.165C238.729,239.467,223.473,251.025,195.736,251.025z M196.661,161.958    c-10.17,0-12.945,6.01-12.945,33.13c0,27.275,2.774,33.438,12.945,33.438c10.324,0,12.944-6.009,12.944-33.284    C209.605,168.122,206.985,161.958,196.661,161.958z"></path>
		<path fill="#FFFFFF" d="M253.134,251.374l18.182-18.183c9.862-9.862,12.945-13.56,12.945-18.491c0-4.47-2.619-6.781-9.092-6.781    c-5.856,0-11.094,0.925-18.183,3.082l-3.081-21.42c9.245-2.465,18.182-3.852,28.353-3.852c22.344,0,31.898,9.092,31.898,23.114    c0,13.714-5.394,21.573-17.875,31.897l-8.321,6.934h26.505v24.039h-61.33V251.374z"></path>
	</g>
</g>
<g id="Ebene_6">
</g>
<g id="Ebene_3" display="none">
	<g display="inline">
		<path fill="#0064A2" d="M400.785-33.787v425.543H-24.758V-33.787H400.785 M414.785-47.787H-38.758v453.543h453.543V-47.787    L414.785-47.787z"></path>
	</g>
</g>
<g id="Ebene_2" display="none">
</g>
</svg>
