<?xml version="1.0" encoding="UTF-8"?>
<svg xmlns="http://www.w3.org/2000/svg" xmlns:xlink="http://www.w3.org/1999/xlink" version="1.2" x="0px" y="0px" width="581.334px" height="581.336px" viewBox="0 0 581.334 581.336" overflow="visible" xml:space="preserve">
<g id="BG">
	<g>
		<path fill="#6EAF1E" d="M290.667,581.336c160.531,0,290.667-130.136,290.667-290.667S451.199,0,290.667,0S0,130.137,0,290.669    S130.136,581.336,290.667,581.336"></path>
	</g>
</g>
<g id="TTDG_Logo">
	<g>
		<path fill="#FFFFFF" d="M435.746,431.462c-0.001-7.624-6.196-13.826-13.817-13.84H158.843    c-7.622,0.015-13.817,6.218-13.817,13.843v69.219h290.72V431.462z"></path>
		<rect x="151.947" y="471.843" fill="#E40424" width="276.876" height="21.919"></rect>
		<g>
			<path fill="#0064A3" d="M314.53,451.706c0,1.603,1.365,2.488,2.899,2.488c1.774,0,2.559-0.784,3.069-1.364l-4.023-4.058     C315.656,449.422,314.53,450.307,314.53,451.706z"></path>
			<path fill="#0064A3" d="M269.62,437.348c-4.141,0-7.498,3.772-7.498,8.424c0,4.649,3.357,8.42,7.498,8.42s7.499-3.771,7.499-8.42     C277.119,441.121,273.761,437.348,269.62,437.348z"></path>
			<path fill="#0064A3" d="M319.102,439.568c0-0.889-0.515-1.604-1.47-1.604c-0.749,0-1.532,0.547-1.532,1.672     c0,1.194,0.852,2.114,1.433,2.727C318.282,441.613,319.102,440.795,319.102,439.568z"></path>
			<path fill="#0064A3" d="M421.902,424.543H158.87c-3.823,0-6.922,3.099-6.922,6.922v34.61h276.876v-34.61     C428.824,427.642,425.725,424.543,421.902,424.543z M177.789,438.387h-5.653v21.227h-7.153v-21.227h-5.653v-6.461h18.458V438.387     z M194.401,460.306c-8.092,0-14.65-6.508-14.65-14.536c0-8.026,6.558-14.536,14.65-14.536s14.652,6.509,14.652,14.536     C209.053,453.798,202.493,460.306,194.401,460.306z M222.089,459.613h-7.383v-27.688h7.383V459.613z M253.007,438.387h-5.653     v21.227h-7.153v-21.227h-5.653v-6.461h18.458V438.387z M269.62,460.306c-8.092,0-14.65-6.508-14.65-14.536     c0-8.026,6.558-14.536,14.65-14.536c8.092,0,14.652,6.509,14.652,14.536C284.271,453.798,277.711,460.306,269.62,460.306z      M297.308,459.613h-7.383v-27.688h7.383V459.613z M331.103,455.829l-3.853,3.786l-2.966-3.069     c-0.954,0.818-3.479,3.069-7.536,3.069c-4.739,0-8.422-3.239-8.422-7.328c0-3.752,2.867-5.696,4.671-6.925     c-1.773-1.806-2.389-3.646-2.389-5.454c0-3.681,3.104-6.511,6.993-6.511c3.885,0,6.614,2.796,6.614,6.205     c0,3.306-2.385,5.011-3.478,5.797l2.968,3l1.84-4.126h5.968l-1.944,4.671c-0.476,1.156-1.091,2.283-1.911,3.343L331.103,455.829z      M351.99,459.614h-9.92v-27.688h9.92c3.463,0,13.846,0.951,13.846,14.075C365.835,458.58,355.452,459.614,351.99,459.614z      M377.974,459.613h-7.383v-27.688h7.383V459.613z M401.831,459.615l-5.952-9.755l-5.616,9.755h-8.046l9.686-14.573l-8.484-13.115     l8.073,0.024l4.628,7.912l4.651-7.935h7.976l-8.456,13.09l9.614,14.598H401.831z M421.44,459.613h-7.383v-27.688h7.383V459.613z"></path>
			<path fill="#0064A3" d="M194.401,437.348c-4.141,0-7.498,3.772-7.498,8.424c0,4.649,3.357,8.42,7.498,8.42     s7.499-3.771,7.499-8.42C201.901,441.121,198.542,437.348,194.401,437.348z"></path>
			<path fill="#0064A3" d="M352.412,438.156h-3.421V453.5h3.202c0.722,0,6.711,0,6.711-7.312     C358.905,438.804,353.757,438.156,352.412,438.156z"></path>
			<polygon fill="#FFFFFF" points="159.331,438.387 164.984,438.387 164.984,459.614 172.136,459.614 172.136,438.387      177.789,438.387 177.789,431.927 159.331,431.927    "></polygon>
			<rect x="214.706" y="431.926" fill="#FFFFFF" width="7.383" height="27.688"></rect>
			<path fill="#FFFFFF" d="M194.401,431.235c-8.092,0-14.65,6.509-14.65,14.536c0,8.028,6.558,14.536,14.65,14.536     s14.652-6.508,14.652-14.536C209.053,437.744,202.493,431.235,194.401,431.235z M194.401,454.192     c-4.141,0-7.498-3.771-7.498-8.42c0-4.651,3.357-8.424,7.498-8.424s7.499,3.772,7.499,8.424     C201.901,450.421,198.542,454.192,194.401,454.192z"></path>
			<polygon fill="#FFFFFF" points="234.549,438.387 240.202,438.387 240.202,459.614 247.354,459.614 247.354,438.387      253.007,438.387 253.007,431.927 234.549,431.927    "></polygon>
			<rect x="289.925" y="431.926" fill="#FFFFFF" width="7.383" height="27.688"></rect>
			<path fill="#FFFFFF" d="M269.62,431.235c-8.092,0-14.65,6.509-14.65,14.536c0,8.028,6.558,14.536,14.65,14.536     c8.092,0,14.652-6.508,14.652-14.536C284.271,437.744,277.711,431.235,269.62,431.235z M269.62,454.192     c-4.141,0-7.498-3.771-7.498-8.42c0-4.651,3.357-8.424,7.498-8.424s7.499,3.772,7.499,8.424     C277.119,450.421,273.761,454.192,269.62,454.192z"></path>
			<polygon fill="#FFFFFF" points="408.746,431.927 400.77,431.927 396.119,439.862 391.492,431.95 383.418,431.927      391.902,445.042 382.216,459.615 390.263,459.615 395.878,449.86 401.831,459.615 409.904,459.615 400.291,445.016    "></polygon>
			<rect x="414.057" y="431.926" fill="#FFFFFF" width="7.383" height="27.688"></rect>
			<rect x="370.591" y="431.926" fill="#FFFFFF" width="7.383" height="27.688"></rect>
			<path fill="#FFFFFF" d="M351.99,431.926h-9.92v27.688h9.92c3.463,0,13.846-1.034,13.846-13.613     C365.835,432.877,355.452,431.926,351.99,431.926z M352.193,453.5h-3.202v-15.344h3.421c1.345,0,6.493,0.648,6.493,8.031     C358.905,453.5,352.916,453.5,352.193,453.5z"></path>
			<path fill="#FFFFFF" d="M331.512,444.272h-5.968l-1.84,4.126l-2.968-3c1.092-0.786,3.478-2.491,3.478-5.797     c0-3.409-2.729-6.205-6.614-6.205c-3.889,0-6.993,2.83-6.993,6.511c0,1.808,0.616,3.648,2.389,5.454     c-1.805,1.229-4.671,3.173-4.671,6.925c0,4.089,3.683,7.328,8.422,7.328c4.057,0,6.582-2.251,7.536-3.069l2.966,3.069     l3.853-3.786l-3.446-3.542c0.82-1.06,1.434-2.187,1.911-3.343L331.512,444.272z M317.633,437.963c0.954,0,1.47,0.715,1.47,1.604     c0,1.227-0.82,2.045-1.569,2.794c-0.581-0.613-1.433-1.533-1.433-2.727C316.101,438.51,316.884,437.963,317.633,437.963z      M317.429,454.194c-1.534,0-2.899-0.885-2.899-2.488c0-1.399,1.126-2.284,1.944-2.934l4.023,4.058     C319.988,453.41,319.203,454.194,317.429,454.194z"></path>
		</g>
		<g>
			<path fill="#FFFFFF" d="M268.701,481.428v6.315c-0.785,0.522-2.101,1.044-3.922,1.044c-3.611,0-5.15-2.436-5.15-6.42     c0-4.262,1.717-6.698,5.46-6.698c1.346,0,2.367,0.383,3.063,0.731l-0.222,1.861c-0.695-0.296-1.983-0.522-2.841-0.522     c-0.962,0-2.028,0.261-2.457,0.661c-0.311,0.643-0.488,1.792-0.488,3.601c0,3.375,0.68,4.732,2.782,4.732     c0.666,0,1.184-0.105,1.702-0.296v-3.149h-1.938v-1.861H268.701z"></path>
			<path fill="#FFFFFF" d="M280.829,488.456c-0.858-1.705-1.346-3.01-1.998-4.784c-0.399,0-0.873-0.017-1.318-0.052v4.836h-2.427     V476h2.427h1.747c2.559,0,3.803,1.201,3.803,3.758c0,1.792-0.74,2.905-2.043,3.427c0.799,1.948,1.45,3.375,2.472,5.271H280.829z      M277.513,481.55c0.355,0.052,0.726,0.07,1.11,0.07c0.636,0,1.273-0.088,1.731-0.296c0.237-0.557,0.267-1.096,0.267-1.6     c0-1.183-0.459-1.81-1.776-1.793c-0.385,0-0.829,0.018-1.332,0.053V481.55z"></path>
			<path fill="#FFFFFF" d="M288.576,482.228c0-4.175,1.346-6.559,5.046-6.559c3.7,0,5.046,2.454,5.046,6.559     c0,4.106-1.346,6.559-5.046,6.559C289.922,488.787,288.576,486.334,288.576,482.228z M295.678,486.108     c0.282-0.609,0.459-1.793,0.474-3.689c0-3.375-0.606-4.68-2.472-4.715c-0.932,0-1.642,0.226-2.086,0.644     c-0.311,0.592-0.503,1.792-0.503,3.688c0,3.375,0.636,4.663,2.486,4.698C294.509,486.751,295.22,486.507,295.678,486.108z"></path>
			<path fill="#FFFFFF" d="M304.772,482.349V476h2.502v6.142c0,3.601,0.606,4.558,2.086,4.593c0.784,0.017,1.524-0.157,1.983-0.488     c0.266-0.625,0.459-1.635,0.459-3.774V476h2.501v6.559c0,4.698-1.554,6.228-4.913,6.228     C306.252,488.787,304.772,487.169,304.772,482.349z"></path>
			<path fill="#FFFFFF" d="M328.663,479.966c-0.015,2.784-1.259,4.036-3.581,4.193c-0.459,0.018-1.154,0.035-1.88-0.017v4.314     h-2.427V476h2.427h1.613C327.391,476,328.663,477.218,328.663,479.966z M326.206,479.914c0-1.374-0.488-1.966-1.968-1.949     c-0.326,0-0.666,0.018-1.037,0.018v4.088c0.237,0.035,0.459,0.035,0.696,0.052c0.769,0,1.509-0.07,2.013-0.296     C326.147,481.271,326.206,480.523,326.206,479.914z"></path>
		</g>
	</g>
</g>
<g id="Text">
	<g>
		<path fill="#FFFFFF" d="M48.203,247.692H65.83l9.131,47.175c1.775,9.258,2.917,18.516,4.565,29.802h0.253    c1.522-11.032,2.663-20.29,4.438-29.802l8.624-47.175h24.349l8.497,47.175c1.775,9.766,3.044,18.262,4.565,29.802h0.254    c1.648-11.413,2.917-20.671,4.692-29.802l9.131-47.175h16.359l-17.754,88.137h-25.109l-9.131-50.854    c-1.648-9.638-2.917-17.373-3.931-26.251h-0.254c-1.268,8.751-2.536,16.613-4.185,26.251l-9.13,50.854H66.211L48.203,247.692z"></path>
		<path fill="#FFFFFF" d="M174.898,247.692H222.2v13.188h-30.563v23.334h28.28v12.936h-28.28v25.49H222.2v13.188h-47.303V247.692z"></path>
		<path fill="#FFFFFF" d="M317.316,334.687c-5.961,1.648-12.555,2.663-19.022,2.663c-22.193,0-32.211-7.989-32.211-45.146    c0-37.03,12.174-46.034,33.479-46.034c6.341,0,12.429,0.888,17.755,2.41l-1.902,12.809c-4.565-1.269-9.512-2.029-14.33-2.029    c-12.429,0-18.135,4.565-18.135,32.338c0,28.026,5.199,32.465,18.008,32.465c4.819,0,9.384-0.761,14.584-2.283L317.316,334.687z"></path>
		<path fill="#FFFFFF" d="M347.88,247.692h25.109l23.334,88.137h-17.5l-5.707-22.319h-26.251l-5.707,22.319h-16.485L347.88,247.692z     M370.581,300.574l-5.58-21.939c-2.029-7.229-3.424-13.315-5.072-20.417h-0.254c-1.522,7.229-2.917,13.315-4.946,20.798    l-5.326,21.559H370.581z"></path>
		<path fill="#FFFFFF" d="M409.136,247.692h25.616c22.7,0,30.31,5.072,30.31,23.334c0,13.696-5.326,20.798-17.12,23.461    l19.783,41.342H448.83l-17.501-38.679h-5.453v38.679h-16.739V247.692z M434.5,284.468c10.652,0,13.949-4.059,13.949-12.936    c0-8.623-3.297-11.032-13.949-11.032h-8.624v23.968H434.5z"></path>
		<path fill="#FFFFFF" d="M481.552,247.692h47.302v13.188h-30.562v23.334h28.28v12.936h-28.28v25.49h30.562v13.188h-47.302V247.692z    "></path>
	</g>
	<g>
		<path fill="#FFFFFF" d="M51.112,356.354h10.252v3.354h-5.971v4.308h5.48v3.3h-5.48v7.989h-4.281V356.354z"></path>
		<path fill="#FFFFFF" d="M82.959,375.714c-4.772,0-7.117-1.772-7.117-9.762c0-8.017,2.59-10.008,7.389-10.008    c4.772,0,7.144,1.772,7.144,9.789C90.376,373.724,87.731,375.714,82.959,375.714z M83.095,359.299    c-2.154,0-2.945,1.118-2.945,6.517c0,5.399,0.791,6.544,2.945,6.544c2.182,0,2.972-1.117,2.972-6.517    C86.068,360.445,85.277,359.299,83.095,359.299z"></path>
		<path fill="#FFFFFF" d="M105.97,356.354h5.835c5.126,0,6.762,1.118,6.762,5.154c0,2.808-1.036,4.335-3.19,5.044l3.817,8.753    h-4.826l-3.19-8.017h-0.927v8.017h-4.281V356.354z M111.724,364.071c1.991,0,2.618-0.764,2.618-2.427    c0-1.526-0.6-2.045-2.618-2.045h-1.472v4.472H111.724z"></path>
		<path fill="#FFFFFF" d="M152.676,356.354h5.59c4.69,0,6.544,1.063,6.544,5.617c0,4.526-1.827,6.326-6.79,6.326h-1.063v7.008    h-4.281V356.354z M158.13,365.052c1.718,0,2.454-0.899,2.454-2.944c0-1.99-0.654-2.509-2.399-2.509h-1.227v5.453H158.13z"></path>
		<path fill="#FFFFFF" d="M179.805,356.354h4.281v15.461h5.78v3.49h-10.062V356.354z"></path>
		<path fill="#FFFFFF" d="M207.943,356.354h6.462l4.717,18.951h-4.499l-1.036-4.554h-5.072l-1.063,4.554h-4.199L207.943,356.354z     M212.961,367.453l-1.063-4.554c-0.327-1.337-0.572-2.536-0.873-3.899h-0.027c-0.272,1.391-0.518,2.59-0.873,4.008l-0.981,4.445    H212.961z"></path>
		<path fill="#FFFFFF" d="M233.873,356.354h5.508l4.035,9.299c0.736,1.745,1.254,3.108,1.909,5.099h0.027    c-0.218-1.963-0.327-3.653-0.327-5.099v-9.299h3.681v18.951h-5.535l-4.008-9.298c-0.709-1.718-1.254-3.108-1.881-5.1h-0.055    c0.164,1.964,0.327,3.654,0.327,5.1v9.298h-3.681V356.354z"></path>
		<path fill="#FFFFFF" d="M264.874,356.354h10.524v3.354h-6.244v4.308h5.809v3.3h-5.809v4.636h6.244v3.354h-10.524V356.354z"></path>
		<path fill="#FFFFFF" d="M293.938,359.817h-4.444v-3.463h13.061v3.463h-4.335v15.488h-4.281V359.817z"></path>
		<path fill="#FFFFFF" d="M346.37,373.642c-1.199,1.118-2.89,2.072-5.235,2.072c-3.817,0-5.999-2.072-5.999-5.29    c0-2.372,1.228-3.981,3.272-5.645c-1.336-1.526-2.263-2.944-2.263-5.017c0-3.055,1.99-4.99,5.508-4.99    c3.545,0,5.263,1.718,5.263,4.254c0,2.399-1.391,4.062-3.545,5.862l2.972,3.271c0.327-0.872,0.519-1.745,0.628-2.862h3.436    c-0.327,2.181-0.9,3.98-1.637,5.48l2.346,2.563l-2.754,2.508L346.37,373.642z M339.062,370.097c0,1.418,0.873,2.427,2.399,2.427    c1.228,0,2.127-0.545,2.781-1.228l-3.681-4.117C339.662,367.997,339.062,368.788,339.062,370.097z M341.544,357.963    c-1.036,0-1.608,0.709-1.608,1.854c0,0.982,0.545,1.8,1.363,2.728c1.227-1.063,1.8-1.909,1.8-2.973    C343.098,358.59,342.525,357.963,341.544,357.963z"></path>
		<path fill="#FFFFFF" d="M383.723,356.354h5.59c4.689,0,6.544,1.063,6.544,5.617c0,4.526-1.827,6.326-6.79,6.326h-1.063v7.008    h-4.28V356.354z M389.176,365.052c1.718,0,2.454-0.899,2.454-2.944c0-1.99-0.654-2.509-2.399-2.509h-1.228v5.453H389.176z"></path>
		<path fill="#FFFFFF" d="M410.852,356.354h10.524v3.354h-6.244v4.308h5.809v3.3h-5.809v4.636h6.244v3.354h-10.524V356.354z"></path>
		<path fill="#FFFFFF" d="M443.515,375.714c-4.771,0-7.116-1.772-7.116-9.762c0-8.017,2.59-10.008,7.39-10.008    c4.771,0,7.144,1.772,7.144,9.789C450.932,373.724,448.288,375.714,443.515,375.714z M443.652,359.299    c-2.154,0-2.944,1.118-2.944,6.517c0,5.399,0.79,6.544,2.944,6.544c2.182,0,2.973-1.117,2.973-6.517    C446.625,360.445,445.834,359.299,443.652,359.299z"></path>
		<path fill="#FFFFFF" d="M466.528,356.354h5.59c4.689,0,6.544,1.063,6.544,5.617c0,4.526-1.827,6.326-6.79,6.326h-1.063v7.008    h-4.28V356.354z M471.981,365.052c1.718,0,2.454-0.899,2.454-2.944c0-1.99-0.654-2.509-2.399-2.509h-1.228v5.453H471.981z"></path>
		<path fill="#FFFFFF" d="M493.657,356.354h4.28v15.461h5.781v3.49h-10.062V356.354z"></path>
		<path fill="#FFFFFF" d="M518.441,356.354h10.524v3.354h-6.244v4.308h5.809v3.3h-5.809v4.636h6.244v3.354h-10.524V356.354z"></path>
	</g>
</g>
<g id="TTD_Herz">
	<path fill="#A8CF78" d="M393.996,53.727c-21.333-29.844-74.708-33.802-103.182,0.556c-28.474-34.358-81.849-30.4-103.182-0.556   c-23.702,34.361-8.899,69.297,13.636,93.506c10.083,11.268,52.783,48.402,89.546,77.721c36.763-29.318,79.463-66.453,89.546-77.721   C402.895,123.024,417.698,88.088,393.996,53.727z"></path>
</g>
<g id="Recycling_Herz">
	<g>
		<path fill="#FFFFFF" d="M348.732,145.198c0.129-0.572,0.273-1.139,0.431-1.704c-0.001,0.003-0.049-0.007-0.051-0.002    c-0.151,0.566-0.372,1.103-0.662,1.609C348.432,145.136,348.722,145.239,348.732,145.198z"></path>
		<path fill="#FFFFFF" d="M392.36,94.312c0.016-0.519,0.034-1.038,0.03-1.561c0.001-0.007,0.003-0.014,0.004-0.021    c-0.001,0.007-0.003,0.013-0.004,0.02c-0.006-0.792-0.027-1.586-0.08-2.386c-0.111-1.666-0.333-3.299-0.647-4.904    c-0.279-3.586-1.07-7.169-2.467-10.692c-1.933-4.873-4.571-9.434-7.973-13.444c-0.283-0.291-0.566-0.582-0.849-0.872    c-1.207-1.69-2.546-3.278-4.022-4.759c-1.29-1.168-2.58-2.335-3.87-3.503c-2.863-2.076-5.93-3.786-9.2-5.133    c-0.221-0.236-0.441-0.473-0.662-0.709c-2.516-1.231-5.117-2.232-7.802-3.002c-2.463-1.1-5.049-1.34-7.758-0.72    c-1.719,0.192-3.439,0.385-5.158,0.577c-5.371,0.789-11.081,2.758-16.095,4.776c-0.813,0.327-1.61,0.676-2.401,1.036    c-1.859,0.665-3.686,1.415-5.477,2.26c-0.806,0.239-1.612,0.478-2.418,0.717c-3.568,1.305-6.91,3.044-10.026,5.217    c-1.129,0.685-2.204,1.962-3.16,2.829c-0.994,0.9-2.022,2.083-3.126,2.867c3.452-2.71,7.155-4.974,11.091-6.822    c-1.165,0.635-2.329,1.27-3.494,1.905c-3.377,2.051-6.556,4.373-9.538,6.965c1.851-0.552,3.687-0.902,5.51-1.07    c-1.513,1.035-2.997,2.112-4.449,3.237c0.288,0.049,0.578,0.086,0.869,0.111c1.095,0.119,2.19,0.235,3.285,0.349    c0.333,0.035,0.666,0.068,0.999,0.103c-0.464,0.318-0.927,0.638-1.388,0.96c0.119-0.083,0.923,0.127,1.608,0.327    c-1.306,0.83-2.602,1.681-3.889,2.554c0.087-0.059,2.417,1.587,2.406,1.58c0.006,0.004,0.58,0.416,1.17,0.813    c-0.155,0.117-0.312,0.233-0.466,0.35c0.03-0.023,1.076,1.149,1.165,1.073c0.809-0.693,1.619-1.373,2.432-2.046    c2.206-1.594,4.402-3.204,6.631-4.766c3.42-2.397,7.019-4.444,10.786-6.242c1.415-0.675,2.864-1.303,4.337-1.878    c1.791-0.563,3.611-1.044,5.448-1.455c4.844-1.085,9.927-1.747,14.923-1.396c-1.564-0.119-3.141-0.168-4.729-0.131    c-3.844,0.089-7.621,0.618-11.328,1.482c4.986-1.524,10.184-2.385,15.361-2.317c5.379,0.072,10.387,1.813,14.861,4.532    c-4.17-1.911-8.66-3.059-13.295-3.499c0.642,0.061,1.284,0.131,1.922,0.229c4.258,0.651,8.423,1.934,12.277,3.832    c2.171,1.406,4.21,3.038,6.094,4.818c0.074,0.07,0.141,0.146,0.214,0.217c2.066,2.14,3.926,4.452,5.592,6.961    c1.037,1.562,2.017,3.222,2.866,4.944c0.637,1.683,1.161,3.408,1.563,5.165c0.03,0.239,0.063,0.478,0.085,0.72    c0.13,1.423,0.259,2.846,0.389,4.269c0.26,4.664-0.574,9.122-1.785,13.546c-0.321,0.833-0.66,1.66-1.029,2.477    c-5.456,12.086-14.931,22.305-25.294,30.436c-0.129,0.101,0.235,0.843,0.676,1.673c-0.199,0.155-0.398,0.311-0.597,0.466    c-0.047,0.061-0.093,0.123-0.14,0.184c-1.116,0.806-2.246,1.588-3.407,2.313c0.089-0.056,0.482,0.345,0.941,0.835    c-0.281,0.348-0.554,0.702-0.838,1.047c-0.025,0.03,0.081,0.109,0.108,0.078c0.293-0.323,0.579-0.651,0.866-0.98    c0.668,0.718,1.424,1.549,1.582,1.441c1.259-0.856,2.491-1.756,3.711-2.675c0.086,0.228,0.228,0.61,0.391,1.05    c-1.469,1.347-2.959,2.675-4.466,3.987c-0.608,0.038-1.217,0.062-1.806,0.099c0.285,0.14,0.575,0.268,0.87,0.385    c0.084,0.036,0.169,0.071,0.253,0.106c-0.332,0.288-0.664,0.576-0.998,0.862c-0.659,0.275-1.317,0.554-1.982,0.816    c0.209,0.05,0.421,0.087,0.635,0.113c0.074,0.011,0.147,0.022,0.221,0.033c-0.242,0.206-0.483,0.413-0.725,0.619    c-0.023,0.019,0.275,0.092,0.327,0.049c0.248-0.203,0.495-0.412,0.744-0.616c0.402,0.06,0.804,0.12,1.207,0.179    c-1.022,0.698-2.058,1.376-3.117,2.019c0.741-0.451,2.316,0.315,3.049-0.212c0.654-0.47,1.3-0.957,1.946-1.443    c0.755,0.154,1.604,0.29,1.8,0.149c0.347-0.249,0.687-0.511,1.032-0.765c0.057,0.027,0.112,0.053,0.171,0.081    c-2.518,2.107-5.134,4.093-7.846,5.941c0.165-0.112,0.871-0.237,1.159-0.441c2.393-1.689,4.706-3.492,6.951-5.377    c1.135,0.527,2.515,1.127,2.674,1.001c4.37-3.433,8.589-7.172,12.522-11.172c-5.614,6.622-12.201,12.505-19.131,17.509    c-0.781,0.564-1.497,1.249-2.228,1.874c0.161-0.138-1.047,0.9-0.735,0.671c4.621-3.39,9.059-7.034,13.302-10.886    c3.912-3.552,7.673-7.403,11.063-11.547c1.762-1.896,3.463-3.842,5.073-5.845c6.284-7.819,11.548-16.792,13.694-26.533    c-0.24,2.111-0.48,4.222-0.719,6.333c-0.061,0.228-0.121,0.457-0.182,0.685c-0.405,1.174-0.809,2.349-1.214,3.523    c-3.172,7.35-7.031,13.724-12.103,19.808c-2.58,3.095-5.356,6.006-8.279,8.777c-3.717,3.523-7.653,6.754-11.886,9.636    c-0.165,0.267-0.319,0.54-0.462,0.819c-0.563,1.04-1.123,2.081-1.681,3.123c-0.559,1.042-1.117,2.084-1.672,3.128    c-0.153,0.274-0.295,0.554-0.427,0.838c0.828-0.929,1.63-1.878,2.451-2.813c2.187-2.488,4.816-4.615,7.258-6.85    c5.306-4.856,10.627-9.713,15.194-15.293c2.559-3.127,4.948-6.492,7.012-9.966c2.117-3.563,4.168-7.505,5.497-11.44    c1.115-3.301,1.858-6.821,2.065-10.3C392.367,99.634,392.536,97.009,392.36,94.312z M364.713,50.862    c-0.215-0.562-0.43-1.123-0.645-1.685c0.138,0.058,0.275,0.116,0.413,0.174c0.412,0.7,0.764,1.412,1.078,2.131    c-0.255-0.143-0.512-0.284-0.77-0.421c-0.025-0.066-0.05-0.131-0.075-0.197c0.001,0.001,0.003,0.001,0.004,0.002    C364.717,50.864,364.715,50.863,364.713,50.862z M358.062,47.476l2.989,1.522c0.145,0.179,0.289,0.358,0.434,0.537    c-1.125-0.447-2.279-0.832-3.46-1.152c-1.57-0.646-3.177-1.154-4.817-1.53c1.084,0.107,2.168,0.215,3.251,0.322L358.062,47.476z     M320.52,51.485c-0.155,0.055-0.31,0.111-0.466,0.168c-0.094-0.016-0.188-0.032-0.282-0.049c0.123-0.053,0.246-0.105,0.369-0.158    C320.268,51.458,320.393,51.473,320.52,51.485z M373.589,129.302c1.995-2.428,3.891-4.979,5.633-7.632    c0.045-0.06,0.094-0.117,0.139-0.176c1.473-1.961,2.864-4.017,4.149-6.146c-0.911,2.413-1.995,4.768-3.196,7.056    c-4.213,5.869-9.131,11.279-14.83,15.59C368.358,135.248,371.083,132.35,373.589,129.302z M381.268,61.56    c0.05,0.137,0.089,0.275,0.137,0.412c-0.018-0.029-0.039-0.056-0.057-0.085C381.321,61.778,381.295,61.669,381.268,61.56z     M363.982,48.564c-0.055-0.015-0.109-0.028-0.164-0.043c-0.067-0.176-0.135-0.352-0.202-0.528    C363.746,48.182,363.859,48.374,363.982,48.564z M354.062,45.438c0.952,0.485,1.903,0.969,2.855,1.454    c-0.066-0.015-0.132-0.029-0.198-0.044c-0.143-0.032-0.29-0.05-0.434-0.08c-0.152-0.036-0.304-0.072-0.456-0.108    c0.067,0.02,0.135,0.04,0.202,0.061c-2.094-0.415-4.25-0.593-6.421-0.592c-1.928-0.364-3.88-0.562-5.857-0.578    c-2.677-0.042-5.317,0.135-7.946,0.468c0.171-0.029,0.341-0.065,0.512-0.093C342.587,44.751,348.014,44.882,354.062,45.438z     M318.738,51.356c-0.032,0.018-0.065,0.035-0.097,0.053c-0.162-0.028-0.324-0.056-0.486-0.084    C318.35,51.331,318.543,51.348,318.738,51.356z M380.715,90.933c0.039-1.179,0.031-2.348-0.022-3.508    c0.215,1.673,0.327,3.365,0.312,5.07c-0.006,0.654-0.028,1.326-0.061,2.003c-0.453,2.498-1.143,4.964-2.044,7.371    C379.892,98.294,380.589,94.741,380.715,90.933z M355.836,141.059c0.134,0.365,0.268,0.739,0.387,1.076    c-0.059,0.044-0.114,0.091-0.174,0.134c-1.075,0.785-2.131,1.543-3.238,2.222c-0.342,0.051-0.688,0.093-1.038,0.122    C353.145,143.45,354.499,142.264,355.836,141.059z M350.865,145.381c0.057,0.024,0.115,0.048,0.172,0.072    c-0.168,0.08-0.327,0.172-0.5,0.246c-0.037,0.016-0.076,0.03-0.113,0.047C350.571,145.624,350.719,145.504,350.865,145.381z     M384.363,114.47c0.169-0.479,0.331-0.961,0.487-1.445c3.14-5.695,5.466-11.858,6.433-18.173    c-0.003,0.316-0.006,0.632-0.009,0.948c-0.158,1.353-0.315,2.706-0.473,4.06c-0.312,1.395-0.624,2.79-0.936,4.186    c-0.479,1.453-0.958,2.906-1.438,4.359c-0.535,1.234-1.07,2.468-1.605,3.702c-1.411,2.527-2.933,5.039-4.569,7.494    C383.033,117.925,383.745,116.218,384.363,114.47z"></path>
		<path fill="#FFFFFF" d="M349.505,57.621c-0.29-0.027-0.58-0.047-0.87-0.067C348.925,57.576,349.216,57.594,349.505,57.621z"></path>
	</g>
	<g>
		<path fill="#FFFFFF" d="M276.842,72.127c0.033,0,0.007-0.037-0.02-0.037C276.79,72.09,276.815,72.127,276.842,72.127z"></path>
		<path fill="#FFFFFF" d="M285.756,70.711c-0.628-0.767-1.237-1.568-1.91-2.296c-4.099-4.431-2.463-2.908-5.7-5.767    c-1.399-1.235-2.828-2.372-4.324-3.45c-0.822-0.721-1.665-1.418-2.547-2.071c-1.369-1.177-2.818-2.245-4.347-3.204    c-3.599-2.446-7.436-4.461-11.546-5.909c-1.616-0.569-3.279-1.056-4.97-1.464c-0.274-0.086-0.547-0.173-0.822-0.254    c3.444,0.596,6.888,1.191,10.331,1.787l1.765,0.652c1.36,0.642,2.72,1.283,4.08,1.925c1.165,0.682,2.33,1.364,3.495,2.046    c3.383,2.469,6.368,5.378,8.935,8.75c0.304,0.093,0.612,0.174,0.922,0.244c0.233,0.057,0.467,0.113,0.7,0.17    c0.253,0.304,0.516,0.597,0.761,0.908c0.278,0.172,0.561,0.333,0.851,0.484c1.08,0.59,2.161,1.177,3.244,1.763    c1.262,0.683,2.957,1.321,4.119,2.202c-2.018-1.483-3.986-3.025-5.915-4.612c1.077,0.261,2.154,0.52,3.231,0.777    c0.308,0.08,0.619,0.148,0.932,0.205c-4.274-3.005-8.548-6.01-12.822-9.014c-1.952-1.836-4.081-3.424-6.388-4.765    c-2.963-1.876-6.014-3.451-9.267-4.761c-2.363-1.034-4.802-1.855-7.315-2.463c-1.644-0.226-3.288-0.453-4.932-0.679    c-3.272-0.297-6.61-0.257-9.884-0.03c-3.55,0.245-6.853,1.077-10.036,2.255c0.093-0.049,0.185-0.097,0.278-0.146    c-0.186,0.084-0.372,0.169-0.558,0.253c-0.981,0.37-1.952,0.772-2.915,1.2c-0.154,0.045-0.311,0.08-0.465,0.128    c-3.99,1.002-7.712,2.624-11.172,4.851c-1.177,0.297-2.354,0.595-3.532,0.892c-1.306,1.009-2.612,2.018-3.918,3.027    c-2.591,2.244-4.739,4.808-6.566,7.706c-1.08,1.714-2.02,3.498-2.806,5.347c-0.552,0.412-1.104,0.824-1.656,1.235    c-0.722,1.532-1.445,3.065-2.167,4.597c-1.125,2.214-1.793,4.543-2.005,6.987c-0.308,1.568-0.476,3.15-0.504,4.747    c-0.29,4.74,0.353,9.441,1.298,14.08c0.853,4.189,2.082,8.145,3.659,12.105c0.49,1.231,1.015,2.455,1.562,3.673    c1.339,3.407,2.946,6.713,4.737,9.897c1.35,2.4,2.78,4.739,4.332,7.014c3.011,4.412,6.281,7.995,9.9,12.112    c0.052,0.056,0.104,0.111,0.157,0.167c-0.604-0.877-1.208-1.755-1.812-2.632c3.106,3.444,6.552,6.543,10.344,9.071    c-0.146-0.263-0.303-0.52-0.469-0.771c-0.429-0.676-0.859-1.352-1.291-2.026c-0.83-1.298-1.629-2.627-2.503-3.898    c0.803,0.662,1.627,1.302,2.486,1.907c-0.063-0.197-0.138-0.389-0.225-0.577c-0.302-0.718-0.606-1.434-0.912-2.15    c-0.083-0.194-0.193-0.542-0.322-0.927c2.347,2.847,4.929,5.527,7.905,7.661c-0.062-0.044,1.537-3.775,1.515-3.72    c-0.016,0.041,1.033-2.405,1.37-3.362c0.475-0.788,0.892-1.493,0.854-1.514c-7.958-4.428-14.15-11.662-19.331-19.036    c-2.577-3.823-4.895-7.859-6.785-12.078c-1.015-2.413-1.854-4.885-2.448-7.385c-1.087-4.572-1.43-9.193-1.073-13.802    c0.296-1.367,0.592-2.733,0.889-4.1c0.935-3.31,2.221-6.479,3.858-9.505c0.013-0.028-0.044-0.06-0.063-0.023    c-1.698,3.451-3.293,6.854-4.33,10.502c0.187-1.26,0.408-2.519,0.702-3.773c0.778-3.324,1.965-6.412,3.492-9.463    c0.191-0.382,0.392-0.764,0.594-1.146c0.924-1.373,1.936-2.683,3.037-3.914c0.806-0.846,1.653-1.653,2.544-2.408    c4.737-4.021,10.599-6.777,16.748-8.192c2.09-0.4,4.207-0.675,6.319-0.843c2.481-0.21,4.953-0.162,7.415,0.144    c0.441,0.018,0.878,0.062,1.316,0.102c0.532,0.096,1.061,0.199,1.586,0.314c4.472,0.983,8.652,2.492,12.62,4.851    c0.864,0.553,1.728,1.107,2.592,1.66c0.353,0.304,0.694,0.623,1.013,0.97c1.148,1.147,2.373,2.208,3.674,3.182    c0.036,0.03,0.183-0.01,0.387-0.087c1.102,1.101,2.146,2.261,3.121,3.487c-0.012-0.013,0.781-0.761,1.511-1.468    c0.823,0.807,1.634,1.628,2.418,2.478c-0.006-0.006,0.303-0.404,0.239-0.467c-0.778-0.769-1.556-1.547-2.339-2.32    c0.157-0.154,0.302-0.298,0.428-0.426c1.135,1.212,2.153,2.528,3.033,3.966c-0.051-0.067,0.538-1.456,0.545-1.475    c0-0.001,0.005-0.012,0.006-0.015c0.017,0.228,0.039,0.454,0.042,0.688c0.114-0.295,0.217-0.594,0.309-0.896    c0.301-0.926,0.599-1.853,0.896-2.78c1.404,1.489,2.688,3.081,3.841,4.787c-0.241-0.309-0.257-1.785-0.307-2.103    c-0.052-0.327-0.075-1.785-0.358-2.095c-0.756-0.964-1.56-1.88-2.401-2.758c0.022-0.061,0.044-0.121,0.066-0.183    c2.356,1.962,4.584,4.06,6.668,6.312c0.078,0.078-0.051-0.212-0.084-0.245c-2.106-2.145-4.213-4.305-6.525-6.233    c0.344-0.971,0.684-2.013,0.68-2.331c3.13,2.573,6.044,5.459,8.837,8.556C286.642,71.815,285.618,70.543,285.756,70.711z     M200.817,93.07c0.009,0.978,0.045,1.96,0.113,2.947c0.026,0.379,0.079,0.755,0.115,1.133c-0.154-1.005-0.272-2.016-0.343-3.035    C200.741,93.766,200.779,93.418,200.817,93.07z M197.572,66.972c-1.67,2.559-3.004,5.311-4.09,8.166    c0.261-1.474,0.523-2.948,0.784-4.421C195.368,69.469,196.47,68.221,197.572,66.972z M199.453,122.844    c0.207,0.376,0.412,0.753,0.625,1.128c0.01,0.039,0.019,0.078,0.029,0.116c-0.192-0.307-0.372-0.622-0.559-0.932    C199.515,123.052,199.484,122.948,199.453,122.844z M213.643,135.479c-0.221-0.505-0.45-1.006-0.655-1.521    c-0.242-0.609-0.496-1.213-0.748-1.819c0.199,0.267,0.399,0.533,0.602,0.797c1.16,1.878,2.388,3.713,3.707,5.487    c0.047,0.063,0.096,0.126,0.143,0.189C215.622,137.607,214.605,136.567,213.643,135.479z M242.629,43.218    c3.279,0.212,6.508,0.733,9.687,1.561c3.211,0.843,6.312,1.985,9.305,3.421c-2.892-0.978-5.905-2.167-8.784-2.647    c-1.229-0.205-2.47-0.355-3.703-0.525c-2.838-0.392-5.55-0.651-8.435-0.627c-0.094,0.001-0.186,0.007-0.28,0.009    c-3.435-0.396-6.869-0.442-10.376-0.125c-0.908,0.044-1.807,0.144-2.701,0.27C232.375,43.3,237.47,42.844,242.629,43.218z     M190.126,99.205c-0.725-4.36-0.889-8.73-0.481-13.111c0.383-4.552,1.475-8.907,3.26-13.072c-0.428,1.744-0.87,3.487-1.249,5.242    c-0.318,1.477-0.323,2.479-0.531,4.356c-0.154,1.39-0.395,3.017-0.486,4.509c-0.028,0.448-0.035,0.902-0.034,1.359    c-0.227,3.71-0.02,7.435,0.555,11.122c0.21,2.149,0.553,4.284,1.022,6.376c0.34,1.518,0.752,3.017,1.215,4.501    C192.016,106.812,190.923,103.034,190.126,99.205z M199.926,124.307c0.129,0.21,0.26,0.418,0.391,0.627    c0.118,0.473,0.236,0.947,0.353,1.42C200.403,125.672,200.159,124.99,199.926,124.307z M200.97,88.867    c-0.019,0.107-0.045,0.211-0.063,0.318c-0.182,1.402-0.364,2.803-0.546,4.205c-0.135-2.976,0.036-5.958,0.538-8.919    c0.747-3.499,2-6.892,3.696-10.045C202.573,79.058,201.372,83.893,200.97,88.867z M270.619,64.72    c0.201-0.088,0.338-0.142,0.349-0.129c-0.314-0.342-0.629-0.68-0.943-1.02c0.174-0.056,0.452-0.146,0.783-0.25    c0.141,0.23,0.284,0.458,0.415,0.698c1.439,1.229,2.436,2.655,2.996,4.277C273.031,67.059,271.847,65.862,270.619,64.72z"></path>
	</g>
	<g>
		<path fill="#FFFFFF" d="M246.97,157.874c-0.054,0-0.075,0.308-0.046,0.308C246.978,158.183,246.999,157.874,246.97,157.874z"></path>
		<path fill="#FFFFFF" d="M325.439,181.27c-1.935,1.726-3.952,3.347-6.043,4.872c-0.696,0.313-1.392,0.626-2.088,0.938    c-0.192-0.126-0.377-0.24-0.563-0.357c0.892-0.727,1.781-1.461,2.666-2.207c3.14-2.647,6.224-5.352,9.27-8.108    c0.391-0.354,1.086-0.819,1.385-1.283c0.059-0.091-0.816,0.698-0.751,0.641c-1.747,1.307-3.495,2.614-5.242,3.922    c4.257-3.904,8.504-7.812,12.653-11.833c-0.278,0.136-0.551,0.283-0.819,0.441c-1.019,0.573-2.036,1.147-3.052,1.724    c-1.277,0.724-2.614,1.405-3.845,2.209c-1.205,0.788-2.386,1.596-3.56,2.414c2.366-2.086,4.702-4.208,7.023-6.351    c-0.203,0.052-0.403,0.116-0.599,0.191c-0.746,0.26-1.491,0.522-2.235,0.786c-0.288,0.102-0.669,0.202-1.067,0.314    c2.456-2.088,4.872-4.224,7.241-6.399c-0.185,0.17-3.714-1.078-3.774-1.095c-0.352-0.1-0.704-0.198-1.056-0.297    c0.664-0.597,1.333-1.189,1.992-1.793c-0.102,0.093-3.464-3.134-3.609-2.986c-4.593,4.687-9.32,9.257-13.647,14.192    c-0.404,0.461-0.797,0.931-1.19,1.4c-1.928,1.673-3.867,3.335-5.83,4.976c-0.008,0.007-0.039,0.044-0.012,0.022    c1.872-1.539,3.723-3.099,5.564-4.669c-0.897,1.077-1.776,2.167-2.654,3.258c-3.069,2.913-6.1,5.86-9.062,8.891    c-1.3,1.331-2.619,2.635-3.95,3.926c-0.156,0.095-0.312,0.192-0.467,0.287c-1.57,0.959-3.148,1.906-4.728,2.85    c-0.07-0.019-0.143-0.047-0.213-0.068c-0.134-0.105-0.269-0.209-0.403-0.315c1.423-1.152,2.847-2.301,4.269-3.454    c0.029-0.024,0-0.074-0.025-0.055c-1.314,1.018-2.628,2.036-3.942,3.055c-0.149,0.114-0.298,0.227-0.447,0.341    c-1.487-1.174-2.965-2.36-4.425-3.568c-11.538-9.364-22.546-19.296-33.746-29.052c-0.032-0.028-0.526,0.486-1.14,1.147    c-1.064-0.831-2.138-1.649-3.234-2.441c-0.008-0.006-0.225,0.345-0.168,0.39c1.044,0.78,2.077,1.573,3.1,2.377    c-0.412,0.447-0.848,0.924-1.225,1.338c-1.493-1.411-2.976-2.832-4.444-4.271c0.089,0.087-0.207,1.389-0.367,2.066    c-0.797-0.722-1.604-1.435-2.397-2.16c0.129,0.118-0.114,0.72,0.062,0.874c0.73,0.637,1.458,1.276,2.187,1.913    c-0.139,0.587-0.499,2.133-0.359,2.254c1.405,1.222,2.806,2.45,4.208,3.676c-0.251,0.126-0.497,0.247-0.727,0.357    c-1.577-1.381-3.151-2.765-4.728-4.145c-1.382-1.016-2.771-2.022-4.162-3.026c-0.245-0.266-0.498-0.524-0.741-0.792    c0.123,0.128,0.241,0.307,0.353,0.511c-0.229-0.165-0.455-0.333-0.684-0.498c-0.035-0.026-0.036,0.049-0.009,0.069    c0.26,0.189,0.513,0.388,0.771,0.578c0.327,0.641,0.603,1.47,0.825,1.914c0.292,0.585,0.753,2.077,1.302,2.552    c10.396,8.99,20.657,18.146,31.239,26.919c0.9,0.734,1.8,1.468,2.7,2.203c-0.456-0.079-0.911-0.158-1.367-0.236    c-3.601-2.879-7.157-5.812-10.669-8.798c-9.382-7.901-18.558-16.042-27.848-24.051c-0.15-0.13,0.297,0.384,0.369,0.446    c7.096,6.1,14.122,12.28,21.212,18.386c6.343,5.463,12.794,10.771,19.327,15.991c-1.001-0.584-2.022-1.307-3.063-2.169    c-2.409-1.976-4.818-3.952-7.227-5.928c-10.56-8.791-20.851-17.905-31.194-26.948c-0.274-0.24,0.772,0.835,0.632,0.692    c0.633,0.647,1.247,1.349,1.932,1.941c7.114,6.142,14.176,12.343,21.297,18.476c7.715,6.644,15.587,13.063,23.575,19.371    c-0.325,0.161-0.656,0.311-0.986,0.461c-12.91-10.53-25.368-21.347-37.968-32.226c-1.375-1.187-2.871-2.251-4.307-3.36    c-0.744-0.574-1.483-1.159-2.238-1.718c0.018,0.013-0.81-0.616-0.293-0.191c15.038,12.34,29.553,25.287,44.64,37.567    c-0.216,0.096-0.433,0.19-0.651,0.282c-6.353-5.076-12.625-10.239-18.795-15.548c-7.121-6.128-14.173-12.338-21.249-18.518    c-0.986-0.861-2.602-1.479-3.713-2.098c-1.168-0.65-2.652-1.248-3.738-2.053c4.314,3.008,8.441,6.254,12.381,9.737    c3.122,2.715,6.248,5.426,9.376,8.135c8.163,7.072,16.459,13.955,24.88,20.717c1.066,0.856,2.358,1.545,3.502,2.279    c-0.037-0.024,3.416,2.345,3.529,2.236c0.144-0.153,0.296-0.297,0.442-0.448c0.54,0.448,2.346,1.998,2.486,1.889    c0.784-0.611,1.561-1.228,2.335-1.85c2.331,2.03,4.658,1.116,6.98-2.755c1.411-1.132,2.823-2.263,4.235-3.395    c4.638-3.345,9.042-6.98,13.225-10.892c0.635-0.177,1.271-0.354,1.906-0.531c1.356-0.986,2.678-2.015,3.968-3.085    c2.457-1.993,4.727-4.003,6.977-6.24c1.002-0.997,1.851-2.271,2.727-3.366c0.83-1.036,1.693-2.486,2.687-3.398    c-2.74,2.511-5.466,5.037-8.254,7.494L325.439,181.27z M301.648,195.751c-0.417,0.389-0.835,0.778-1.252,1.167    c-0.625,0.303-1.298,0.25-2.018-0.145c1.516-1.239,3.032-2.478,4.554-3.71C302.535,194.195,302.108,195.095,301.648,195.751z     M305.703,185.531c-1.244,0.78-2.485,1.561-3.725,2.344c1.365-0.962,2.731-1.922,4.088-2.894    C305.947,185.166,305.828,185.351,305.703,185.531z M306.867,183.734c-0.747,0.504-1.497,1.002-2.253,1.493    c0.959-0.816,1.919-1.63,2.881-2.442C307.285,183.101,307.076,183.417,306.867,183.734z M251.411,169.355    c-3.537-3.015-6.876-6.235-10.036-9.638c2.918,2.183,5.747,4.488,8.526,6.858c-0.584,0.28-1.041,0.477-1.088,0.436    c4.254,3.71,8.509,7.422,12.775,11.123c-1.332-1.14-2.671-2.273-3.998-3.419L251.411,169.355z"></path>
	</g>
	<g id="Ebene_3">
		<g>
			<polygon fill="#FFFFFF" points="341.969,128.045 367.097,157.388 339.006,158.056    "></polygon>
			<g>
				<path fill="#FFFFFF" d="M368.683,158.963c-0.174-0.204-0.349-0.407-0.523-0.611c0.05-0.027,0.101-0.054,0.17-0.09      c0.021-0.003,0.026-0.014,0.017-0.033c-7.995-9.33-15.984-18.666-23.977-27.998c0.056-0.608,0.119-1.216,0.174-1.825      c0.005-0.05-0.052-0.08-0.122-0.1c0.021-0.23,0.045-0.46,0.066-0.69c0.02-0.224-0.415-0.264-0.465-0.059      c0.016-0.178,0.032-0.357,0.048-0.535c0.016-0.171-0.44-0.366-0.465-0.092c-0.066,0.722-0.139,1.444-0.208,2.166      c-0.009-0.01-0.018-0.021-0.027-0.031c0.058-0.622,0.117-1.244,0.175-1.866c0.007-0.071-0.044-0.125-0.108-0.167      c0.012-0.131,0.024-0.263,0.036-0.394c0.02-0.205-0.37-0.514-0.397-0.215c-0.069,0.768-0.146,1.536-0.218,2.304      c-0.007-0.002-0.01-0.003-0.016-0.004c0.053-0.584,0.106-1.167,0.16-1.751c0.011-0.116-0.086-0.235-0.191-0.291      c0.015-0.156,0.032-0.312,0.047-0.469c0.026-0.266-0.317-0.494-0.345-0.183c-0.061,0.674-0.12,1.348-0.18,2.023      c-0.036-0.022-0.06-0.038-0.059-0.044c-0.019,0.21-0.042,0.42-0.062,0.63c-0.021-0.005-0.043-0.008-0.066-0.011      c0.033-0.402,0.076-0.804,0.107-1.206c0.006-0.081-0.111-0.253-0.209-0.314c0.008-0.097,0.018-0.193,0.026-0.289      c0.003-0.044-0.018-0.109-0.049-0.174c0.026-0.297,0.052-0.594,0.078-0.891c0.025-0.296-0.191-0.315-0.221-0.02      c-0.024,0.234-0.046,0.468-0.069,0.702c-0.015,0.011-0.028,0.03-0.032,0.073c-0.062,0.643-0.129,1.285-0.192,1.928      c-0.001-0.002-0.003-0.003-0.004-0.005c-0.035-0.041-0.141-0.018-0.245,0.012c0.052-0.648,0.113-1.295,0.163-1.943      c0.012-0.157-0.065-0.323-0.05-0.477c-0.079,0.82-0.164,1.639-0.245,2.458c-0.049,0.014-0.088,0.022-0.098,0.011      c0.029,0.034,0.058,0.067,0.086,0.101c-0.012,0.119-0.024,0.237-0.036,0.356l-0.282-0.33c-0.053-0.062-0.436,0.191-0.444,0.181      c0.111,0.129,0.221,0.258,0.332,0.387c-0.041,0.052-0.053,0.113,0.001,0.176c0.105,0.123,0.21,0.246,0.315,0.368      c-0.009,0.086-0.017,0.173-0.026,0.259c-0.021,0.013-0.04,0.027-0.058,0.042c-0.205-0.239-0.41-0.478-0.614-0.717      c-0.06-0.07-0.426,0.239-0.368,0.307c0.322,0.375,0.643,0.751,0.965,1.126c-0.34,3.364-0.687,6.727-1.036,10.09      c-0.061-0.106-0.161-0.212-0.153-0.295c-0.382,3.73-0.795,7.457-1.175,11.187c-0.06,0.585-0.167,1.198-0.277,1.82      c0.155-1.723,0.264-3.453,0.406-5.175c0.01-0.116-0.176-0.38-0.171-0.421c-0.072,0.634-0.135,1.268-0.196,1.903      c-0.037-0.133-0.086-0.26-0.094-0.156c-0.135,1.707-0.302,3.354-0.606,5.032c0.004-0.034,0.007-0.069,0.011-0.103      c0.012-0.115-0.277-0.312-0.265-0.384c-0.164,0.956-0.426,1.966-0.419,2.944c0,0.051,0.058,0.13,0.115,0.127      c0.011-0.001,0.022-0.001,0.033-0.001c-0.009,0.112,0.005,0.226,0.007,0.339c-0.093-0.025-0.149-0.054-0.153-0.089      c-0.011-0.096-0.443-0.3-0.443-0.123c0,0.156,0,0.311-0.001,0.467c0,0.132,0.161,0.115,0.247,0.112      c0.119-0.004,0.238-0.006,0.357-0.01c0,0.002,0,0.004,0,0.005c0.003,0.042,0.027,0.151,0.093,0.149      c0.333-0.011,0.666-0.018,0.998-0.028c-0.07,0.027-0.132,0.051-0.154,0.051c0.054,0,0.133-0.025,0.21-0.052      c3.883-0.122,7.768-0.201,11.651-0.302c2.775-0.072,5.553-0.155,8.329-0.177c0.09,0.004,0.181,0.008,0.271,0.012      c-0.009,0.033-0.014,0.061-0.02,0.091c-4.048,0.056-8.099,0.216-12.146,0.364c-3.143,0.066-6.287,0.122-9.426,0.266      c-0.106,0.005-0.537,0.123-0.215,0.116c1.566-0.034,3.133-0.067,4.699-0.101c-1.2,0.041-2.401,0.089-3.599,0.152      c-0.154,0.008-0.304,0.155-0.452,0.16c6.424-0.208,12.856-0.313,19.283-0.419c0.49-0.008,0.979-0.008,1.469-0.013      c-0.048,0.085-0.081,0.165-0.053,0.164c2.191-0.026,4.413,0.064,6.612,0.015c0.015,0.017,0.029,0.034,0.044,0.051      c-0.512-0.001-1.024-0.003-1.536,0.008c-0.129,0.002-0.259,0.008-0.388,0.011c-0.741-0.016-1.482-0.042-2.22-0.038      c-2.844,0.016-5.687,0.165-8.529,0.259c-0.152,0.005-0.299,0.169-0.447,0.172c2.031-0.045,4.064-0.092,6.098-0.129      c-0.082,0.081-0.162,0.183-0.224,0.184c1.804-0.02,3.607-0.089,5.409-0.073c0.66,0.08,1.332,0.204,1.989,0.105      c-0.026,0.079-0.047,0.149-0.058,0.148c0.165,0.007,0.336,0.021,0.51,0.036c-0.53,0-1.07-0.017-1.161-0.023      c-0.054,0.004-0.15,0.084-0.227,0.162c-0.138,0.004-0.275,0.009-0.413,0.013c-0.074-0.003-0.519,0.133-0.358,0.138      c0.934,0.028,2.001,0.31,2.923,0.126c0.003-0.001,0.008-0.003,0.012-0.003c0.006,0,0.011-0.001,0.017-0.001      c-0.063,0.117-0.113,0.259-0.114,0.259c0.58,0.177,1.13,0.137,1.65-0.122c0.015-0.005,0.025-0.028,0.036-0.048      c0.015,0.03,0.031,0.056,0.047,0.05c0.152-0.049,0.304-0.099,0.457-0.148c0.099-0.032,0.104-0.135,0.044-0.205      c-0.118-0.138-0.237-0.276-0.355-0.415c0.031-0.045,0.048-0.097,0.013-0.138c-0.094-0.11-0.189-0.221-0.284-0.331      c0.163,0.003,0.223-0.011,0.389-0.096c0.181,0.248,0.29,0.443,0.195,0.464c-0.028,0.006,0.096,0.471,0.107,0.467      c0.14-0.049,0.281-0.098,0.421-0.146C368.884,159.159,368.721,159.008,368.683,158.963z M356.353,144.541      c2.662,3.108,5.323,6.216,7.985,9.324c0.937,1.094,1.875,2.189,2.812,3.283c0.226,0.264,0.411,0.461,0.496,0.603      c-7.769-9.071-15.536-18.142-23.304-27.213c0.001-0.007,0.001-0.015,0.002-0.022      C348.346,135.192,352.349,139.867,356.353,144.541z M367.734,159.273c-0.06,0.018-0.071,0.142-0.056,0.26      c-0.096-0.112-0.192-0.224-0.288-0.336c0.09-0.02,0.178-0.046,0.265-0.075C367.717,159.209,367.751,159.268,367.734,159.273z       M339.646,157.614l-0.884,0.028c-0.108-0.056-0.171-0.129-0.205-0.212c0.143-0.005,0.286-0.008,0.429-0.013      c0.007,0.024,0.009,0.049,0.016,0.072c0.006,0.023,0.021,0.031,0.043,0.024c3.806-0.124,7.614-0.193,11.42-0.286      c1.939-0.047,3.882-0.058,5.826-0.066c-4.143,0.099-8.286,0.215-12.429,0.329C342.457,157.529,341.052,157.569,339.646,157.614z       M338.665,156.005c0.001,0.042-0.002,0.085,0,0.126c-0.013-0.013-0.028-0.024-0.039-0.041c0.004-0.037,0.011-0.075,0.015-0.111      C338.648,155.989,338.656,155.997,338.665,156.005z M338.612,156.637c0.034-0.001,0.068-0.002,0.103-0.003      c0.006,0.047,0.008,0.096,0.015,0.143c-0.04,0.001-0.079,0.002-0.117,0.001C338.61,156.732,338.612,156.684,338.612,156.637z       M340.74,150.233c-0.195,1.764-0.471,3.509-0.536,5.28c-0.051,0.001-0.103,0.003-0.154,0.004      c0.275-2.016,0.533-4.036,0.77-6.059C340.792,149.716,340.769,149.975,340.74,150.233z M343.011,133.126      c-0.194,1.958-0.392,3.916-0.593,5.874c0.195-1.965,0.389-3.93,0.574-5.896C342.998,133.111,343.005,133.119,343.011,133.126z       M342.652,142.039c-0.264,3.102-0.545,6.207-0.944,9.286c0.29-2.825,0.574-5.652,0.858-8.478      C342.595,142.578,342.624,142.309,342.652,142.039z M362.662,156.468c0.097,0.003-0.163-0.371-0.258-0.377      c-0.097-0.007-0.195-0.009-0.292-0.015c-0.087-0.078-0.222-0.181-0.289-0.188c-3.185-0.293-6.412-0.265-9.636-0.162      c-2.755,0.041-5.513,0.16-8.252,0.256c-0.002-0.033-0.004-0.074-0.007-0.115c5.48-0.156,10.963-0.26,16.442-0.45      c0.017-0.001-0.242-0.301-0.342-0.3c-4.959,0.037-9.915,0.145-14.873,0.268c-1.544,0.038-3.088,0.079-4.632,0.12      c0.576-4.22,1.059-8.45,1.504-12.685c-0.398,3.856-0.795,7.712-1.167,11.57c-0.019,0.196,0.246-0.216,0.258-0.291      c0.115-0.745,0.22-1.492,0.327-2.239c0.1-0.032,0.19-0.086,0.21-0.129c-0.073,0.548-0.132,1.099-0.215,1.644      c0.018-0.119,0.307-0.21,0.333-0.344c0.373-1.91,0.644-3.847,0.863-5.795c0.032-0.015,0.061-0.03,0.063-0.05      c0.442-4.305,0.871-8.613,1.286-12.921c6.362,7.429,12.724,14.859,19.087,22.287c-0.722-0.033-1.439-0.071-2.154-0.109      C361.5,156.451,362.081,156.448,362.662,156.468z M363.143,156.635c0.001,0.001,0.002,0.003,0.004,0.004      c-0.017-0.001-0.035-0.002-0.052-0.003C363.111,156.635,363.127,156.635,363.143,156.635z M339.393,156.013      c-0.003,0.035-0.007,0.069-0.01,0.104c-0.001,0-0.002,0-0.003,0C339.384,156.083,339.388,156.048,339.393,156.013      L339.393,156.013z M361.268,157.117c0.749-0.011,1.496-0.032,2.244-0.052c0.041,0.048,0.081,0.095,0.122,0.143      c-0.793-0.024-1.585-0.046-2.378-0.064C361.26,157.137,361.265,157.13,361.268,157.117z M341.899,131.828      c-0.157,1.579-0.311,3.157-0.477,4.735c0.156-1.591,0.297-3.182,0.444-4.774C341.877,131.802,341.888,131.815,341.899,131.828z       M365.706,158.437c-0.001,0.002-0.002,0.005-0.003,0.007c-0.002-0.002-0.004-0.005-0.006-0.007      C365.7,158.437,365.703,158.437,365.706,158.437z M366.999,158.692c0.016-0.058-0.018-0.14-0.047-0.18      c0.071-0.002,0.132-0.003,0.191-0.003c0.045,0.053,0.09,0.105,0.136,0.158C367.186,158.681,367.092,158.681,366.999,158.692z       M343.37,129.381c-0.015,0.158-0.031,0.317-0.046,0.475c-0.008-0.01-0.017-0.02-0.025-0.03c0.015-0.159,0.03-0.317,0.045-0.476      C343.353,129.361,343.361,129.371,343.37,129.381z M342.855,128.78c-0.015,0.159-0.03,0.317-0.045,0.476      c-0.004-0.005-0.009-0.01-0.013-0.015c0.015-0.159,0.029-0.318,0.044-0.478C342.845,128.769,342.85,128.774,342.855,128.78z       M342.172,129.058c-0.002,0.019-0.004,0.039-0.006,0.058c-0.019-0.022-0.038-0.044-0.057-0.066      c0.002-0.02,0.004-0.039,0.005-0.059C342.134,129.013,342.153,129.035,342.172,129.058z M341.313,128.735      c0.073,0.085,0.146,0.17,0.218,0.255c-0.005,0.049-0.01,0.098-0.015,0.146c-0.052,0.024-0.094,0.06-0.111,0.104      c-0.041-0.048-0.082-0.096-0.123-0.144C341.292,128.977,341.303,128.856,341.313,128.735z M341.216,129.894      c0.012,0.014,0.024,0.028,0.036,0.042c-0.012-0.001-0.025,0-0.039,0.001C341.213,129.923,341.215,129.908,341.216,129.894z       M341.317,131.148c-0.343,3.46-0.685,6.921-1.031,10.38c-0.248,2.477-0.498,4.954-0.765,7.429      c-0.069,0.561-0.142,1.122-0.215,1.683c0.116-1.26,0.227-2.521,0.342-3.782c0.002-0.02-0.017-0.042-0.032-0.063      c0.542-5.285,1.061-10.574,1.515-15.867C341.192,131.002,341.254,131.075,341.317,131.148z M337.995,156.079      c-0.008-0.006-0.015-0.016-0.023-0.023c0.012-0.126,0.031-0.262,0.055-0.404C338.014,155.795,338.003,155.937,337.995,156.079z       M337.566,156.621c-0.001,0.036,0,0.072,0,0.108c-0.032-0.016-0.059-0.031-0.093-0.045c0.004-0.037,0.008-0.075,0.012-0.112      C337.506,156.599,337.533,156.617,337.566,156.621z M337.536,157.303c0.16-0.008,0.32-0.013,0.479-0.02      c0.009,0.068,0.056,0.108,0.113,0.131c0.002,0.115,0.012,0.231,0.024,0.346c-0.157-0.007-0.302-0.014-0.431-0.024      C337.576,157.629,337.514,157.485,337.536,157.303z M366.935,159.432c0.037-0.015,0.077-0.024,0.114-0.041      c0.03-0.014,0.043-0.064,0.043-0.109C367.134,159.361,367.1,159.408,366.935,159.432z M367.454,158.036      c0-0.001,0.001-0.002,0-0.003c-0.074-0.086-0.147-0.172-0.221-0.258c0.073-0.007,0.147-0.007,0.219-0.014      c0.038-0.004-0.274-0.263-0.369-0.267c-0.031-0.001-0.062-0.001-0.093-0.002c-7.568-8.83-15.129-17.667-22.694-26.5      c0.008-0.084,0.016-0.169,0.024-0.253c3.897,4.55,7.793,9.1,11.69,13.651c2.753,3.215,5.506,6.43,8.259,9.645      c0.874,1.021,1.749,2.042,2.623,3.063c-0.064-0.075,0.372,0.381,0.77,0.852C367.632,157.99,367.568,158.02,367.454,158.036z"></path>
				<path fill="#FFFFFF" d="M364.199,159.177c0.001,0,0.004-0.003,0.005-0.003C364.175,159.174,364.179,159.175,364.199,159.177z"></path>
			</g>
		</g>
		<g>
			<polygon fill="#FFFFFF" points="264.088,149.725 236.521,176.789 233.945,148.808    "></polygon>
			<path fill="#FFFFFF" d="M266.485,149.443c-0.981-0.034-1.963-0.064-2.944-0.097c-0.025-0.067-0.059-0.105-0.099-0.066     c-0.021,0.02-0.041,0.04-0.061,0.06c-0.077-0.003-0.155-0.005-0.232-0.008c0.09-0.088,0.18-0.177,0.27-0.265     c0.068-0.067-0.085-0.534-0.214-0.408c-0.222,0.218-0.443,0.435-0.665,0.653c-0.043-0.001-0.086-0.003-0.129-0.004     c0.172-0.168,0.343-0.337,0.515-0.505c0.094-0.092-0.139-0.519-0.316-0.345c-0.098,0.096-0.196,0.193-0.294,0.289     c-0.023-0.023-0.047-0.04-0.073-0.053c0.145-0.143,0.291-0.285,0.436-0.428c0.083-0.082-0.249-0.427-0.33-0.347     c-0.456,0.448-0.912,0.895-1.367,1.342c-3.191-0.105-6.382-0.21-9.573-0.317c-3.037-0.101-6.146-0.07-9.227-0.225     c5.409,0.127,10.817,0.243,16.226,0.373c0.139,0.003,0.284-0.233,0.421-0.23c-4.412-0.128-8.823-0.268-13.233-0.427     c2.892,0.069,5.785,0.143,8.677,0.198c0.122,0.002,0.393-0.145,0.431-0.144c-0.899-0.03-1.799-0.066-2.698-0.103     c0.955,0.02,1.909,0.043,2.864,0.061c0.155,0.003,0.312-0.028,0.466-0.022c-3.527-0.128-7.053-0.259-10.579-0.415     c-0.41-0.023-0.82-0.034-1.229-0.052c0.106-0.073,0.211-0.168,0.208-0.168c-1.767-0.074-3.541-0.09-5.309-0.178     c0.081,0,0.162,0.002,0.243,0.002c1.745,0.008,3.49,0.007,5.236,0.022c0.154,0.001,0.312-0.133,0.462-0.126     c-2.526-0.115-5.056-0.115-7.575-0.324c0.115,0,0.23,0.008,0.346,0.007c0.121,0.001,0.259-0.317,0.367-0.308     c-0.948-0.079-1.96-0.244-2.917-0.182c-0.047,0.003-0.166,0.078-0.159,0.14c0.013,0.107,0.024,0.214,0.037,0.321     c-0.097,0.001-0.191,0.011-0.286,0.017c0.01-0.286,0.039-0.454,0.095-0.465c0.111-0.021,0.293-0.469,0.09-0.454     c-0.149,0.011-0.297,0.023-0.446,0.034c-0.144,0.011-0.146,0.139-0.135,0.254c0.008,0.075,0.014,0.15,0.022,0.225     c-0.139,0.015-0.277,0.03-0.416,0.044c-0.074,0.008-0.059,0.108-0.056,0.15c0.395,4.226,0.774,8.454,1.161,12.68     c0.011,0.125,0.024,0.25,0.036,0.375c-0.004-0.01-0.011-0.02-0.017-0.029c-0.32-3.116-0.657-6.231-0.967-9.347     c-0.015-0.147-0.225-0.274-0.239-0.416c0.556,5.941,1.094,11.884,1.588,17.83c0.093,1.084,0.178,2.168,0.254,3.253     c0.006,1.042,0.083,2.078,0.195,3.113c-0.03,0.03-0.06,0.059-0.09,0.089c-0.04-0.46-0.1-0.919-0.192-1.374     c-0.027-0.97-0.075-1.939-0.145-2.906c-0.184-2.867-0.496-5.725-0.789-8.582c-0.004-0.035-0.056-0.163-0.105-0.259     c-0.014-0.137-0.026-0.275-0.04-0.412c-0.004-0.038-0.067-0.433-0.056-0.296c0.017,0.211,0.036,0.423,0.054,0.634     c-0.026-0.04-0.044-0.053-0.04-0.001c0.196,2.313,0.392,4.625,0.589,6.938c0.071,1.138,0.13,2.275,0.151,3.409     c0.001,0.048-0.002,0.098-0.002,0.147c-0.058-0.512-0.112-1.024-0.177-1.537c-0.008-0.061-0.111-0.153-0.199-0.224     c-0.025-0.234-0.035-0.468-0.064-0.702c-0.007-0.075-0.211-0.498-0.194-0.333c0.166,1.558,0.296,3.109,0.384,4.674     c0.029,0.511-0.023,1.029-0.009,1.539c-0.031-0.377-0.059-0.754-0.088-1.13c-0.01-0.135-0.296-0.27-0.297-0.376     c0.009,0.73-0.108,1.677,0.04,2.48c-0.035,0.436,0.058,0.841,0.29,1.215c0.028,0.061,0.126,0.141,0.194,0.074     c0.12-0.118,0.241-0.236,0.361-0.355c0.028,0.089,0.064,0.175,0.103,0.261c-0.161,0.137-0.274,0.218-0.285,0.186     c-0.041-0.12-0.505,0-0.472,0.082c0.06,0.15,0.119,0.299,0.179,0.448c0.038,0.096,0.137,0.084,0.199,0.022     c0.146-0.144,0.293-0.287,0.439-0.431c0.035,0.09,0.097,0.201,0.22,0.435c0.021,0.04,0.084,0.055,0.118,0.022     c8.844-8.684,17.691-17.366,26.535-26.05c0.906,0.022,1.813,0.054,2.719,0.074c0.13,0.003,0.174-0.177,0.147-0.318     c0.121,0.003,0.242,0.007,0.363,0.01c0.141,0.003,0.273-0.463,0.017-0.469c-0.145-0.003-0.29-0.009-0.434-0.012     c0.018-0.012,0.04-0.011,0.055-0.028c0.242,0.006,0.485,0.013,0.727,0.02c0.155,0.004,0.439-0.395,0.144-0.402     c-0.606-0.014-1.212-0.036-1.818-0.052c0.006-0.056,0.004-0.1-0.018-0.101c-0.251-0.006-0.501-0.015-0.752-0.021     c0.003-0.012,0.004-0.022,0.005-0.034c0.009-0.009,0.017-0.017,0.026-0.026c0.844,0.024,1.687,0.053,2.531,0.076     c0.177,0.005,0.428-0.26,0.337-0.349c0.058,0.002,0.117,0.004,0.175,0.006c0.235,0.008,0.516-0.293,0.208-0.301     c-0.945-0.023-1.889-0.053-2.834-0.078c0-0.014-0.001-0.024-0.001-0.037c0.737,0.016,1.476,0.034,2.213,0.05     c0.249,0.005,0.467-0.326,0.148-0.334c-0.404-0.01-0.809-0.024-1.213-0.035c0.036-0.051,0.057-0.094,0.02-0.095     c-0.382-0.01-0.763-0.023-1.145-0.033c0.002-0.024,0.002-0.049,0.001-0.076c1.003,0.024,2.005,0.055,3.008,0.072     C266.846,149.625,266.647,149.448,266.485,149.443z M236.857,175.379c-0.001-0.034-0.004-0.068-0.005-0.103     c7.876-7.735,15.756-15.467,23.63-23.204c0.037,0.001,0.074,0.002,0.111,0.003c-6.368,6.251-12.735,12.502-19.102,18.754     C239.947,172.346,238.402,173.863,236.857,175.379z M242.085,150.149c0.657,0.047,1.316,0.075,1.976,0.102     c-0.471-0.015-0.942-0.03-1.413-0.044c-1.975-0.069-3.95-0.13-5.923-0.155c-0.156-0.002,0.298,0.123,0.361,0.128     c0.02,0.002,0.04,0.004,0.06,0.005c0.07,0.1,0.186,0.229,0.245,0.234c0.895,0.067,1.792,0.108,2.688,0.165     c0.003,0.001,0.004,0.008,0.007,0.008c0.095,0.003,0.189,0.006,0.284,0.01c1.767,0.111,3.534,0.215,5.304,0.295     c-2.124-0.065-4.246-0.151-6.358-0.314c-0.054-0.004,0.245,0.28,0.35,0.293c0.665,0.083,1.331,0.153,2,0.215     c-0.275-0.006-0.55-0.014-0.825-0.019c-0.117-0.002,0.166,0.368,0.267,0.372c5.689,0.223,11.381,0.408,17.073,0.567     c-6.908,6.783-13.817,13.565-20.725,20.347c-0.014-1.077-0.021-2.144-0.049-3.212c0.039,0.416,0.075,0.833,0.115,1.249     c0.004,0.041,0.087,0.003,0.173-0.053c0.015,0.359,0.034,0.718,0.044,1.076c-0.001-0.033,0.115-0.296,0.119-0.4     c0.013-0.283,0.015-0.566,0.021-0.849c0.005-0.01,0.02-0.024,0.02-0.031c-0.005-0.058-0.01-0.116-0.015-0.174     c0.015-0.924-0.003-1.85-0.044-2.776c0.091,0.893,0.177,1.786,0.274,2.678c0-0.002,0.262-0.274,0.254-0.377     c-0.503-6.603-1.08-13.205-1.742-19.795c0.324,0.021,0.649,0.035,0.973,0.055C239.094,149.885,240.589,150.042,242.085,150.149z      M237.116,170.89c0.051,0.55,0.098,1.101,0.152,1.65c-0.1,0.098-0.2,0.196-0.3,0.294c-0.02-0.631-0.04-1.261-0.055-1.89     C236.982,170.93,237.053,170.912,237.116,170.89z M236.087,175.402c-0.005,0.004-0.009,0.005-0.014,0.009     c0.017-0.017,0.034-0.033,0.05-0.05c0,0.001,0,0.003,0,0.004C236.111,175.378,236.099,175.39,236.087,175.402z M235.196,149.303     c-0.048,0.013-0.037,0.048,0.009,0.089c0.442,4.328,0.809,8.662,1.168,12.997c-0.291-3.112-0.585-6.224-0.874-9.337     c-0.109-1.173-0.218-2.347-0.327-3.52c-0.011-0.123-0.053-0.318-0.092-0.531c0.029-0.001,0.054-0.004,0.087-0.002     C235.177,149.1,235.186,149.202,235.196,149.303z M259.567,150.648c-0.022,0.021-0.043,0.042-0.065,0.064     c-4.512-0.126-9.024-0.259-13.535-0.401c2.009,0.044,4.022,0.05,6.022,0.111C254.515,150.497,257.041,150.571,259.567,150.648z      M235.131,148.637c-0.036,0.002-0.072,0.006-0.109,0.008c-0.006-0.052-0.009-0.102-0.013-0.153     c0.028-0.025,0.06-0.048,0.101-0.068C235.118,148.496,235.124,148.566,235.131,148.637z M236.543,175.581     c0.004-0.004,0.008-0.008,0.013-0.012c0.003,0.034,0.006,0.068,0.009,0.102c-0.006,0.006-0.012,0.012-0.017,0.017     C236.546,175.652,236.544,175.617,236.543,175.581z M261.914,150.78c-0.037-0.001-0.074-0.002-0.112-0.003     c0.021-0.02,0.041-0.04,0.062-0.06c0.037,0.001,0.074,0.002,0.112,0.003L261.914,150.78z M236.164,175.953     c0.002,0.031,0.004,0.062,0.006,0.093c-0.06,0.043-0.106,0.055-0.146,0.044C236.071,176.044,236.117,175.999,236.164,175.953z      M235.616,148.635c-0.023-0.075-0.022-0.13-0.028-0.19c0.026,0.002,0.052,0.003,0.078,0.005c0.006,0.062,0.012,0.125,0.018,0.187     C235.661,148.636,235.639,148.636,235.616,148.635z M236.585,149.268c-0.001-0.013-0.002-0.026-0.004-0.04     c0.157,0.019,0.314,0.04,0.472,0.054C236.897,149.278,236.741,149.272,236.585,149.268z M235.252,176.218     c0.061-0.06,0.121-0.119,0.182-0.179c0,0.001,0,0.002,0,0.003c-0.007,0.007-0.014,0.014-0.022,0.021     c-0.059,0.081-0.111,0.141-0.158,0.191C235.254,176.242,235.253,176.23,235.252,176.218z M235.475,176.63     c0.014-0.014,0.028-0.027,0.042-0.041c0.016,0.077,0.032,0.154,0.054,0.228c-0.029,0.028-0.057,0.056-0.086,0.085     c0-0.083,0.001-0.168,0.006-0.266C235.49,176.632,235.477,176.632,235.475,176.63z M262.603,150.8     c0.02-0.02,0.04-0.04,0.06-0.059c0.018,0.001,0.037,0.001,0.055,0.002c-0.02,0.02-0.04,0.04-0.06,0.059     C262.64,150.801,262.622,150.8,262.603,150.8z M260.231,149.996c-0.007,0.007-0.014,0.014-0.021,0.021     c-3.729-0.106-7.458-0.217-11.187-0.328c-2.298-0.089-4.596-0.176-6.894-0.256c-0.182-0.01-0.364-0.021-0.545-0.031     c0.488,0.016,0.976,0.034,1.464,0.041c0.228,0.006,0.455,0.012,0.683,0.019C249.226,149.701,254.73,149.866,260.231,149.996z      M234.474,148.282c0.016,0.148,0.028,0.296,0.043,0.443c-0.065,0.016-0.13,0.027-0.194,0.048c0.001-0.197,0.017-0.36,0.063-0.44     C234.399,148.311,234.438,148.297,234.474,148.282z M234.629,176.121c0.006,0.038,0.012,0.077,0.019,0.115     c-0.019,0.018-0.037,0.036-0.055,0.054c-0.006-0.07-0.011-0.142-0.017-0.228C234.592,176.086,234.609,176.104,234.629,176.121z      M261.284,152.095c0.019,0,0.037,0.001,0.056,0.002c-5.292,5.195-10.584,10.39-15.876,15.586     c-2.885,2.832-5.77,5.665-8.655,8.497c-0.21,0.206-0.421,0.413-0.631,0.619c-0.006-0.014-0.009-0.028-0.014-0.042     C244.537,168.535,252.911,160.316,261.284,152.095z M262.624,150.083c-0.037-0.001-0.075-0.002-0.112-0.003     c0.011-0.01,0.021-0.021,0.032-0.031c0.038,0.001,0.075,0.002,0.113,0.003C262.646,150.062,262.635,150.072,262.624,150.083z      M262.329,149.519c-0.023,0.023-0.046,0.045-0.069,0.068c-0.043-0.001-0.087-0.003-0.13-0.004     c0.023-0.022,0.046-0.045,0.068-0.067C262.242,149.517,262.286,149.518,262.329,149.519z M254.034,149.282     c2.24,0.066,4.481,0.136,6.721,0.2c-0.02,0.02-0.041,0.04-0.061,0.06c-3.683-0.108-7.366-0.224-11.048-0.34     c-3.28-0.104-6.568-0.163-9.844-0.351c-0.033-0.002-0.067-0.003-0.1-0.005c-1.027-0.088-2.131-0.24-3.175-0.191     c-0.005-0.05-0.009-0.1-0.014-0.149c0.032,0.002,0.065,0.005,0.097,0.006c0.768,0.043,1.536,0.075,2.305,0.105     c0.033,0.002,0.068,0.007,0.101,0.008c1.194,0.06,2.385,0.142,3.578,0.212C246.401,149.058,250.221,149.17,254.034,149.282z      M235.11,147.15c-0.016,0.011-0.032,0.015-0.046,0.032c-0.03-0.002-0.059-0.002-0.089-0.004c0.007-0.01,0.01-0.021,0.018-0.03     C235.032,147.149,235.071,147.148,235.11,147.15z M234.519,147.637c0.006,0.051,0.012,0.102,0.018,0.153     c-0.117,0.005-0.236,0.02-0.354,0.035c0-0.011-0.001-0.022-0.001-0.034c0.029-0.056,0.056-0.113,0.099-0.166     C234.36,147.63,234.44,147.633,234.519,147.637z M233.846,147.207c-0.011,0.003-0.025,0.011-0.039,0.017     c0.013-0.012,0.027-0.023,0.036-0.053C233.844,147.183,233.845,147.195,233.846,147.207z M233.716,147.535     c0.378,3.719,0.702,7.445,1.048,11.167c0.346,3.721,0.604,7.449,0.903,11.171c0.028,1.107,0.058,2.215,0.126,3.323     c0.003,0.044,0.089,0.123,0.178,0.185c0.012,0.132,0.023,0.264,0.036,0.396c-0.062,0.061-0.125,0.122-0.187,0.183     c-0.002-0.029-0.005-0.058-0.007-0.087c-0.036-0.901-0.085-1.801-0.15-2.702c-0.225-3.792-0.527-7.587-0.876-11.371     C234.711,158.968,233.597,149.329,233.716,147.535z M234.48,175.839c0.006,0.032,0.02,0.07,0.034,0.108     c-0.013-0.008-0.022-0.015-0.038-0.023c-0.011-0.141-0.021-0.283-0.033-0.424C234.452,175.613,234.458,175.727,234.48,175.839z      M234.673,176.786c0.034-0.033,0.067-0.066,0.101-0.099c0.013,0.035,0.024,0.071,0.039,0.105     C234.751,176.841,234.706,176.846,234.673,176.786z M235.526,177.382c0.065-0.063,0.129-0.127,0.194-0.19     c0.041,0.081,0.086,0.161,0.138,0.237C235.693,177.599,235.582,177.585,235.526,177.382z M263.369,150.103     c-0.067-0.002-0.133-0.004-0.2-0.005c0.012-0.011,0.023-0.023,0.035-0.034l0.201,0.004     C263.393,150.08,263.381,150.092,263.369,150.103z M263.105,149.611c-0.078-0.002-0.156-0.005-0.233-0.007     c0.024-0.024,0.048-0.047,0.072-0.071c0.078,0.002,0.156,0.004,0.234,0.006C263.154,149.563,263.129,149.587,263.105,149.611z"></path>
		</g>
		<g>
			<polygon fill="#FFFFFF" points="259.218,80.047 284.324,50.685 289.326,78.336    "></polygon>
			<path fill="#FFFFFF" d="M290.05,80.057c-0.694-3.743-1.36-7.491-2.039-11.237c-0.246-1.359-0.464-2.718-0.695-4.076     c0.024,0.012,0.043,0.02,0.064,0.03c0.709,3.872,1.425,7.742,2.157,11.609c-0.014-0.075-0.043-0.293-0.064-0.412     c-0.688-3.908-1.376-7.816-2.034-11.729c0.245,1.177,0.488,2.351,0.713,3.521c0.022,0.117,0.266,0.315,0.274,0.362     c-0.774-4.326-1.499-8.659-2.207-12.994c-0.013-0.085-0.027-0.169-0.04-0.254c-0.075-0.626-0.149-1.253-0.235-1.879     c-0.002-0.016-0.027-0.039-0.048-0.06c-0.012-0.089-0.021-0.177-0.035-0.265c0.029-0.033,0.057-0.067,0.086-0.1     c0.299,1.389,0.428,2.9,0.656,4.284c0.369,2.237,0.765,4.461,1.199,6.688c0.007,0.038,0.116,0.426,0.094,0.288     c-0.401-2.424-0.92-4.907-1.191-7.351c-0.038-0.344-0.056-0.701-0.068-1.063c0.264,1.669,0.575,3.326,0.898,4.985     c0.012,0.063,0.214,0.479,0.19,0.331c-0.202-1.246-0.481-2.545-0.729-3.848c0.028,0.134,0.054,0.267,0.082,0.401     c0.024,0.112,0.3,0.316,0.304,0.338c-0.369-1.807-0.56-3.602-0.859-5.413c-0.041-0.245-0.07-0.428-0.1-0.584     c0.026-0.031,0.053-0.061,0.079-0.092c0.306,0.705,0.428,1.469,0.343,2.302c0.009,0.077,0.227,0.493,0.204,0.327     c-0.104-0.776-0.094-1.61-0.232-2.392c0.108,0.059,0.217,0.093,0.212,0.028c0.098-0.563-0.009-1.062-0.3-1.503     c-0.055-0.284-0.159-0.554-0.325-0.804c-0.052-0.1-0.173-0.077-0.238-0.016c-0.057-0.166-0.129-0.327-0.231-0.479     c-0.051-0.095-0.17-0.103-0.237-0.025c-0.112,0.13-0.223,0.261-0.335,0.391c-0.017-0.027-0.03-0.047-0.05-0.078     c-0.025-0.039-0.103-0.049-0.134-0.013c-8.021,9.38-16.04,18.761-24.063,28.141c-0.733,0.047-1.467,0.085-2.201,0.133     c-0.193,0.013-0.151,0.49,0.042,0.477c0.576-0.038,1.152-0.069,1.727-0.106c-0.018,0.021-0.036,0.042-0.054,0.063     c-0.934,0.061-1.868,0.123-2.802,0.184c-0.138,0.009-0.306,0.477-0.065,0.463c0.241-0.015,0.483-0.026,0.724-0.041     c0.031,0.028,0.064,0.055,0.121,0.051c0.127-0.008,0.254-0.015,0.381-0.023c-0.006,0.017-0.014,0.032-0.018,0.05     c-0.327,0.021-0.654,0.041-0.98,0.061c-0.09,0.006-0.167,0.107-0.2,0.211c-0.088,0.005-0.176,0.01-0.264,0.015     c-0.176,0.01-0.495,0.392-0.219,0.375c0.317-0.02,0.633-0.035,0.95-0.054c0.002,0.093,0.043,0.175,0.177,0.166     c0.283-0.019,0.567-0.033,0.85-0.051c-0.021,0.067-0.037,0.123-0.042,0.123c0.195-0.013,0.39-0.022,0.584-0.034     c0,0.032,0.002,0.063,0.007,0.094c-0.389,0.029-0.78,0.055-1.169,0.084c-0.012,0.001-0.027,0.008-0.042,0.015     c-0.541,0.033-1.082,0.065-1.623,0.097c-0.307,0.019-0.263,0.285,0.033,0.267c0.141-0.009,0.283-0.016,0.425-0.024     c-0.081,0.091-0.108,0.179,0.027,0.171c0.7-0.043,1.4-0.081,2.1-0.122c0.002,0.046,0.01,0.098,0.021,0.148     c-0.807,0.058-1.616,0.113-2.422,0.172c-0.119,0.009-0.529,0.162-0.207,0.145c0.899-0.047,1.797-0.098,2.696-0.146     c0.015,0.018,0.031,0.027,0.045,0.01c0.004-0.004,0.007-0.009,0.011-0.013c0.191-0.01,0.382-0.021,0.574-0.031     c-0.013,0.015-0.026,0.03-0.039,0.046c-0.736,0.055-1.474,0.103-2.209,0.161c-0.125,0.01-0.351,0.174-0.418,0.178     c0.818-0.048,1.637-0.091,2.456-0.138c-0.002,0.002-0.004,0.005-0.006,0.007c-0.099,0.116,0.127,0.561,0.292,0.368     c0.117-0.137,0.234-0.274,0.351-0.41c0.09-0.005,0.18-0.01,0.27-0.015c-0.067,0.078-0.134,0.156-0.201,0.235     c-0.073,0.086,0.016,0.242,0.14,0.309c-0.064,0.074-0.127,0.149-0.191,0.223c-0.109,0.127,0.246,0.45,0.352,0.325     c0.329-0.384,0.657-0.768,0.986-1.153c3.999-0.224,7.998-0.439,11.997-0.65c2.992-0.158,5.986-0.341,8.98-0.444     c-0.027,0.079-0.054,0.143-0.082,0.178c-1.915,0.134-3.829,0.296-5.741,0.432c-0.012,0.001-0.023,0.009-0.035,0.012     c-0.263,0.018-0.526,0.035-0.79,0.053c-0.13,0.009-0.369,0.08-0.447,0.083c0.358-0.016,0.717-0.033,1.075-0.05     c-0.078,0.059-0.154,0.122-0.228,0.126c1.916-0.096,3.834-0.207,5.753-0.294c-0.069,0.096-0.133,0.213-0.196,0.217     c1.765-0.111,3.503-0.159,5.269-0.19c0.2-0.003,0.365-0.006,0.521-0.012c-0.022,0.078-0.05,0.155-0.093,0.23     c-0.075,0.005-0.151,0.008-0.226,0.013c-0.005,0-0.008,0.001-0.013,0c0,0,0,0,0,0c-0.652,0.044-1.304,0.083-1.957,0.112     c-0.139,0.007-0.286,0.262-0.403,0.26c0.841,0.018,1.684,0.097,2.52,0.04c0.599,0.021,0.45,0.041,1.078-0.072     c0.114-0.02,0.132-0.075,0.112-0.181c-0.035-0.176-0.065-0.354-0.1-0.53c0.002,0,0.003-0.001,0.005-0.001     c0.055-0.015,0.114-0.098,0.103-0.156c-0.021-0.11-0.042-0.22-0.063-0.33c0.089-0.016,0.176-0.046,0.264-0.069     c0.123,0.569,0.201,1.174-0.015,1.25c-0.084,0.03-0.08,0.448-0.142,0.458c0.158-0.025,0.316-0.05,0.474-0.076     c0.104-0.017,0.065-0.189,0.054-0.25c-0.026-0.143-0.051-0.286-0.077-0.429c0.111-0.027,0.223-0.054,0.334-0.082     C290.045,80.111,290.055,80.088,290.05,80.057z M289.606,78.967c-0.559-2.948-1.09-5.901-1.619-8.854     C288.278,71.499,289.424,76.921,289.606,78.967z M287.568,67.776c-0.069-0.386-0.138-0.773-0.208-1.159     c-0.383-2.127-0.771-4.256-1.134-6.388c-0.031-0.246-0.065-0.492-0.094-0.739c0.128,0.692,0.258,1.384,0.39,2.075     C286.857,63.637,287.205,65.707,287.568,67.776z M285.682,50.75c0.008,0.032,0.015,0.063,0.022,0.095     c-0.042,0.05-0.085,0.099-0.127,0.149c-0.01-0.069-0.018-0.129-0.025-0.183C285.607,50.794,285.65,50.774,285.682,50.75z      M288.356,78.474c-0.005-0.029-0.011-0.057-0.016-0.086c0.014-0.002,0.029-0.002,0.043-0.004     C288.376,78.416,288.37,78.449,288.356,78.474z M262.424,77.865l-0.097,0.006c0.016-0.019,0.033-0.038,0.049-0.057     c0.032-0.002,0.065-0.004,0.097-0.006C262.456,77.827,262.44,77.846,262.424,77.865z M284.043,52.582     c-7.046,8.242-14.093,16.483-21.141,24.723c-0.032,0.002-0.064,0.004-0.097,0.006c7.077-8.271,14.148-16.548,21.226-24.819     C284.035,52.522,284.039,52.552,284.043,52.582z M284.591,51.839c0.004,0.029,0.008,0.059,0.012,0.088     c-0.089,0.104-0.179,0.209-0.268,0.313c-0.005-0.028-0.01-0.056-0.015-0.085C284.41,52.05,284.5,51.945,284.591,51.839z      M263.337,77.806c-0.009,0.001-0.019,0.001-0.029,0.002c0.015-0.018,0.031-0.036,0.046-0.054l0.028-0.002     C263.368,77.77,263.353,77.788,263.337,77.806z M263.813,77.25c-0.009,0.001-0.019,0.001-0.028,0.002     c3.762-4.395,7.523-8.792,11.283-13.189c2.66-3.11,5.318-6.22,7.977-9.331c0.368-0.431,0.737-0.861,1.105-1.291     c0.001,0.007,0.002,0.014,0.003,0.021C277.373,61.392,270.592,69.321,263.813,77.25z M261.992,79.348     c0.01-0.001,0.019-0.001,0.029-0.002c-0.02,0.023-0.04,0.047-0.06,0.07c-0.01,0.001-0.02,0.001-0.03,0.002     C261.951,79.395,261.971,79.371,261.992,79.348z M284.074,55.549c-0.083,0.076-0.23,0.258-0.224,0.33     c0.034,0.42,0.081,0.839,0.124,1.258c-0.113,0.05-0.296,0.213-0.287,0.269c0.177,1.054,0.368,2.105,0.55,3.158     c-0.138-0.724-0.273-1.449-0.413-2.172c-0.018-0.091-0.059-0.048-0.099,0.032c-0.048-0.249-0.093-0.499-0.141-0.748     c-0.003-0.014-0.266,0.283-0.251,0.38c0.366,2.233,0.75,4.462,1.139,6.69c-0.069,0.033-0.126,0.065-0.122,0.086     c0.752,4.184,1.486,8.373,2.276,12.55c-0.038-0.014-0.074-0.026-0.097-0.026c-0.521,0.007-1.042,0.031-1.564,0.041     c-0.029-0.089-0.068-0.198-0.114-0.263c0.184-0.01,0.368-0.019,0.552-0.03c-0.032,0.002-0.308-0.161-0.425-0.161     c-0.212,0-0.423,0.005-0.635,0.005c-0.049-0.057-0.098-0.104-0.129-0.105c-3.489-0.073-7.002,0.139-10.504,0.381     c-3.094,0.139-6.186,0.317-9.278,0.512l0.044-0.051c5.336-0.325,10.674-0.628,16.009-0.966c-0.034,0.002-0.159-0.402-0.27-0.396     c-5.104,0.276-10.209,0.558-15.312,0.862c6.365-7.443,12.729-14.886,19.093-22.329C284.021,55.087,284.049,55.317,284.074,55.549     z M284.482,53.054c0.079-0.093,0.159-0.185,0.238-0.278c0.001,0.007,0.002,0.013,0.003,0.02     c-0.079,0.092-0.158,0.185-0.237,0.277L284.482,53.054z M285.679,51.654c0.052-0.061,0.105-0.122,0.157-0.184     c0.001,0.006,0.001,0.013,0.002,0.019c-0.052,0.061-0.104,0.122-0.157,0.183C285.681,51.667,285.68,51.661,285.679,51.654z      M263.11,79.282c2.084-0.128,4.168-0.251,6.252-0.368c-2.102,0.134-4.201,0.274-6.3,0.424     C263.078,79.319,263.094,79.3,263.11,79.282z M286.75,78.055c0.003,0.015,0.006,0.031,0.008,0.046     c-1.023,0.026-2.047,0.062-3.071,0.097C284.708,78.154,285.729,78.096,286.75,78.055z M287.795,78.48     c-0.002,0.071-0.016,0.134-0.044,0.186c-0.043,0.003-0.096,0.004-0.144,0.006c-0.008-0.042-0.016-0.084-0.024-0.126     C287.654,78.527,287.726,78.507,287.795,78.48z M288.287,78.106c-1.334-7.014-2.522-14.056-3.748-21.087     c-0.055-0.486-0.111-0.972-0.186-1.457c-0.008-0.064-0.052-0.123-0.099-0.181c-0.04-0.229-0.08-0.458-0.12-0.687     c0.051-0.06,0.102-0.12,0.153-0.179c0.04,0.298,0.085,0.595,0.127,0.892c0.983,7.422,2.482,14.768,3.862,22.127     c0.053,0.282,0.098,0.488,0.114,0.647C288.356,78.155,288.321,78.127,288.287,78.106z M285.17,51.196     c-0.003-0.007-0.007-0.015-0.01-0.022c0.003-0.004,0.006-0.007,0.009-0.011C285.169,51.174,285.169,51.186,285.17,51.196z      M286.178,50.43c0.02-0.002,0.027-0.003,0.041-0.005c-0.011,0.013-0.022,0.026-0.034,0.039     C286.183,50.453,286.181,50.441,286.178,50.43z M260.538,79.433c0.022,0.015,0.048,0.013,0.077-0.005     c0.166-0.01,0.331-0.019,0.497-0.029c-0.024,0.028-0.047,0.055-0.071,0.083c-0.194,0.014-0.389,0.028-0.583,0.042     c0.026-0.03,0.052-0.06,0.078-0.091C260.536,79.433,260.537,79.433,260.538,79.433z M286.27,50.907     c0.007-0.009,0.016-0.021,0.022-0.029c0,0.011,0.003,0.02,0.002,0.031c0.005,0.032,0.042,0.056,0.092,0.076     c-0.021,0.011-0.042,0.01-0.064,0.036c-0.01,0.012-0.02,0.024-0.031,0.036C286.285,51.006,286.277,50.957,286.27,50.907z      M261.422,79.951c0.028-0.002,0.057-0.003,0.085-0.005c-0.038,0.044-0.076,0.088-0.113,0.133     c-0.029,0.002-0.058,0.004-0.086,0.006C261.346,80.04,261.384,79.995,261.422,79.951z M262.596,79.883     c3.315-0.189,6.63-0.374,9.945-0.561c3.266-0.184,6.536-0.394,9.807-0.472c1.21-0.029,2.422-0.036,3.629-0.131     c0.325-0.026,0.668-0.029,1.005-0.061c0.003,0.014,0.005,0.027,0.008,0.041c-1.524,0.04-3.048,0.098-4.57,0.188     c-1.266,0.075-2.532,0.16-3.799,0.241c-5.375,0.19-10.757,0.503-16.126,0.873C262.529,79.961,262.562,79.922,262.596,79.883z      M288.532,79.419c-0.002-0.008-0.003-0.017-0.005-0.025c0.014-0.001,0.028-0.001,0.042-0.002     C288.557,79.401,288.548,79.411,288.532,79.419z M285.687,49.571c-0.019,0.003-0.038,0.007-0.052,0.023l-0.075,0.088     c-0.011-0.022-0.024-0.047-0.04-0.074C285.589,49.545,285.645,49.531,285.687,49.571z M259.893,80.185     c0.044-0.051,0.087-0.102,0.131-0.153c0.192-0.011,0.384-0.022,0.576-0.033l-0.124,0.145     C260.281,80.158,260.087,80.171,259.893,80.185z M261.101,80.327c0.008-0.01,0.017-0.02,0.025-0.029     c0.028-0.002,0.057-0.003,0.085-0.005c-0.008,0.009-0.016,0.018-0.024,0.028C261.158,80.323,261.13,80.325,261.101,80.327z      M262.295,80.234c0.1-0.005,0.199-0.011,0.299-0.016c-0.101,0.007-0.202,0.015-0.304,0.022     C262.292,80.238,262.293,80.236,262.295,80.234z M288.524,80.08c-0.011-0.054-0.021-0.109-0.031-0.164     c0.095-0.009,0.191-0.022,0.29-0.04C288.73,79.964,288.641,80.03,288.524,80.08z M289.217,78.584     c-0.069,0.038-0.141,0.065-0.211,0.097c-0.445-2.297-0.879-4.597-1.304-6.9c0.002,0.002,0.013,0.003,0.013,0.006     c-0.927-5.088-1.731-10.202-2.614-15.298c-0.105-0.821-0.214-1.641-0.339-2.46c-0.002-0.011-0.015-0.028-0.022-0.042     c0.041-0.047,0.081-0.095,0.122-0.142c0.213,1.723,0.401,3.449,0.71,5.162c0.676,3.754,1.376,7.505,2.077,11.254     c0.363,1.94,0.728,3.879,1.095,5.818c0.131,0.716,0.259,1.432,0.391,2.148c0.004,0.022,0.026,0.102,0.053,0.202     C289.197,78.48,289.207,78.532,289.217,78.584z M289.508,79.224c0.038-0.012,0.077-0.017,0.115-0.03     c0.015,0.26,0.009,0.444-0.027,0.521C289.566,79.552,289.538,79.388,289.508,79.224z"></path>
		</g>
	</g>
	<g>
	</g>
	<g>
	</g>
	<g>
	</g>
	<g>
	</g>
	<g>
	</g>
	<g>
	</g>
</g>
</svg>
