<?xml version="1.0" encoding="UTF-8"?>
<svg xmlns="http://www.w3.org/2000/svg" xmlns:xlink="http://www.w3.org/1999/xlink" version="1.2" x="0px" y="0px" width="198.381px" height="393.428px" viewBox="0 0 198.381 393.428" overflow="visible" xml:space="preserve">
<g id="Ebene_8" display="none">
	<g display="inline">
		<rect x="-127.067" y="-30.47" fill="#FFFFFF" width="453.543" height="453.543"></rect>
	</g>
</g>
<g id="Ebene_6">
	<path fill="#CCE0ED" d="M191.381,188.488v-48.187c0-14.064-11.338-25.5-25.278-25.5h-20.899   c-13.034,10.722-29.342,16.594-46.234,16.594c-16.887,0-33.192-5.872-46.23-16.594H32.275C18.338,114.801,7,126.238,7,140.302   v48.187H191.381z"></path>
</g>
<g id="Ebene_7">
	<path fill="none" stroke="#0064A3" stroke-width="14" stroke-miterlimit="10" d="M99.198,106.708   c-27.493,0-49.861-22.369-49.861-49.861C49.337,29.361,71.705,7,99.198,7c27.485,0,49.846,22.361,49.846,49.846   C149.044,84.339,126.683,106.708,99.198,106.708"></path>
	<path fill="none" stroke="#0064A3" stroke-width="14" d="M191.381,188.488v-48.187c0-14.064-11.338-25.5-25.278-25.5h-20.899   c-13.034,10.722-29.342,16.594-46.234,16.594c-16.887,0-33.192-5.872-46.23-16.594H32.275C18.338,114.801,7,126.238,7,140.302   v48.187H191.381z"></path>
	<g>
		<circle fill="#CCE0ED" stroke="#0064A3" stroke-width="14" stroke-miterlimit="10" cx="100.226" cy="303.401" r="83.027"></circle>
		
			<line fill="#CCE0ED" stroke="#0064A3" stroke-width="14" stroke-miterlimit="10" x1="16.156" y1="386.557" x2="182.011" y2="220.702"></line>
	</g>
</g>
<g id="Ebene_10">
</g>
<g id="Ebene_3" display="none">
	<g display="inline">
		<path fill="#0064A2" d="M312.476-16.47v425.543h-425.543V-16.47H312.476 M326.476-30.47h-453.543v453.543h453.543V-30.47    L326.476-30.47z"></path>
	</g>
</g>
<g id="Ebene_2" display="none">
</g>
</svg>
