<?xml version="1.0" encoding="UTF-8"?>
<svg xmlns="http://www.w3.org/2000/svg" xmlns:xlink="http://www.w3.org/1999/xlink" version="1.2" id="Ebene_1" x="0px" y="0px" width="102.91px" height="78.666px" viewBox="0 0 102.91 78.666" overflow="visible" xml:space="preserve">
<polyline fill="#CCE0ED" points="76.789,52.1 28.016,52.1 28.016,63.828 76.625,63.899 76.789,52.171 "></polyline>
<polygon fill="#CCE0ED" points="2.741,1.637 1.799,63.898 63.641,63.898 64.583,1.637 "></polygon>
<polyline fill="#CCE0ED" points="100.49,37.703 71.403,37.703 71.403,63.74 100.392,63.898 100.49,37.862 "></polyline>
<g>
	<path fill="none" stroke="#0064A3" stroke-width="4.001" stroke-linecap="round" stroke-miterlimit="3" d="M100.91,63.809V39.545   c-3.266-8.094-6.532-16.188-9.798-24.283c-0.838-2.078-2.835-3.421-5.086-3.421H70.811v38.637v2.001h-2.001h-3.302h-2.001v-2.001V2   H2v61.809h66.81h0.579H100.91z"></path>
	<path fill="#FFFFFF" d="M94.522,68.011c0,4.772-3.901,8.654-8.696,8.654c-4.796,0-8.697-3.882-8.697-8.654   c0-4.772,3.901-8.654,8.697-8.654C90.621,59.357,94.522,63.239,94.522,68.011"></path>
	<path fill="none" stroke="#0064A3" stroke-width="4.001" stroke-miterlimit="10" d="M94.522,68.011   c0,4.772-3.901,8.654-8.696,8.654c-4.796,0-8.697-3.882-8.697-8.654c0-4.772,3.901-8.654,8.697-8.654   C90.621,59.357,94.522,63.239,94.522,68.011z"></path>
	<path fill="#FFFFFF" d="M31.079,68.011c0,4.772-3.901,8.654-8.696,8.654c-4.796,0-8.697-3.882-8.697-8.654   c0-4.772,3.901-8.654,8.697-8.654C27.178,59.357,31.079,63.239,31.079,68.011"></path>
	<path fill="none" stroke="#0064A3" stroke-width="4.001" stroke-miterlimit="10" d="M31.079,68.011   c0,4.772-3.901,8.654-8.696,8.654c-4.796,0-8.697-3.882-8.697-8.654c0-4.772,3.901-8.654,8.697-8.654   C27.178,59.357,31.079,63.239,31.079,68.011z"></path>
	<path fill="#0064A3" d="M81.93,34.324c3.408,0,6.17-2.763,6.17-6.17c0-3.408-2.762-6.17-6.17-6.17c-3.408,0-6.17,2.762-6.17,6.17   C75.76,31.561,78.522,34.324,81.93,34.324"></path>
</g>
<line fill="none" stroke="#0061A1" stroke-width="4.733" stroke-miterlimit="10" x1="71.353" y1="39.352" x2="100.44" y2="39.352"></line>
<g>
	<path fill="#0064A3" d="M33.736,21.289c-3.593-4.114-10.329-3.64-13.022-0.066c-2.991,4.114-1.121,8.298,1.722,11.198   c1.273,1.349,6.661,5.797,11.3,9.308c4.639-3.511,10.027-7.959,11.299-9.308c2.839-2.9,4.718-7.084,1.721-11.198   C44.063,17.649,37.328,17.175,33.736,21.289"></path>
</g>
</svg>
