<?xml version="1.0" encoding="UTF-8"?>
<svg xmlns="http://www.w3.org/2000/svg" xmlns:xlink="http://www.w3.org/1999/xlink" version="1.2" x="0px" y="0px" width="323.249px" height="368.587px" viewBox="0 0 323.249 368.587" overflow="visible" xml:space="preserve">
<g id="Ebene_8" display="none">
	<g display="inline">
		<rect x="-64.633" y="-41.277" fill="#FFFFFF" width="453.543" height="453.543"></rect>
	</g>
</g>
<g id="Ebene_6">
	<path fill="#CCE0ED" d="M315.806,361.143V230.379c0-23.521-18.963-42.647-42.276-42.647h-34.951   c-21.798,17.931-49.073,27.752-77.322,27.752c-28.243,0-55.511-9.821-77.315-27.752H49.713c-23.307,0-42.27,19.126-42.27,42.647   v130.764H315.806z"></path>
</g>
<g id="Ebene_7">
	<path fill="none" stroke="#0064A3" stroke-width="14.8874" stroke-miterlimit="10" d="M161.637,174.196   c-45.979,0-83.389-37.41-83.389-83.389c0-45.967,37.41-83.364,83.389-83.364c45.967,0,83.364,37.397,83.364,83.364   C245.001,136.787,207.604,174.196,161.637,174.196"></path>
	<path fill="none" stroke="#0064A3" stroke-width="14.8874" d="M315.806,361.143V230.379c0-23.521-18.963-42.647-42.276-42.647   h-34.951c-21.798,17.931-49.073,27.752-77.322,27.752c-28.243,0-55.511-9.821-77.315-27.752H49.713   c-23.307,0-42.27,19.126-42.27,42.647v130.764H315.806z"></path>
</g>
<g id="Ebene_10">
	<g>
		<path fill="#0064A3" d="M76.347,276.33h169.711l0.038,83.823c0,0,21.82,1.477,21.628,1.082V255.797H54.674v104.609h21.558    L76.347,276.33z M53.346,245.582l23.607-0.151l-13.055-62.856H47.007c-2.266,0-4.437,0.079-6.633,0.333L53.346,245.582z     M281.999,184.16c-2.553-0.345-5.088-0.744-7.743-0.744H258.5l-13.055,62.015l23.607,0.151L281.999,184.16z"></path>
	</g>
</g>
<g id="Ebene_3" display="none">
	<g display="inline">
		<path fill="#0064A2" d="M374.91-27.277v425.543H-50.633V-27.277H374.91 M388.91-41.277H-64.633v453.543H388.91V-41.277    L388.91-41.277z"></path>
	</g>
</g>
<g id="Ebene_2" display="none">
</g>
</svg>
