<?xml version="1.0" encoding="UTF-8"?>
<svg xmlns="http://www.w3.org/2000/svg" xmlns:xlink="http://www.w3.org/1999/xlink" version="1.2" x="0px" y="0px" width="268.333px" height="354.093px" viewBox="0 0 268.333 354.093" overflow="visible" xml:space="preserve">
<g id="Ebene_3_Kopie" display="none">
	<g display="inline">
		<rect x="-124.999" y="-56.603" fill="#FFFFFF" width="453.543" height="453.543"></rect>
	</g>
</g>
<g id="Ebene_6">
	<path fill="#CCE0ED" d="M261.333,130.511c-0.005-3.891-0.01-7.787-0.015-11.678c-0.588-6.155-2.55-13.48-5.97-21.569   c-5.708-13.485-13.607-25.63-21.972-38.479c-7.845-12.057-16.308-25.839-23.113-41.389c-5.285,11.975-12.145,24.386-21.234,38.464   l-2.337,3.614c-7.636,11.785-14.845,22.919-20.374,35.146c-4.163,9.225-6.437,17.187-7.151,25.061l0.039,11.639   c2.633,20.102,12.256,34.583,29.356,43.069c4.523,2.244,9.638,3.673,15.647,4.362c0.933,0.024,1.788,0.16,2.575,0.384h7.889   l1.953-0.35c1.778-0.306,3.561-0.612,5.319-1.03c16.657-3.979,28.161-13.927,35.166-30.42   C259.375,142.014,260.793,136.355,261.333,130.511"></path>
	<path fill="#CCE0ED" d="M158.667,274.886c-0.01-5.543-0.015-11.086-0.024-16.623c-0.874-9.424-3.736-20.121-8.715-31.887   c-8.176-19.324-19.397-36.574-31.279-54.83c-12.363-18.994-25.824-41.068-35.783-66.212c-7.763,19.324-18.343,39.12-33.198,62.131   l-3.303,5.106c-10.828,16.716-21.059,32.508-28.957,49.992c-6.053,13.398-9.361,25.008-10.405,36.545l0.039,16.75   c3.915,30.196,18.173,51.571,43.507,64.143c6.786,3.371,14.413,5.504,23.322,6.524c1.253,0.034,2.371,0.243,3.357,0.568h12.174   l3.08-0.549c2.584-0.447,5.174-0.894,7.724-1.501c24.746-5.907,41.821-20.665,52.207-45.105   C155.781,292.01,157.884,283.587,158.667,274.886"></path>
</g>
<g id="Ebene_7">
	<path fill="#FFFFFF" d="M182.449,108.678c-0.471-6.169,0.481-12.227,1.759-18.299c-1.817,2.745-3.128,5.752-4.202,8.87   c-5.363,15.584-4.868,30.76,3.386,45.207c5.786,10.133,14.321,16.308,25.717,17.906c2.167,0.306,4.246-0.053,5.951-1.642   c1.831-1.71,2.385-3.915,1.846-6.31c-0.583-2.609-2.239-4.348-4.756-5.072c-7.704-2.22-14.768-5.654-19.786-12.334   C186.146,128.712,183.241,119.045,182.449,108.678"></path>
	<path fill="#FFFFFF" d="M43.67,243.963c-0.666-8.691,0.68-17.221,2.477-25.771c-2.56,3.862-4.406,8.098-5.917,12.489   c-7.559,21.952-6.854,43.327,4.766,63.671c8.151,14.277,20.17,22.968,36.225,25.222c3.051,0.427,5.98-0.083,8.38-2.317   c2.584-2.405,3.357-5.514,2.604-8.885c-0.826-3.677-3.162-6.121-6.704-7.141c-10.847-3.124-20.801-7.967-27.864-17.376   C48.878,272.182,44.787,258.561,43.67,243.963"></path>
</g>
<g id="Ebene_4">
	<path fill="none" stroke="#0064A3" stroke-width="14" stroke-linecap="round" d="M158.667,274.886   c-0.01-5.543-0.015-11.086-0.024-16.623c-0.874-9.424-3.736-20.121-8.715-31.887c-8.176-19.324-19.397-36.574-31.279-54.83   c-12.363-18.994-25.824-41.068-35.783-66.212c-7.763,19.324-18.343,39.12-33.198,62.131l-3.303,5.106   c-10.828,16.716-21.059,32.508-28.957,49.992c-6.053,13.398-9.361,25.008-10.405,36.545l0.039,16.75   c3.915,30.196,18.173,51.571,43.507,64.143c6.786,3.371,14.413,5.504,23.322,6.524c1.253,0.034,2.371,0.243,3.357,0.568h12.174   l3.08-0.549c2.584-0.447,5.174-0.894,7.724-1.501c24.746-5.907,41.821-20.665,52.207-45.105   C155.781,292.01,157.884,283.587,158.667,274.886z"></path>
	<path fill="none" stroke="#0064A3" stroke-width="14" stroke-linecap="round" d="M261.333,130.511   c-0.005-3.891-0.01-7.787-0.015-11.678c-0.588-6.155-2.55-13.48-5.97-21.569c-5.708-13.485-13.607-25.63-21.972-38.479   c-7.845-12.057-16.308-25.839-23.113-41.389c-5.285,11.975-12.145,24.386-21.234,38.464l-2.337,3.614   c-7.636,11.785-14.845,22.919-20.374,35.146c-4.163,9.225-6.437,17.187-7.151,25.061l0.039,11.639   c2.633,20.102,12.256,34.583,29.356,43.069c4.523,2.244,9.638,3.673,15.647,4.362c0.933,0.024,1.788,0.16,2.575,0.384h7.889   l1.953-0.35c1.778-0.306,3.561-0.612,5.319-1.03c16.657-3.979,28.161-13.927,35.166-30.42   C259.375,142.014,260.793,136.355,261.333,130.511z"></path>
</g>
<g id="Ebene_8" display="none">
	<polygon display="inline" fill="#CCE0ED" stroke="#0064A3" stroke-width="14" stroke-miterlimit="10" points="-28.102,155.397    24.001,103.397 -5.999,103.397 -5.999,-4.603 -50.999,-4.603 -50.999,103.397 -80.999,103.397  "></polygon>
</g>
<g id="Ebene_3" display="none">
	<g display="inline">
		<path fill="#0064A2" d="M314.544-42.603V382.94h-425.543V-42.603H314.544 M328.544-56.603h-453.543V396.94h453.543V-56.603    L328.544-56.603z"></path>
	</g>
</g>
<g id="Ebene_2" display="none">
</g>
</svg>
