<?xml version="1.0" encoding="utf-8"?>
<!-- Generator: Adobe Illustrator 14.0.0, SVG Export Plug-In . SVG Version: 6.00 Build 43363)  -->
<!DOCTYPE svg PUBLIC "-//W3C//DTD SVG 1.1//EN" "http://www.w3.org/Graphics/SVG/1.1/DTD/svg11.dtd">
<svg version="1.1" id="Warstwa_1" xmlns="http://www.w3.org/2000/svg" xmlns:xlink="http://www.w3.org/1999/xlink" x="0px" y="0px"
	 width="24px" height="13px" viewBox="0 0 24 13" enable-background="new 0 0 24 13" xml:space="preserve">
<path fill="#E10E1A" d="M19.617,7.124l-2.606-1.411c0.147-0.453,0.228-0.935,0.228-1.433c0-0.613-0.53-1.109-1.183-1.109
	c-0.653,0-1.183,0.497-1.183,1.109c0,1.486-1.289,2.695-2.873,2.695c-1.584,0-2.873-1.209-2.873-2.695
	c0-0.613-0.53-1.109-1.183-1.109c-0.654,0-1.183,0.497-1.183,1.109c0,0.499,0.081,0.979,0.228,1.433L4.383,7.124
	C3.817,7.431,3.623,8.109,3.95,8.64c0.219,0.356,0.617,0.555,1.025,0.555c0.201,0,0.404-0.048,0.59-0.149l2.613-1.415
	c0.698,0.7,1.61,1.208,2.639,1.432v2.826c0,0.613,0.53,1.11,1.183,1.11s1.183-0.497,1.183-1.11V9.064
	c1.029-0.224,1.94-0.732,2.639-1.432l2.612,1.415c0.186,0.101,0.39,0.149,0.59,0.149c0.409,0,0.807-0.199,1.026-0.555
	C20.377,8.109,20.183,7.431,19.617,7.124z"/>
<path fill="#E10E1A" d="M22.817,0H1.183C0.53,0,0,0.497,0,1.11c0,0.613,0.53,1.11,1.183,1.11h21.634C23.47,2.22,24,1.723,24,1.11
	C24,0.497,23.47,0,22.817,0z"/>
</svg>
