<?xml version="1.0" encoding="utf-8"?>
<!-- Generator: Adobe Illustrator 14.0.0, SVG Export Plug-In . SVG Version: 6.00 Build 43363)  -->
<!DOCTYPE svg PUBLIC "-//W3C//DTD SVG 1.1//EN" "http://www.w3.org/Graphics/SVG/1.1/DTD/svg11.dtd">
<svg version="1.1" id="Warstwa_1" xmlns="http://www.w3.org/2000/svg" xmlns:xlink="http://www.w3.org/1999/xlink" x="0px" y="0px"
	 width="21px" height="26px" viewBox="0 0 21 26" enable-background="new 0 0 21 26" xml:space="preserve">
<path fill="#E10E1A" d="M1.35,10.926H1.162C0.52,10.926,0,10.411,0,9.776c0-0.634,0.52-1.148,1.162-1.148h1.861V0.862
	C3.022,0.386,3.412,0,3.894,0c0.481,0,0.871,0.386,0.871,0.862v0.82h3.13c0.299,0,0.577,0.152,0.737,0.402l0.923,1.447
	C9.812,3.933,9.69,4.465,9.283,4.719S8.338,4.853,8.082,4.451L7.415,3.406h-2.65v5.222h15.074C20.48,8.628,21,9.142,21,9.776
	c0,0.635-0.52,1.149-1.162,1.149H19.65c-0.557,3.815-3.846,6.831-7.989,7.311v3.65c0,2.269-1.865,4.113-4.157,4.113
	c-2.292,0-4.157-1.845-4.157-4.113c0-0.083-0.068-0.15-0.152-0.15H1.739c-0.642,0-1.162-0.515-1.162-1.149
	c0-0.634,0.52-1.149,1.162-1.149h1.457c1.365,0,2.475,1.099,2.475,2.448c0,1,0.823,1.815,1.834,1.815s1.834-0.814,1.834-1.815v-3.65
	C5.195,17.757,1.906,14.741,1.35,10.926z"/>
</svg>
