<?xml version="1.0" encoding="utf-8"?>
<!-- Generator: Adobe Illustrator 14.0.0, SVG Export Plug-In . SVG Version: 6.00 Build 43363)  -->
<!DOCTYPE svg PUBLIC "-//W3C//DTD SVG 1.1//EN" "http://www.w3.org/Graphics/SVG/1.1/DTD/svg11.dtd">
<svg version="1.1" id="Warstwa_1" xmlns="http://www.w3.org/2000/svg" xmlns:xlink="http://www.w3.org/1999/xlink" x="0px" y="0px"
	 width="19px" height="26px" viewBox="0 0 19 26" enable-background="new 0 0 19 26" xml:space="preserve">
<path fill="#E10E1A" d="M11.74,3.02c0.079-0.233,0.13-0.479,0.13-0.74C11.87,1.022,10.879,0,9.66,0C8.441,0,7.45,1.022,7.45,2.279
	c0,0.23,0.043,0.447,0.105,0.656C3.246,4.041,0,8.736,0,14.345C0,20.771,4.262,26,9.5,26c5.238,0,9.5-5.229,9.5-11.655
	C19,8.864,15.9,4.259,11.74,3.02z M9.66,1.416c0.462,0,0.837,0.387,0.837,0.863c0,0.17-0.05,0.328-0.132,0.461
	C10.217,2.981,9.957,3.143,9.66,3.143c-0.31,0-0.576-0.174-0.721-0.431C8.867,2.584,8.822,2.438,8.822,2.279
	C8.822,1.802,9.197,1.416,9.66,1.416z M9.5,23.639c-3.976,0-7.211-4.169-7.211-9.294S5.523,5.051,9.5,5.051
	c3.977,0,7.212,4.169,7.212,9.294S13.477,23.639,9.5,23.639z"/>
</svg>
