<svg xmlns="http://www.w3.org/2000/svg" width="19.96" height="25.91" viewBox="0 0 19.96 25.91">
  <metadata><?xpacket begin="﻿" id="W5M0MpCehiHzreSzNTczkc9d"?>
<x:xmpmeta xmlns:x="adobe:ns:meta/" x:xmptk="Adobe XMP Core 5.6-c138 79.159824, 2016/09/14-01:09:01        ">
   <rdf:RDF xmlns:rdf="http://www.w3.org/1999/02/22-rdf-syntax-ns#">
      <rdf:Description rdf:about=""/>
   </rdf:RDF>
</x:xmpmeta>
                                                                                                    
                                                                                                    
                                                                                                    
                                                                                                    
                                                                                                    
                                                                                                    
                                                                                                    
                                                                                                    
                                                                                                    
                                                                                                    
                                                                                                    
                                                                                                    
                                                                                                    
                                                                                                    
                                                                                                    
                                                                                                    
                                                                                                    
                                                                                                    
                                                                                                    
                                                                                                    
                           
<?xpacket end="w"?></metadata>
<defs>
    <style>
      .cls-1 {
        fill: #e30613;
        fill-rule: evenodd;
      }
    </style>
  </defs>
  <path id="woda" class="cls-1" d="M1218.65,7820.96a9.9,9.9,0,0,1-9.99-9.79c0-8.19,8.96-15.6,9.34-15.91a1.025,1.025,0,0,1,1.3,0c0.38,0.31,9.33,7.72,9.33,15.91A9.9,9.9,0,0,1,1218.65,7820.96Zm0-23.59c-2.01,1.82-7.95,7.74-7.95,13.8a7.952,7.952,0,0,0,15.9,0C1226.6,7805.11,1220.65,7799.19,1218.65,7797.37Zm0,20.17a6.851,6.851,0,0,1-6.91-6.77,1.015,1.015,0,0,1,2.03,0,4.84,4.84,0,0,0,4.88,4.78A1,1,0,1,1,1218.65,7817.54Z" transform="translate(-1208.66 -7795.06)"/>
</svg>
