<?xml version="1.0" encoding="utf-8"?>
<!-- Generator: Adobe Illustrator 14.0.0, SVG Export Plug-In . SVG Version: 6.00 Build 43363)  -->
<!DOCTYPE svg PUBLIC "-//W3C//DTD SVG 1.1//EN" "http://www.w3.org/Graphics/SVG/1.1/DTD/svg11.dtd">
<svg version="1.1" id="Warstwa_1" xmlns="http://www.w3.org/2000/svg" xmlns:xlink="http://www.w3.org/1999/xlink" x="0px" y="0px"
	 width="54px" height="39px" viewBox="0 0 54 39" enable-background="new 0 0 54 39" xml:space="preserve">
<path fill="#0d2657" d="M52,0H2C0.9,0,0,0.9,0,2v35c0,1.1,0.9,2,2,2h50c1.1,0,2-0.9,2-2V2C54,0.9,53.1,0,52,0z M27,23.641L3.477,2
	h47.046L27,23.641z M26.323,25.736C26.514,25.912,26.757,26,27,26s0.486-0.088,0.677-0.264l3.865-3.555L50.384,37H3.6l18.702-14.963
	L26.323,25.736z M52,3.358v32.368L33.033,20.809L52,3.358z M20.813,20.667L2,35.718V3.359L20.813,20.667z M2,36.999L2,36.999
	L2,36.999L2,36.999z M51.999,37L51.999,37L51.999,37L51.999,37z"/>
</svg>
