<svg xmlns="http://www.w3.org/2000/svg" width="49.19" height="86.406" viewBox="0 0 49.19 86.406">
  <metadata><?xpacket begin="﻿" id="W5M0MpCehiHzreSzNTczkc9d"?>
<x:xmpmeta xmlns:x="adobe:ns:meta/" x:xmptk="Adobe XMP Core 5.6-c140 79.160451, 2017/05/06-01:08:21        ">
   <rdf:RDF xmlns:rdf="http://www.w3.org/1999/02/22-rdf-syntax-ns#">
      <rdf:Description rdf:about=""/>
   </rdf:RDF>
</x:xmpmeta>
                                                                                                    
                                                                                                    
                                                                                                    
                                                                                                    
                                                                                                    
                                                                                                    
                                                                                                    
                                                                                                    
                                                                                                    
                                                                                                    
                                                                                                    
                                                                                                    
                                                                                                    
                                                                                                    
                                                                                                    
                                                                                                    
                                                                                                    
                                                                                                    
                                                                                                    
                                                                                                    
                           
<?xpacket end="w"?></metadata>
<defs>
    <style>
      .cls-1 {
        fill: #e20612;
        fill-rule: evenodd;
      }
    </style>
  </defs>
  <path id="cabin_red" class="cls-1" d="M1438.31,572.4h-38.44a5.394,5.394,0,0,0-5.38,5.4v78a3,3,0,0,0,2.98,3h43.23a3,3,0,0,0,2.99-3v-78A5.394,5.394,0,0,0,1438.31,572.4Zm-38.44,3.6h38.44a1.8,1.8,0,0,1,1.8,1.8v9.647h-6.51v-1.962a4.511,4.511,0,0,0-4.68-4.308h-19.67a4.509,4.509,0,0,0-4.67,4.308v1.962h-6.51V577.8A1.8,1.8,0,0,1,1399.87,576Zm30.14,9.485v63.594h-21.84V585.485a1,1,0,0,1,1.08-.708h19.67A1.007,1.007,0,0,1,1430.01,585.485ZM1398.07,655.2V591.047h6.51v59.832a1.794,1.794,0,0,0,1.79,1.8h25.44a1.794,1.794,0,0,0,1.79-1.8V591.047h6.51V655.2h-42.04Z" transform="translate(-1394.5 -572.406)"/>
</svg>
