<svg xmlns="http://www.w3.org/2000/svg" width="36" height="27" viewBox="0 0 36 27">
  <metadata><?xpacket begin="﻿" id="W5M0MpCehiHzreSzNTczkc9d"?>
<x:xmpmeta xmlns:x="adobe:ns:meta/" x:xmptk="Adobe XMP Core 5.6-c140 79.160451, 2017/05/06-01:08:21        ">
   <rdf:RDF xmlns:rdf="http://www.w3.org/1999/02/22-rdf-syntax-ns#">
      <rdf:Description rdf:about=""/>
   </rdf:RDF>
</x:xmpmeta>
                                                                                                    
                                                                                                    
                                                                                                    
                                                                                                    
                                                                                                    
                                                                                                    
                                                                                                    
                                                                                                    
                                                                                                    
                                                                                                    
                                                                                                    
                                                                                                    
                                                                                                    
                                                                                                    
                                                                                                    
                                                                                                    
                                                                                                    
                                                                                                    
                                                                                                    
                                                                                                    
                           
<?xpacket end="w"?></metadata>
<defs>
    <style>
      .cls-1 {
        fill: #e20612;
        stroke: #e20612;
        stroke-linejoin: round;
        stroke-width: 1px;
        fill-rule: evenodd;
      }
    </style>
  </defs>
  <path id="date" class="cls-1" d="M1198.73,2060a8.274,8.274,0,0,1-8.27-8.3A8.27,8.27,0,1,1,1198.73,2060Zm0-15.84a7.545,7.545,0,0,0-4.56,13.53,7.361,7.361,0,0,0,4.56,1.56A7.545,7.545,0,0,0,1198.73,2044.16Zm2.4,7.92h-2.37a0.38,0.38,0,0,1-.38-0.38v-5.88a0.38,0.38,0,0,1,.76,0v5.5h1.99A0.38,0.38,0,1,1,1201.13,2052.08Zm-6.98,6.5h-15.29a1.869,1.869,0,0,1-1.86-1.86v-15.85a1.871,1.871,0,0,1,1.86-1.87h22.68a1.865,1.865,0,0,1,1.86,1.87v4.18a0.375,0.375,0,1,1-.75,0v-4.18a1.114,1.114,0,0,0-1.11-1.11h-22.68a1.105,1.105,0,0,0-1.1,1.11v15.85a1.1,1.1,0,0,0,1.1,1.1h15.29A0.38,0.38,0,1,1,1194.15,2058.58Zm8.87-14.36h-25.64a0.38,0.38,0,0,1,0-.76h25.64A0.38,0.38,0,1,1,1203.02,2044.22Zm-17.65,4.04h0a1.014,1.014,0,0,1-1-1.02h0a1.012,1.012,0,0,1,1-1.01h0a1.014,1.014,0,0,1,1.01,1.01h0A1.016,1.016,0,0,1,1185.37,2048.26Zm4.44,0h0a1.022,1.022,0,0,1-1.01-1.02h0a1.02,1.02,0,0,1,1.01-1.01h0a1.014,1.014,0,0,1,1.01,1.01h0A1.016,1.016,0,0,1,1189.81,2048.26Zm-8.88,3.96h0a1.012,1.012,0,0,1-1-1.01h0a1.014,1.014,0,0,1,1-1.02h0a1.016,1.016,0,0,1,1.01,1.02h0A1.014,1.014,0,0,1,1180.93,2052.22Zm4.44,0h0a1.012,1.012,0,0,1-1-1.01h0a1.014,1.014,0,0,1,1-1.02h0a1.016,1.016,0,0,1,1.01,1.02h0A1.014,1.014,0,0,1,1185.37,2052.22Zm4.44,0h0a1.02,1.02,0,0,1-1.01-1.01h0a1.022,1.022,0,0,1,1.01-1.02h0a1.016,1.016,0,0,1,1.01,1.02h0A1.014,1.014,0,0,1,1189.81,2052.22Zm-8.88,3.96h0a1.012,1.012,0,0,1-1-1.01h0a1,1,0,0,1,1-1.01h0a1.007,1.007,0,0,1,1.01,1.01h0A1.014,1.014,0,0,1,1180.93,2056.18Zm4.44,0h0a1.012,1.012,0,0,1-1-1.01h0a1,1,0,0,1,1-1.01h0a1.007,1.007,0,0,1,1.01,1.01h0A1.014,1.014,0,0,1,1185.37,2056.18Z" transform="translate(-1174 -2036)"/>
</svg>
