<svg xmlns="http://www.w3.org/2000/svg" width="73" height="58" viewBox="0 0 73 58">
  <metadata><?xpacket begin="﻿" id="W5M0MpCehiHzreSzNTczkc9d"?>
<x:xmpmeta xmlns:x="adobe:ns:meta/" x:xmptk="Adobe XMP Core 5.6-c140 79.160451, 2017/05/06-01:08:21        ">
   <rdf:RDF xmlns:rdf="http://www.w3.org/1999/02/22-rdf-syntax-ns#">
      <rdf:Description rdf:about=""/>
   </rdf:RDF>
</x:xmpmeta>
                                                                                                    
                                                                                                    
                                                                                                    
                                                                                                    
                                                                                                    
                                                                                                    
                                                                                                    
                                                                                                    
                                                                                                    
                                                                                                    
                                                                                                    
                                                                                                    
                                                                                                    
                                                                                                    
                                                                                                    
                                                                                                    
                                                                                                    
                                                                                                    
                                                                                                    
                                                                                                    
                           
<?xpacket end="w"?></metadata>
<defs>
    <style>
      .cls-1 {
        fill: #e20612;
        fill-rule: evenodd;
      }
    </style>
  </defs>
  <path id="features_1" class="cls-1" d="M516.5,4570h-3v-2a3,3,0,0,0-6,0v2h-12v-2a3,3,0,0,0-6,0v2h-12v-2a3,3,0,0,0-6,0v2h-5a11.514,11.514,0,0,0-11.5,11.5v34a7.505,7.505,0,0,0,7.5,7.5h58a7.505,7.505,0,0,0,7.5-7.5v-34A11.514,11.514,0,0,0,516.5,4570Zm-50,3h5v2a3,3,0,0,0,6,0v-2h12v2a3,3,0,0,0,6,0v-2h12v2a3,3,0,0,0,6,0v-2h3a8.508,8.508,0,0,1,8.5,8.5v1.5H458v-1.5A8.508,8.508,0,0,1,466.5,4573Zm54,47h-58a4.506,4.506,0,0,1-4.5-4.5V4586h67v29.5A4.506,4.506,0,0,1,520.5,4620Zm-54-30.25a3,3,0,1,0,3,3A3,3,0,0,0,466.5,4589.75Zm0,4a1,1,0,1,1,1-1A1,1,0,0,1,466.5,4593.75Zm10-4a3,3,0,1,0,3,3A3,3,0,0,0,476.5,4589.75Zm0,4a1,1,0,1,1,1-1A1,1,0,0,1,476.5,4593.75Zm10-4a3,3,0,1,0,3,3A3,3,0,0,0,486.5,4589.75Zm0,4a1,1,0,1,1,1-1A1,1,0,0,1,486.5,4593.75Zm10-4a3,3,0,1,0,3,3A3,3,0,0,0,496.5,4589.75Zm10,0a3,3,0,1,0,3,3A3,3,0,0,0,506.5,4589.75Zm10,0a3,3,0,1,0,3,3A3,3,0,0,0,516.5,4589.75Zm-50,10a3,3,0,1,0,3,3A3,3,0,0,0,466.5,4599.75Zm10,0a3,3,0,1,0,3,3A3,3,0,0,0,476.5,4599.75Zm10,0a3,3,0,1,0,3,3A3,3,0,0,0,486.5,4599.75Zm10,0a3,3,0,1,0,3,3A3,3,0,0,0,496.5,4599.75Zm10,0a3,3,0,1,0,3,3A3,3,0,0,0,506.5,4599.75Zm10,0a3,3,0,1,0,3,3A3,3,0,0,0,516.5,4599.75Zm-50,10a3,3,0,1,0,3,3A3,3,0,0,0,466.5,4609.75Zm10,0a3,3,0,1,0,3,3A3,3,0,0,0,476.5,4609.75Zm10,0a3,3,0,1,0,3,3A3,3,0,0,0,486.5,4609.75Zm10,0a3,3,0,1,0,3,3A3,3,0,0,0,496.5,4609.75Zm10,0a3,3,0,1,0,3,3A3,3,0,0,0,506.5,4609.75Zm10,0a3,3,0,1,0,3,3A3,3,0,0,0,516.5,4609.75Zm0,4a1,1,0,1,1,1-1A1,1,0,0,1,516.5,4613.75Z" transform="translate(-455 -4565)"/>
</svg>
