<svg xmlns="http://www.w3.org/2000/svg" width="53" height="71" viewBox="0 0 53 71">
  <metadata><?xpacket begin="﻿" id="W5M0MpCehiHzreSzNTczkc9d"?>
<x:xmpmeta xmlns:x="adobe:ns:meta/" x:xmptk="Adobe XMP Core 5.6-c140 79.160451, 2017/05/06-01:08:21        ">
   <rdf:RDF xmlns:rdf="http://www.w3.org/1999/02/22-rdf-syntax-ns#">
      <rdf:Description rdf:about=""/>
   </rdf:RDF>
</x:xmpmeta>
                                                                                                    
                                                                                                    
                                                                                                    
                                                                                                    
                                                                                                    
                                                                                                    
                                                                                                    
                                                                                                    
                                                                                                    
                                                                                                    
                                                                                                    
                                                                                                    
                                                                                                    
                                                                                                    
                                                                                                    
                                                                                                    
                                                                                                    
                                                                                                    
                                                                                                    
                                                                                                    
                           
<?xpacket end="w"?></metadata>
<defs>
    <style>
      .cls-1 {
        fill: #e20612;
        fill-rule: evenodd;
      }
    </style>
  </defs>
  <path id="features_5" class="cls-1" d="M1430.07,4569.41a1.551,1.551,0,0,0,1.54-1.56v-11.4a1.54,1.54,0,1,0-3.08,0v11.4A1.551,1.551,0,0,0,1430.07,4569.41Zm10.57,12.65a1.551,1.551,0,0,0,1.54,1.56h11.25a1.56,1.56,0,0,0,0-3.12h-11.25A1.551,1.551,0,0,0,1440.64,4582.06Zm-33.95,1.56h11.25a1.56,1.56,0,0,0,0-3.12h-11.25A1.56,1.56,0,0,0,1406.69,4583.62Zm4.79-19.08a1.522,1.522,0,0,0,1.08-.46,1.569,1.569,0,0,0,.46-1.1,1.605,1.605,0,0,0-.46-1.1,1.558,1.558,0,0,0-2.16,0,1.605,1.605,0,0,0-.46,1.1,1.569,1.569,0,0,0,.46,1.1A1.54,1.54,0,0,0,1411.48,4564.54Zm4.21,4.91a1.522,1.522,0,0,0,1.09.46,1.488,1.488,0,0,0,1.08-.46,1.569,1.569,0,0,0,0-2.2,1.533,1.533,0,0,0-2.17,0A1.588,1.588,0,0,0,1415.69,4569.45Zm-2.64-2.68a1.507,1.507,0,0,0,1.07.45,0.163,0.163,0,0,1,.07,0,1.451,1.451,0,0,0,1.03-.45,1.569,1.569,0,0,0,0-2.2,1.533,1.533,0,0,0-2.17,0A1.569,1.569,0,0,0,1413.05,4566.77Zm5.31,5.37a1.563,1.563,0,0,0,1.09.46,1.54,1.54,0,0,0,1.08-.46,1.569,1.569,0,0,0,.46-1.1,1.55,1.55,0,0,0-2.64-1.1,1.533,1.533,0,0,0-.44,1.1A1.559,1.559,0,0,0,1418.36,4572.14Zm29.08-6.76a1.509,1.509,0,0,0,1.08-.47,1.493,1.493,0,0,0,.44-1.09,1.584,1.584,0,0,0-.44-1.1,1.49,1.49,0,0,0-1.07-.45h0a1.526,1.526,0,0,0-1.1.45,1.557,1.557,0,0,0,0,2.19A1.532,1.532,0,0,0,1447.44,4565.38Zm-5.3,5.35a1.55,1.55,0,0,0,1.09-2.65,1.533,1.533,0,0,0-2.17,0,1.569,1.569,0,0,0,0,2.2A1.5,1.5,0,0,0,1442.14,4570.73Zm2.66-2.68a1.5,1.5,0,0,0,1.08-.46,1.569,1.569,0,0,0,0-2.2,1.533,1.533,0,0,0-2.17,0,1.569,1.569,0,0,0,0,2.2A1.522,1.522,0,0,0,1444.8,4568.05Zm-5.3,5.39a1.509,1.509,0,0,0,1.08-.47,1.542,1.542,0,0,0-2.16-2.2,1.557,1.557,0,0,0-.01,2.2A1.532,1.532,0,0,0,1439.5,4573.44Zm7.74,17.87h-11.03v-7.99c0-3.57-1.04-6.14-3.08-7.65-3.29-2.45-7.78-.99-7.82-0.97a1.54,1.54,0,0,0-1.07,1.48v9.24c0,7.13-8.16,9.53-8.5,9.62a1.434,1.434,0,0,0-.34.14,2.633,2.633,0,0,0-1.92-.83h-8.87a2.667,2.667,0,0,0-2.65,2.68v25.34a2.667,2.667,0,0,0,2.65,2.68h8.84a2.653,2.653,0,0,0,2.13-1.09,7.35,7.35,0,0,0,4.96,1.91h22.3c5.06,0,8.29-2.69,8.86-7.39l2.99-19.29a0.636,0.636,0,0,0,.05-0.28A7.557,7.557,0,0,0,1447.24,4591.31Zm-12.57,3.12h12.57a4.5,4.5,0,0,1,4.44,4.36l-3,19.24v0.05c-0.38,3.11-2.34,4.69-5.83,4.69h-22.29a4.475,4.475,0,0,1-4.44-4.5v-20.18a1.931,1.931,0,0,0,.42-0.05c0.11-.03,10.75-3.03,10.75-12.62v-7.97a5.7,5.7,0,0,1,4.01.73c1.21,0.9,1.83,2.63,1.83,5.14v9.55A1.551,1.551,0,0,0,1434.67,4594.43Zm-21.62,3.02v24.48h-8.01v-24.48h8.01Z" transform="translate(-1401.97 -4554.88)"/>
</svg>
