<svg xmlns="http://www.w3.org/2000/svg" width="73" height="52.03" viewBox="0 0 73 52.03">
  <metadata><?xpacket begin="﻿" id="W5M0MpCehiHzreSzNTczkc9d"?>
<x:xmpmeta xmlns:x="adobe:ns:meta/" x:xmptk="Adobe XMP Core 5.6-c140 79.160451, 2017/05/06-01:08:21        ">
   <rdf:RDF xmlns:rdf="http://www.w3.org/1999/02/22-rdf-syntax-ns#">
      <rdf:Description rdf:about=""/>
   </rdf:RDF>
</x:xmpmeta>
                                                                                                    
                                                                                                    
                                                                                                    
                                                                                                    
                                                                                                    
                                                                                                    
                                                                                                    
                                                                                                    
                                                                                                    
                                                                                                    
                                                                                                    
                                                                                                    
                                                                                                    
                                                                                                    
                                                                                                    
                                                                                                    
                                                                                                    
                                                                                                    
                                                                                                    
                                                                                                    
                           
<?xpacket end="w"?></metadata>
<defs>
    <style>
      .cls-1 {
        fill: #e20612;
        fill-rule: evenodd;
      }
    </style>
  </defs>
  <path id="features_4" class="cls-1" d="M1226.5,4583.14h-4.95v-10.47a3.9,3.9,0,0,0-3.91-3.88h-53.11a3.9,3.9,0,0,0-3.91,3.88v32.29a4.085,4.085,0,0,0,.12.93,3.892,3.892,0,0,0-3.74,3.86,7.509,7.509,0,0,0,7.53,7.47h43.16v0.12a3.491,3.491,0,0,0,3.5,3.47h15.31a3.491,3.491,0,0,0,3.5-3.47v-30.73A3.491,3.491,0,0,0,1226.5,4583.14Zm0.5,3.47v1.32h-16.31v-1.32a0.5,0.5,0,0,1,.5-0.49h15.31A0.5,0.5,0,0,1,1227,4586.61Zm-16.31,4.29H1227v22.15h-16.31V4590.9Zm-47.07-18.23a0.927,0.927,0,0,1,.91-0.91h53.11a0.927,0.927,0,0,1,.91.91v10.47h-7.36a3.491,3.491,0,0,0-3.5,3.47v19.26h-43.16a0.92,0.92,0,0,1-.91-0.91v-32.29Zm0.91,41.57a4.511,4.511,0,0,1-4.53-4.49,0.927,0.927,0,0,1,.91-0.91h46.78v5.4h-43.16Zm61.97,3.59h-15.31a0.5,0.5,0,0,1-.5-0.49v-1.32H1227v1.32A0.5,0.5,0,0,1,1226.5,4617.83Z" transform="translate(-1157 -4568.78)"/>
</svg>
