<svg xmlns="http://www.w3.org/2000/svg" width="470.5" height="237.593" viewBox="0 0 470.5 237.593">
  <metadata><?xpacket begin="﻿" id="W5M0MpCehiHzreSzNTczkc9d"?>
<x:xmpmeta xmlns:x="adobe:ns:meta/" x:xmptk="Adobe XMP Core 5.6-c140 79.160451, 2017/05/06-01:08:21        ">
   <rdf:RDF xmlns:rdf="http://www.w3.org/1999/02/22-rdf-syntax-ns#">
      <rdf:Description rdf:about=""/>
   </rdf:RDF>
</x:xmpmeta>
                                                                                                    
                                                                                                    
                                                                                                    
                                                                                                    
                                                                                                    
                                                                                                    
                                                                                                    
                                                                                                    
                                                                                                    
                                                                                                    
                                                                                                    
                                                                                                    
                                                                                                    
                                                                                                    
                                                                                                    
                                                                                                    
                                                                                                    
                                                                                                    
                                                                                                    
                                                                                                    
                           
<?xpacket end="w"?></metadata>
<defs>
    <style>
      .cls-1 {
        fill-rule: evenodd;
        opacity: 0.1;
      }
    </style>
  </defs>
  <path id="illustration_left" class="cls-1" d="M463.512,538.612H470.5l-7.813-10.826H443.97l-6.576,10.826h6.331a9.987,9.987,0,0,0,8.095,8.745V658h3.6V547.357A9.987,9.987,0,0,0,463.512,538.612ZM445.991,531.4h14.86l2.6,3.609H443.8Zm7.627,12.525a6.357,6.357,0,0,1-6.247-5.308h12.5A6.358,6.358,0,0,1,453.618,543.92Zm-382.08-5.308h6.988l-7.813-10.826H52l-6.577,10.826H51.75a9.988,9.988,0,0,0,8.1,8.745V658h3.6V547.357A9.988,9.988,0,0,0,71.538,538.612ZM54.017,531.4h14.86l2.6,3.609H51.825Zm7.627,12.525a6.358,6.358,0,0,1-6.248-5.308h12.5A6.358,6.358,0,0,1,61.644,543.92ZM203.472,554.2h46.467V521.6H203.472V554.2Zm4.583-28.01h37.3V532.1h-37.3v-5.906Zm0,10.5h37.3v12.911h-37.3V536.7Zm-4.583,97.585h46.467V594.673H203.472v39.608ZM229,599.269h16.359v12.909H229V599.269Zm0,17.506h16.359v12.909H229V616.775Zm-20.942-17.506h16.359v12.909H208.055V599.269Zm0,17.506h16.359v12.909H208.055V616.775ZM312.763,521.6H266.3V554.2h46.465V521.6Zm-4.582,28.011h-37.3V543.7h37.3v5.909Zm0-10.5h-37.3V526.193h37.3V539.1Zm51.155,83.58a2.3,2.3,0,0,0-2.291,2.3v4.7h-5.889v-4.7a2.291,2.291,0,1,0-4.582,0v4.7h-5.888V519.8l1.69,0.761a12.567,12.567,0,0,0,14.522-2.946,12.825,12.825,0,0,0-1.485-18.79l-88.534-69.467-8.76-8.154-8.459,7.894-88.835,69.727a12.826,12.826,0,0,0-1.484,18.79,12.673,12.673,0,0,0,14.522,2.95l1.69-.761V629.688h-5.891v-4.7a2.292,2.292,0,1,0-4.583,0v4.7H159.19v-4.7a2.291,2.291,0,1,0-4.581,0V656.5a2.291,2.291,0,1,0,4.581,0v-4.7h5.889v4.7a2.292,2.292,0,1,0,4.583,0v-4.7h5.888v7H340.686v-7h5.888v4.7a2.291,2.291,0,1,0,4.582,0v-4.7h5.889v4.7a2.291,2.291,0,1,0,4.582,0V624.984A2.3,2.3,0,0,0,359.336,622.682ZM165.079,647.191H159.19v-12.91h5.889v12.91Zm10.471,0h-5.888v-12.91h5.888v12.91Zm132.631,7h-37.3V599.269h37.3v54.925Zm27.922,0h-23.34V594.673H266.3v59.521H180.132V516.207l0.467-.361L258.118,455.9,336.1,516.207V654.194ZM258.118,450.1L173.68,515.4a8.128,8.128,0,0,1-10.985-.914h0a8.219,8.219,0,0,1,.958-12.039l88.98-69.849,5.489-5.123,5.786,5.377,88.681,69.595A8.191,8.191,0,1,1,342.559,515.4l-1.405-1.085Zm88.456,197.088h-5.888v-12.91h5.888v12.91Zm10.471,0h-5.889v-12.91h5.889v12.91ZM148.717,624.984a2.291,2.291,0,1,0-4.582,0v4.7h-5.889v-4.7a2.291,2.291,0,1,0-4.581,0V656.5a2.291,2.291,0,1,0,4.581,0v-4.7h5.889v4.7a2.291,2.291,0,1,0,4.582,0v-4.7h5.889v-4.6h-5.889v-12.91h5.891v-4.593h-5.892v-4.7Zm-4.582,22.207h-5.889v-12.91h5.889v12.91Zm-16.362-22.207a2.291,2.291,0,1,0-4.582,0v4.7H117.3v-4.7a2.291,2.291,0,1,0-4.581,0V656.5a2.291,2.291,0,1,0,4.581,0v-4.7h5.889v4.7a2.291,2.291,0,1,0,4.582,0v-4.7h5.888v-4.6h-5.889v-12.91h5.891v-4.593h-5.892v-4.7Zm-4.582,22.207H117.3v-12.91h5.889v12.91Zm-16.362-22.207a2.291,2.291,0,1,0-4.582,0v4.7h-5.89v-4.7a2.291,2.291,0,1,0-4.581,0V656.5a2.291,2.291,0,1,0,4.581,0v-4.7h5.89v4.7a2.291,2.291,0,1,0,4.582,0v-4.7h5.888v-4.6h-5.889v-12.91h5.891v-4.593h-5.892v-4.7Zm-4.582,22.207h-5.89v-12.91h5.89v12.91ZM85.885,624.984a2.291,2.291,0,1,0-4.582,0v4.7H75.413v-4.7a2.291,2.291,0,1,0-4.581,0V656.5a2.291,2.291,0,1,0,4.581,0v-4.7H81.3v4.7a2.291,2.291,0,1,0,4.582,0v-4.7h5.888v-4.6H85.885v-12.91h5.891v-4.593H85.885v-4.7ZM81.3,647.191H75.413v-12.91H81.3v12.91Zm-29.61-24.506a2.3,2.3,0,0,0-2.291,2.3v4.7H43.513v-4.7a2.291,2.291,0,1,0-4.581,0V656.5a2.291,2.291,0,1,0,4.581,0v-4.7H49.4v4.7a2.291,2.291,0,1,0,4.582,0V624.984A2.3,2.3,0,0,0,51.692,622.685ZM49.4,647.191H43.513v-12.91H49.4v12.91ZM33.04,624.984a2.291,2.291,0,1,0-4.582,0v4.7H22.568v-4.7a2.291,2.291,0,1,0-4.581,0V656.5a2.291,2.291,0,1,0,4.581,0v-4.7h5.889v4.7a2.291,2.291,0,1,0,4.582,0v-4.7h5.888v-4.6H33.04v-12.91h5.891v-4.593H33.04v-4.7Zm-4.582,22.207H22.568v-12.91h5.889v12.91Zm414.716-24.506a2.3,2.3,0,0,0-2.291,2.3v4.7h-5.889v-4.7a2.291,2.291,0,1,0-4.581,0V656.5a2.291,2.291,0,1,0,4.581,0v-4.7h5.889v4.7a2.291,2.291,0,1,0,4.582,0V624.984A2.3,2.3,0,0,0,443.173,622.685Zm-2.291,24.506h-5.889v-12.91h5.889v12.91ZM424.52,624.984a2.291,2.291,0,1,0-4.582,0v4.7h-5.889v-4.7a2.291,2.291,0,1,0-4.581,0V656.5a2.291,2.291,0,1,0,4.581,0v-4.7h5.889v4.7a2.291,2.291,0,1,0,4.582,0v-4.7h5.888v-4.6H424.52v-12.91h5.891v-4.593H424.52v-4.7Zm-4.582,22.207h-5.889v-12.91h5.889v12.91ZM12.1,624.984a2.291,2.291,0,1,0-4.582,0v4.7H1.624v-4.7a2.3,2.3,0,0,0-2.291-2.3,2.3,2.3,0,0,0-2.291,2.3V656.5a2.3,2.3,0,0,0,2.291,2.3,2.3,2.3,0,0,0,2.291-2.3v-4.7H7.513v4.7a2.291,2.291,0,1,0,4.582,0v-4.7h5.888v-4.6H12.1v-12.91h5.891v-4.593H12.1v-4.7ZM7.513,647.191H1.624v-12.91H7.513v12.91ZM-8.849,624.984a2.3,2.3,0,0,0-2.292-2.3,2.3,2.3,0,0,0-2.29,2.3v4.7H-19.32v-4.7a2.3,2.3,0,0,0-2.291-2.3,2.3,2.3,0,0,0-2.291,2.3V656.5a2.3,2.3,0,0,0,2.291,2.3,2.3,2.3,0,0,0,2.291-2.3v-4.7h5.889v4.7a2.3,2.3,0,0,0,2.29,2.3,2.3,2.3,0,0,0,2.292-2.3v-4.7h5.888v-4.6H-8.849v-12.91h5.891v-4.593H-8.849v-4.7Zm-4.582,22.207H-19.32v-12.91h5.889v12.91Zm395.139,7.2v-4.153h-1.275a2.2,2.2,0,0,1-.638-0.107v6.941a0.957,0.957,0,0,0,.635.9,0.922,0.922,0,0,0,.321.057,0.952,0.952,0,0,0,.739-0.351l6.09-7.442h-2.474Zm-5.4-12.405a0.942,0.942,0,0,0-.336-0.061h-8.286a0.959,0.959,0,0,0,0,1.918H375.8l1.465,0.55-0.3-2.16Zm21.5,6.868a4.615,4.615,0,0,0-3.106,1.2l-2.773-2.03-0.658.684a5.927,5.927,0,0,1-.771.643l3.073,2.251A4.643,4.643,0,1,0,397.8,648.855Zm0,6.245a1.58,1.58,0,0,1-1.576-1.55c0-.011,0-0.023,0-0.034A1.578,1.578,0,0,1,397.359,652a1.546,1.546,0,0,1,.444-0.072A1.584,1.584,0,0,1,397.8,655.1Zm-0.418-14.5c0.493-.5.322-0.59-0.379-0.59H379.158a0.908,0.908,0,0,0-1.1,1.026l0.242,1.7,0.308,2.163,0.364,2.554a2,2,0,0,0,.842,1.3,1.125,1.125,0,0,0,.614.207h7.755a1.927,1.927,0,0,0,.5-0.081,3.623,3.623,0,0,0,.733-0.308,4.122,4.122,0,0,0,.933-0.681l0.571-.593Zm-2.69-3.787h-2.151l-1.594-2.558h-3.506l-1.035-1.918h-2.152l-1.673,3.2H381.07l-1.275,3.2h15.936Z" transform="translate(0 -421.188)"/>
</svg>
