<svg xmlns="http://www.w3.org/2000/svg" width="38" height="38" viewBox="0 0 38 38">
  <metadata><?xpacket begin="﻿" id="W5M0MpCehiHzreSzNTczkc9d"?>
<x:xmpmeta xmlns:x="adobe:ns:meta/" x:xmptk="Adobe XMP Core 5.6-c140 79.160451, 2017/05/06-01:08:21        ">
   <rdf:RDF xmlns:rdf="http://www.w3.org/1999/02/22-rdf-syntax-ns#">
      <rdf:Description rdf:about=""/>
   </rdf:RDF>
</x:xmpmeta>
                                                                                                    
                                                                                                    
                                                                                                    
                                                                                                    
                                                                                                    
                                                                                                    
                                                                                                    
                                                                                                    
                                                                                                    
                                                                                                    
                                                                                                    
                                                                                                    
                                                                                                    
                                                                                                    
                                                                                                    
                                                                                                    
                                                                                                    
                                                                                                    
                                                                                                    
                                                                                                    
                           
<?xpacket end="w"?></metadata>
<defs>
    <style>
      .cls-1 {
        fill: #e20612;
        fill-rule: evenodd;
      }
    </style>
  </defs>
  <path id="panel" class="cls-1" d="M983.666,4957H975v-8.08l13.877-13.88a14.193,14.193,0,0,1-.543-3.71,12.333,12.333,0,1,1,12.336,12.34,13.3,13.3,0,0,1-3.723-.54l-5.866,5.87h-3.414v4h-4v4ZM977,4955h4.667v-4h4v-4h4.586l6.145-6.14,0.586,0.19a11.338,11.338,0,0,0,3.687.62,10.335,10.335,0,1,0-10.337-10.34,13.013,13.013,0,0,0,.625,3.72l0.171,0.57L977,4949.75V4955Zm27-22a5,5,0,1,1,5-5A4.951,4.951,0,0,1,1004,4933Zm0-8a3,3,0,1,0,3,3A2.935,2.935,0,0,0,1004,4925Z" transform="translate(-975 -4919)"/>
</svg>
