<svg xmlns="http://www.w3.org/2000/svg" width="22" height="30" viewBox="0 0 22 30">
  <metadata><?xpacket begin="﻿" id="W5M0MpCehiHzreSzNTczkc9d"?>
<x:xmpmeta xmlns:x="adobe:ns:meta/" x:xmptk="Adobe XMP Core 5.6-c140 79.160451, 2017/05/06-01:08:21        ">
   <rdf:RDF xmlns:rdf="http://www.w3.org/1999/02/22-rdf-syntax-ns#">
      <rdf:Description rdf:about=""/>
   </rdf:RDF>
</x:xmpmeta>
                                                                                                    
                                                                                                    
                                                                                                    
                                                                                                    
                                                                                                    
                                                                                                    
                                                                                                    
                                                                                                    
                                                                                                    
                                                                                                    
                                                                                                    
                                                                                                    
                                                                                                    
                                                                                                    
                                                                                                    
                                                                                                    
                                                                                                    
                                                                                                    
                                                                                                    
                                                                                                    
                           
<?xpacket end="w"?></metadata>
<defs>
    <style>
      .cls-1 {
        fill: #e20612;
        fill-rule: evenodd;
      }
    </style>
  </defs>
  <path id="like" class="cls-1" d="M1192.66,1517.14a0.649,0.649,0,0,0,.64-0.66v-4.81a0.635,0.635,0,1,0-1.27,0v4.81A0.647,0.647,0,0,0,1192.66,1517.14Zm4.39,5.35a0.655,0.655,0,0,0,.64.66h4.67a0.66,0.66,0,0,0,0-1.32h-4.67A0.649,0.649,0,0,0,1197.05,1522.49Zm-14.09.66h4.67a0.66,0.66,0,0,0,0-1.32h-4.67A0.66,0.66,0,0,0,1182.96,1523.15Zm1.99-8.07a0.649,0.649,0,0,0,.64-0.65,0.665,0.665,0,0,0-.19-0.47,0.634,0.634,0,0,0-.9,0,0.664,0.664,0,0,0,0,.93A0.636,0.636,0,0,0,1184.95,1515.08Zm1.75,2.08a0.628,0.628,0,0,0,.9,0,0.67,0.67,0,0,0,0-.93,0.617,0.617,0,0,0-.9,0A0.67,0.67,0,0,0,1186.7,1517.16Zm-1.1-1.13a0.636,0.636,0,0,0,.45.19c0-.01.01,0,0.02,0a0.608,0.608,0,0,0,.43-0.19,0.67,0.67,0,0,0,0-.93,0.617,0.617,0,0,0-.9,0A0.67,0.67,0,0,0,1185.6,1516.03Zm2.21,2.26a0.607,0.607,0,0,0,.45.2,0.624,0.624,0,0,0,.45-0.2,0.647,0.647,0,1,0-.91-0.92,0.634,0.634,0,0,0-.18.46A0.619,0.619,0,0,0,1187.81,1518.29Zm12.06-2.85a0.607,0.607,0,0,0,.45-0.2,0.642,0.642,0,0,0,.19-0.46,0.7,0.7,0,0,0-.19-0.47,0.6,0.6,0,0,0-.44-0.19h0a0.649,0.649,0,0,0-.65.66,0.66,0.66,0,0,0,.19.46A0.624,0.624,0,0,0,1199.87,1515.44Zm-2.19,2.26a0.673,0.673,0,0,0,.45-0.19,0.691,0.691,0,0,0,0-.93,0.634,0.634,0,0,0-.9,0,0.67,0.67,0,0,0,0,.93A0.6,0.6,0,0,0,1197.68,1517.7Zm1.1-1.13a0.607,0.607,0,0,0,.45-0.2,0.67,0.67,0,0,0,0-.93,0.634,0.634,0,0,0-.9,0,0.67,0.67,0,0,0,0,.93A0.607,0.607,0,0,0,1198.78,1516.57Zm-2.2,2.27a0.654,0.654,0,0,0,.45-0.19,0.7,0.7,0,0,0,.19-0.47,0.66,0.66,0,0,0-.19-0.46,0.64,0.64,0,0,0-1.09.46,0.7,0.7,0,0,0,.19.47A0.636,0.636,0,0,0,1196.58,1518.84Zm3.21,7.55h-4.58v-3.37a3.312,3.312,0,0,0-4.52-3.64,0.636,0.636,0,0,0-.45.62v3.9c0,3.02-3.38,4.03-3.52,4.07a0.351,0.351,0,0,0-.14.06,1.114,1.114,0,0,0-.8-0.35h-3.68a1.116,1.116,0,0,0-1.1,1.13v10.71a1.116,1.116,0,0,0,1.1,1.13h3.67a1.081,1.081,0,0,0,.88-0.46,3.055,3.055,0,0,0,2.06.81h9.25a3.356,3.356,0,0,0,3.68-3.12l1.25-8.16a0.359,0.359,0,0,0,.02-0.11A3.179,3.179,0,0,0,1199.79,1526.39Zm-5.22,1.32h5.22a1.881,1.881,0,0,1,1.84,1.84l-1.24,8.13v0.03a2.121,2.121,0,0,1-2.42,1.98h-9.25a1.883,1.883,0,0,1-1.85-1.9v-8.53a1.1,1.1,0,0,0,.18-0.02c0.04-.02,4.46-1.28,4.46-5.34v-3.36a2.317,2.317,0,0,1,1.67.31,2.6,2.6,0,0,1,.75,2.17v4.03A0.649,0.649,0,0,0,1194.57,1527.71Zm-8.97,1.28v10.34h-3.33v-10.34h3.33Z" transform="translate(-1181 -1511)"/>
</svg>
