<?xml version="1.0" encoding="utf-8"?>
<!-- Generator: Adobe Illustrator 14.0.0, SVG Export Plug-In . SVG Version: 6.00 Build 43363)  -->
<!DOCTYPE svg PUBLIC "-//W3C//DTD SVG 1.1//EN" "http://www.w3.org/Graphics/SVG/1.1/DTD/svg11.dtd">
<svg version="1.1" id="Warstwa_1" xmlns="http://www.w3.org/2000/svg" xmlns:xlink="http://www.w3.org/1999/xlink" x="0px" y="0px"
	 width="32px" height="23px" viewBox="0 0 32 23" enable-background="new 0 0 32 23" xml:space="preserve">
<path fill="#E10E1A" d="M30.815,0H1.185C0.533,0,0,0.531,0,1.179v20.641C0,22.469,0.533,23,1.185,23h29.63
	C31.467,23,32,22.469,32,21.821V1.179C32,0.531,31.467,0,30.815,0z M16,13.943L2.061,1.179H29.94L16,13.943z M15.599,15.178
	c0.113,0.104,0.258,0.156,0.401,0.156s0.288-0.052,0.401-0.156l2.29-2.097l11.165,8.74H2.133l11.083-8.824L15.599,15.178z
	 M30.815,1.981V21.07l-11.24-8.798L30.815,1.981z M12.334,12.188L1.185,21.065V1.981L12.334,12.188z M1.185,21.82L1.185,21.82
	L1.185,21.82L1.185,21.82z M30.814,21.821L30.814,21.821L30.814,21.821L30.814,21.821z"/>
</svg>
