<?xml version="1.0" encoding="utf-8"?>
<!-- Generator: Adobe Illustrator 14.0.0, SVG Export Plug-In . SVG Version: 6.00 Build 43363)  -->
<!DOCTYPE svg PUBLIC "-//W3C//DTD SVG 1.1//EN" "http://www.w3.org/Graphics/SVG/1.1/DTD/svg11.dtd">
<svg version="1.1" id="Warstwa_1" xmlns="http://www.w3.org/2000/svg" xmlns:xlink="http://www.w3.org/1999/xlink" x="0px" y="0px"
	 width="24.033px" height="42.981px" viewBox="0 0 24.033 42.981" enable-background="new 0 0 24.033 42.981" xml:space="preserve">
<path fill="#B1B0B0" d="M23.05,42.981H0.983C0.44,42.981,0,42.53,0,41.972V4.038C0,1.812,1.765,0,3.934,0h16.166
	c2.169,0,3.934,1.812,3.934,4.038v37.935C24.033,42.53,23.593,42.981,23.05,42.981z M1.967,40.963h20.099V4.038
	c0-1.113-0.883-2.019-1.967-2.019H3.934c-1.085,0-1.967,0.906-1.967,2.019V40.963z"/>
<path fill="#B1B0B0" d="M5.214,9.463H0.379V7.444h4.835V9.463z"/>
<path fill="#B1B0B0" d="M18.168,39.954H5.865c-0.543,0-0.983-0.452-0.983-1.01V6.593c0-1.241,1.067-2.25,2.378-2.25h9.513
	c1.311,0,2.378,1.009,2.378,2.25v32.351C19.151,39.502,18.711,39.954,18.168,39.954z M6.848,37.935h10.336V6.593
	c0-0.08-0.16-0.231-0.411-0.231H7.26c-0.251,0-0.412,0.151-0.412,0.231V37.935z"/>
<path fill="#B1B0B0" d="M23.654,9.463h-4.835V7.444h4.835V9.463z"/>
</svg>
