<?xml version="1.0" encoding="utf-8"?>
<!-- Generator: Adobe Illustrator 14.0.0, SVG Export Plug-In . SVG Version: 6.00 Build 43363)  -->
<!DOCTYPE svg PUBLIC "-//W3C//DTD SVG 1.1//EN" "http://www.w3.org/Graphics/SVG/1.1/DTD/svg11.dtd">
<svg version="1.1" id="Warstwa_1" xmlns="http://www.w3.org/2000/svg" xmlns:xlink="http://www.w3.org/1999/xlink" x="0px" y="0px"
	 width="18px" height="26px" viewBox="0 0 18 26" enable-background="new 0 0 18 26" xml:space="preserve">
<path fill="#E10E1A" d="M0,25.118C0,25.605,0.4,26,0.893,26s0.893-0.395,0.893-0.882v-2.255h8.441c4.286,0,7.772-3.007,7.772-6.704
	v-1.456c0-0.254-0.112-0.495-0.306-0.663c-0.193-0.167-0.451-0.245-0.707-0.211c-0.004,0-0.394,0.05-1.017,0.05
	c-2.725,0-9.179-0.923-10.261-9.474C5.654,3.965,5.273,3.634,4.823,3.634H1.787V0.882C1.787,0.395,1.387,0,0.894,0
	C0.4,0,0,0.395,0,0.882V25.118L0,25.118z M16.213,16.159c0,2.724-2.685,4.94-5.986,4.94H1.787V5.398H4.05
	c0.655,3.897,2.424,6.75,5.264,8.484c2.51,1.533,5.248,1.761,6.657,1.761c0.084,0,0.165,0,0.242-0.001L16.213,16.159L16.213,16.159z
	"/>
</svg>
