<svg xmlns="http://www.w3.org/2000/svg" width="42" height="35" viewBox="0 0 42 35">
  <metadata><?xpacket begin="﻿" id="W5M0MpCehiHzreSzNTczkc9d"?>
<x:xmpmeta xmlns:x="adobe:ns:meta/" x:xmptk="Adobe XMP Core 5.6-c138 79.159824, 2016/09/14-01:09:01        ">
   <rdf:RDF xmlns:rdf="http://www.w3.org/1999/02/22-rdf-syntax-ns#">
      <rdf:Description rdf:about=""/>
   </rdf:RDF>
</x:xmpmeta>
                                                                                                    
                                                                                                    
                                                                                                    
                                                                                                    
                                                                                                    
                                                                                                    
                                                                                                    
                                                                                                    
                                                                                                    
                                                                                                    
                                                                                                    
                                                                                                    
                                                                                                    
                                                                                                    
                                                                                                    
                                                                                                    
                                                                                                    
                                                                                                    
                                                                                                    
                                                                                                    
                           
<?xpacket end="w"?></metadata>
<defs>
    <style>
      .cls-1 {
        fill: #fff;
        fill-rule: evenodd;
      }
    </style>
  </defs>
  <path id="filtry" class="cls-1" d="M342.388,318H305.612A2.635,2.635,0,0,0,303,320.651v3.12a2.635,2.635,0,0,0,2.612,2.651h1.223l13.5,13.7v11.993a0.884,0.884,0,0,0,.537.817,0.862,0.862,0,0,0,.949-0.192l5.624-5.708a0.891,0.891,0,0,0,.255-0.625v-6.286l13.5-13.7h1.191A2.635,2.635,0,0,0,345,323.771v-3.12A2.635,2.635,0,0,0,342.388,318Zm-16.176,21.132a0.885,0.885,0,0,0-.254.632v6.278l-3.883,3.941V339.759a0.888,0.888,0,0,0-.255-0.627L309.3,326.422h29.438Zm17.047-15.361a0.878,0.878,0,0,1-.871.883H305.612a0.878,0.878,0,0,1-.871-0.883v-3.12a0.879,0.879,0,0,1,.871-0.884h36.776a0.879,0.879,0,0,1,.871.884v3.12Z" transform="translate(-303 -318)"/>
</svg>
