<?xml version="1.0" encoding="utf-8"?>
<!-- Generator: Adobe Illustrator 14.0.0, SVG Export Plug-In . SVG Version: 6.00 Build 43363)  -->
<!DOCTYPE svg PUBLIC "-//W3C//DTD SVG 1.1//EN" "http://www.w3.org/Graphics/SVG/1.1/DTD/svg11.dtd">
<svg version="1.1" id="Warstwa_1" xmlns="http://www.w3.org/2000/svg" xmlns:xlink="http://www.w3.org/1999/xlink" x="0px" y="0px"
	 width="41.02px" height="34.986px" viewBox="0 0 41.02 34.986" enable-background="new 0 0 41.02 34.986" xml:space="preserve">
<path fill="#0d2657" d="M22.274,25.086c-2.688,0-4.867,2.216-4.867,4.95s2.179,4.95,4.867,4.95s4.867-2.216,4.867-4.95
	S24.962,25.086,22.274,25.086z M22.274,32.973c-1.592,0-2.887-1.317-2.887-2.937s1.295-2.937,2.887-2.937
	c1.592,0,2.887,1.317,2.887,2.937S23.866,32.973,22.274,32.973z"/>
<path fill="#0d2657" d="M41.02,33.288l-5.588-5.683V1.007C35.432,0.451,34.99,0,34.442,0H10.106c-0.547,0-0.99,0.451-0.99,1.007
	v26.009H0.99c-0.547,0-0.99,0.45-0.99,1.007v5.202h1.98v-4.196h7.299c0.428,1.427,1.719,2.476,3.26,2.476h2.434v-2.014h-2.434
	c-0.796,0-1.443-0.659-1.443-1.469V17.116h22.357v10.906c0,0.81-0.648,1.469-1.445,1.469h-2.433v2.014h2.433
	c1.209,0,2.268-0.644,2.877-1.609l4.735,4.816L41.02,33.288z M11.096,15.102V2.014h22.357v13.088H11.096z"/>
</svg>
