<svg xmlns="http://www.w3.org/2000/svg" width="16" height="24" viewBox="0 0 16 24">
  <metadata><?xpacket begin="﻿" id="W5M0MpCehiHzreSzNTczkc9d"?>
<x:xmpmeta xmlns:x="adobe:ns:meta/" x:xmptk="Adobe XMP Core 5.6-c138 79.159824, 2016/09/14-01:09:01        ">
   <rdf:RDF xmlns:rdf="http://www.w3.org/1999/02/22-rdf-syntax-ns#">
      <rdf:Description rdf:about=""/>
   </rdf:RDF>
</x:xmpmeta>
                                                                                                    
                                                                                                    
                                                                                                    
                                                                                                    
                                                                                                    
                                                                                                    
                                                                                                    
                                                                                                    
                                                                                                    
                                                                                                    
                                                                                                    
                                                                                                    
                                                                                                    
                                                                                                    
                                                                                                    
                                                                                                    
                                                                                                    
                                                                                                    
                                                                                                    
                                                                                                    
                           
<?xpacket end="w"?></metadata>
<defs>
    <style>
      .cls-1 {
        fill: #e30613;
        fill-rule: evenodd;
      }
    </style>
  </defs>
  <path id="prysznic" class="cls-1" d="M599.478,288h-2.087a4.621,4.621,0,0,0-4.514,4.461A6.118,6.118,0,0,0,588,298.545a1.068,1.068,0,0,0,1.043,1.091h9.74a1.068,1.068,0,0,0,1.043-1.091,6.122,6.122,0,0,0-4.857-6.081,2.483,2.483,0,0,1,2.422-2.282h2.087a2.5,2.5,0,0,1,2.435,2.545v18.182a1.045,1.045,0,1,0,2.087,0V292.727A4.633,4.633,0,0,0,599.478,288Zm-1.883,9.455h-7.363A3.784,3.784,0,0,1,597.6,297.455Zm-0.2,4.363a1.068,1.068,0,0,0-1.043,1.091v1.455a1.045,1.045,0,1,0,2.087,0v-1.455A1.068,1.068,0,0,0,597.391,301.818Zm-8.348,0A1.068,1.068,0,0,0,588,302.909v1.455a1.045,1.045,0,1,0,2.087,0v-1.455A1.068,1.068,0,0,0,589.043,301.818Zm4.174,0a1.068,1.068,0,0,0-1.043,1.091v1.455a1.045,1.045,0,1,0,2.087,0v-1.455A1.068,1.068,0,0,0,593.217,301.818Zm4.174,5.818a1.068,1.068,0,0,0-1.043,1.091v1.455a1.045,1.045,0,1,0,2.087,0v-1.455A1.068,1.068,0,0,0,597.391,307.636Zm-8.348,0A1.068,1.068,0,0,0,588,308.727v1.455a1.045,1.045,0,1,0,2.087,0v-1.455A1.068,1.068,0,0,0,589.043,307.636Zm4.174,0a1.068,1.068,0,0,0-1.043,1.091v1.455a1.045,1.045,0,1,0,2.087,0v-1.455A1.068,1.068,0,0,0,593.217,307.636Z" transform="translate(-588 -288)"/>
</svg>
