<?xml version="1.0" encoding="utf-8"?>
<!-- Generator: Adobe Illustrator 14.0.0, SVG Export Plug-In . SVG Version: 6.00 Build 43363)  -->
<!DOCTYPE svg PUBLIC "-//W3C//DTD SVG 1.1//EN" "http://www.w3.org/Graphics/SVG/1.1/DTD/svg11.dtd">
<svg version="1.1" id="Warstwa_1" xmlns="http://www.w3.org/2000/svg" xmlns:xlink="http://www.w3.org/1999/xlink" x="0px" y="0px"
	 width="26.001px" height="23px" viewBox="0 0 26.001 23" enable-background="new 0 0 26.001 23" xml:space="preserve">
<path fill="#E10E1A" d="M8.896,7.139C8.725,6.679,8.262,6.42,7.792,6.42c-0.235,0-0.256,0.005-0.396,0.005H3.594
	c-0.14,0-0.264,0-0.396,0c-0.537,0-0.932,0.254-1.104,0.714l-2.03,6.162c-0.193,0.52,0.068,1.1,0.584,1.294
	c0.516,0.195,1.091-0.068,1.284-0.588l0.54-1.45c0,0,0.039-0.146,0.039,0.492V21.6c0,0.748,0.601,1.354,1.343,1.354
	s1.343-0.606,1.343-1.354v-5.586c0,0-0.007-0.05,0.045-0.05c0.126,0,0.378,0,0.504,0c0.05,0,0.047,0.05,0.047,0.05V21.6
	c0,0.748,0.601,1.354,1.343,1.354c0.742,0,1.344-0.606,1.344-1.354v-8.551c0-0.649,0.056-0.444,0.056-0.444l0.522,1.402
	c0.193,0.52,0.769,0.784,1.284,0.588c0.516-0.194,0.777-0.774,0.584-1.294L8.896,7.139z"/>
<path fill="#E10E1A" d="M5.521,0.045c1.593,0,2.884,1.275,2.884,2.85c0,1.572-1.291,2.848-2.884,2.848S2.638,4.467,2.638,2.895
	C2.638,1.32,3.929,0.045,5.521,0.045z"/>
<path fill="#E10E1A" d="M20.235,0c1.593,0,2.884,1.289,2.884,2.878c0,1.589-1.291,2.878-2.884,2.878s-2.884-1.289-2.884-2.878
	C17.351,1.289,18.642,0,20.235,0z"/>
<path fill="#E10E1A" d="M25.906,13.165l-2.461-5.982c-0.141-0.302-0.265-0.707-0.844-0.707c-0.213,0-0.425,0-0.67,0H18.92
	c-0.249,0-0.379,0-0.686,0c-0.577,0-0.877,0.375-1.042,0.712l-2.556,5.938c-0.243,0.498-0.04,1.101,0.454,1.345
	c0.494,0.245,1.092,0.039,1.336-0.459l0.192-0.394c0,0,0.06-0.107,0.037,0.01c-0.139,0.731-0.523,2.93-0.523,2.93
	c-0.093,0.458,0.213,0.832,0.681,0.832c0,0,0.835,0,1.113,0c0.08,0,0.065,0.06,0.065,0.06v4.421c0,0.74,0.462,1.129,1.032,1.129
	s1.032-0.389,1.032-1.129v-4.438c0,0-0.002-0.044,0.044-0.043c0.06,0.002,0.212,0,0.28,0c0.039,0,0.034,0.047,0.034,0.047v4.434
	c0,0.74,0.462,1.129,1.032,1.129c0.57,0,1.032-0.389,1.032-1.129v-4.409c0,0-0.007-0.072,0.079-0.072c0.3,0,1.198,0,1.198,0
	c0.468,0,0.782-0.376,0.697-0.835c0,0-0.385-2.358-0.488-3.001c-0.03-0.184,0.277,0.47,0.277,0.47
	c0.234,0.502,0.687,0.712,1.186,0.477C25.926,14.266,26.14,13.667,25.906,13.165z"/>
<path fill="#E10E1A" d="M13.483,22.459c0,0.272-0.223,0.495-0.496,0.495h-0.212c-0.273,0-0.496-0.223-0.496-0.495V0.795
	c0-0.271,0.223-0.495,0.496-0.495h0.212c0.272,0,0.496,0.223,0.496,0.495V22.459z"/>
</svg>
