<svg xmlns="http://www.w3.org/2000/svg" width="11" height="24" viewBox="0 0 11 24">
  <metadata><?xpacket begin="﻿" id="W5M0MpCehiHzreSzNTczkc9d"?>
<x:xmpmeta xmlns:x="adobe:ns:meta/" x:xmptk="Adobe XMP Core 5.6-c138 79.159824, 2016/09/14-01:09:01        ">
   <rdf:RDF xmlns:rdf="http://www.w3.org/1999/02/22-rdf-syntax-ns#">
      <rdf:Description rdf:about=""/>
   </rdf:RDF>
</x:xmpmeta>
                                                                                                    
                                                                                                    
                                                                                                    
                                                                                                    
                                                                                                    
                                                                                                    
                                                                                                    
                                                                                                    
                                                                                                    
                                                                                                    
                                                                                                    
                                                                                                    
                                                                                                    
                                                                                                    
                                                                                                    
                                                                                                    
                                                                                                    
                                                                                                    
                                                                                                    
                                                                                                    
                           
<?xpacket end="w"?></metadata>
<defs>
    <style>
      .cls-1 {
        fill: #e30613;
        fill-rule: evenodd;
      }
    </style>
  </defs>
  <path id="podgrzewacz_wody" class="cls-1" d="M492.451,304.353V294.085a3.956,3.956,0,1,0-7.908,0v10.269a5.743,5.743,0,0,0-1.549,3.955,5.5,5.5,0,1,0,11,0A5.745,5.745,0,0,0,492.451,304.353Zm-3.958,8.072a4.051,4.051,0,0,1-3.974-4.116,4.11,4.11,0,0,1,1.563-3.266v-6.512h1.712a0.538,0.538,0,0,0,0-1.074h-1.712v-1.3h1.712a0.519,0.519,0,0,0,0-1.037h-1.712v-1.039a2.417,2.417,0,1,1,4.83,0v10.974A4.142,4.142,0,0,1,488.493,312.425Zm1.274-6.413V299.79h-2.54v6.222a2.668,2.668,0,0,0,1.27,4.95A2.669,2.669,0,0,0,489.767,306.012Z" transform="translate(-483 -290)"/>
</svg>
