<svg xmlns="http://www.w3.org/2000/svg" width="24" height="22" viewBox="0 0 24 22">
  <metadata><?xpacket begin="﻿" id="W5M0MpCehiHzreSzNTczkc9d"?>
<x:xmpmeta xmlns:x="adobe:ns:meta/" x:xmptk="Adobe XMP Core 5.6-c140 79.160451, 2017/05/06-01:08:21        ">
   <rdf:RDF xmlns:rdf="http://www.w3.org/1999/02/22-rdf-syntax-ns#">
      <rdf:Description rdf:about=""/>
   </rdf:RDF>
</x:xmpmeta>
                                                                                                    
                                                                                                    
                                                                                                    
                                                                                                    
                                                                                                    
                                                                                                    
                                                                                                    
                                                                                                    
                                                                                                    
                                                                                                    
                                                                                                    
                                                                                                    
                                                                                                    
                                                                                                    
                                                                                                    
                                                                                                    
                                                                                                    
                                                                                                    
                                                                                                    
                                                                                                    
                           
<?xpacket end="w"?></metadata>
<defs>
    <style>
      .cls-1 {
        fill: #e20612;
        fill-rule: evenodd;
      }
    </style>
  </defs>
  <path id="nowa_definicja" class="cls-1" d="M956.885,520.265l-3.9-6.82a0.888,0.888,0,0,0-.771-0.445H937.786a0.89,0.89,0,0,0-.772.445l-3.9,6.82a0.866,0.866,0,0,0,.085.983l11.113,13.431a0.9,0.9,0,0,0,1.374,0L956.8,521.248A0.867,0.867,0,0,0,956.885,520.265Zm-16.069-5.516h8.368L945,519.38Zm3.3,16.923-8.36-10.1h8.36v10.1Zm1.772-10.1h8.359l-8.359,10.1v-10.1h0Zm8.71-1.749h-7.619l4.581-5.071H951.7ZM938.3,514.749h0.138l4.581,5.071H935.4Z" transform="translate(-933 -513)"/>
</svg>
