<svg xmlns="http://www.w3.org/2000/svg" width="50" height="89" viewBox="0 0 50 89">
  <metadata><?xpacket begin="﻿" id="W5M0MpCehiHzreSzNTczkc9d"?>
<x:xmpmeta xmlns:x="adobe:ns:meta/" x:xmptk="Adobe XMP Core 5.6-c140 79.160451, 2017/05/06-01:08:21        ">
   <rdf:RDF xmlns:rdf="http://www.w3.org/1999/02/22-rdf-syntax-ns#">
      <rdf:Description rdf:about=""/>
   </rdf:RDF>
</x:xmpmeta>
                                                                                                    
                                                                                                    
                                                                                                    
                                                                                                    
                                                                                                    
                                                                                                    
                                                                                                    
                                                                                                    
                                                                                                    
                                                                                                    
                                                                                                    
                                                                                                    
                                                                                                    
                                                                                                    
                                                                                                    
                                                                                                    
                                                                                                    
                                                                                                    
                                                                                                    
                                                                                                    
                           
<?xpacket end="w"?></metadata>
<defs>
    <style>
      .cls-1 {
        fill: #e20612;
        fill-rule: evenodd;
      }
    </style>
  </defs>
  <path id="_5_step_icon_3" data-name="5_step_icon_3" class="cls-1" d="M474.536,3559.99H435.455a5.528,5.528,0,0,0-5.47,5.57v80.34a3.071,3.071,0,0,0,3.039,3.09h43.943a3.071,3.071,0,0,0,3.039-3.09v-80.34A5.528,5.528,0,0,0,474.536,3559.99Zm-39.081,3.71h39.081a1.841,1.841,0,0,1,1.823,1.86v13.93h-6.612v-2.02a4.61,4.61,0,0,0-4.756-4.44H445a4.61,4.61,0,0,0-4.755,4.44v2.02h-6.612v-13.93A1.841,1.841,0,0,1,435.455,3563.7Zm30.645,13.77v61.5H443.891v-61.5a1.028,1.028,0,0,1,1.108-.73h19.992A1.028,1.028,0,0,1,466.1,3577.47Zm-32.468,67.81V3583.2h6.612v57.63a1.838,1.838,0,0,0,1.824,1.85h25.855a1.838,1.838,0,0,0,1.824-1.85V3583.2h6.612v62.08H433.632Z" transform="translate(-430 -3560)"/>
</svg>
