<svg xmlns="http://www.w3.org/2000/svg" width="155.25" height="77.84" viewBox="0 0 155.25 77.84">
  <metadata><?xpacket begin="﻿" id="W5M0MpCehiHzreSzNTczkc9d"?>
<x:xmpmeta xmlns:x="adobe:ns:meta/" x:xmptk="Adobe XMP Core 5.6-c140 79.160451, 2017/05/06-01:08:21        ">
   <rdf:RDF xmlns:rdf="http://www.w3.org/1999/02/22-rdf-syntax-ns#">
      <rdf:Description rdf:about=""/>
   </rdf:RDF>
</x:xmpmeta>
                                                                                                    
                                                                                                    
                                                                                                    
                                                                                                    
                                                                                                    
                                                                                                    
                                                                                                    
                                                                                                    
                                                                                                    
                                                                                                    
                                                                                                    
                                                                                                    
                                                                                                    
                                                                                                    
                                                                                                    
                                                                                                    
                                                                                                    
                                                                                                    
                                                                                                    
                                                                                                    
                           
<?xpacket end="w"?></metadata>
<defs>
    <style>
      .cls-1 {
        fill: #e20612;
        fill-rule: evenodd;
      }
    </style>
  </defs>
  <path id="_5_step_icon_2" data-name="5_step_icon_2" class="cls-1" d="M629.413,3652.31H623.1v-3.79h6.311a4.431,4.431,0,0,0,4.417-4.43v-27.7l-27.289-27.37H578.927a4.431,4.431,0,0,0-4.418,4.43v50.64a4.431,4.431,0,0,0,4.418,4.43h6.31v3.79h-6.31a8.18,8.18,0,0,1-4.5-1.35,1.885,1.885,0,0,1-1.806,1.35H531.6v-3.79h39.127V3627H486.159v21.52h7.573v3.79h-9.466a1.9,1.9,0,0,1-1.894-1.89V3625.1a1.9,1.9,0,0,1,1.894-1.9h86.457v-29.75a8.225,8.225,0,0,1,8.2-8.23h28.4a1.875,1.875,0,0,1,1.338.56l28.4,28.48a1.909,1.909,0,0,1,.555,1.34v28.49A8.223,8.223,0,0,1,629.413,3652.31Zm-116.749-14.55a12.655,12.655,0,1,1-12.621,12.66A12.636,12.636,0,0,1,512.664,3637.76Zm0,21.52a8.865,8.865,0,1,0-8.835-8.86A8.861,8.861,0,0,0,512.664,3659.28Zm91.506-21.52a12.655,12.655,0,1,1-12.622,12.66A12.636,12.636,0,0,1,604.17,3637.76Zm0,21.52a8.865,8.865,0,1,0-8.835-8.86A8.861,8.861,0,0,0,604.17,3659.28Z" transform="translate(-482.375 -3585.22)"/>
</svg>
