<svg id="asystent_face" xmlns="http://www.w3.org/2000/svg" width="198.066" height="300.062" viewBox="0 0 198.066 300.062">
  <metadata><?xpacket begin="﻿" id="W5M0MpCehiHzreSzNTczkc9d"?>
<x:xmpmeta xmlns:x="adobe:ns:meta/" x:xmptk="Adobe XMP Core 5.6-c140 79.160451, 2017/05/06-01:08:21        ">
   <rdf:RDF xmlns:rdf="http://www.w3.org/1999/02/22-rdf-syntax-ns#">
      <rdf:Description rdf:about=""/>
   </rdf:RDF>
</x:xmpmeta>
                                                                                                    
                                                                                                    
                                                                                                    
                                                                                                    
                                                                                                    
                                                                                                    
                                                                                                    
                                                                                                    
                                                                                                    
                                                                                                    
                                                                                                    
                                                                                                    
                                                                                                    
                                                                                                    
                                                                                                    
                                                                                                    
                                                                                                    
                                                                                                    
                                                                                                    
                                                                                                    
                           
<?xpacket end="w"?></metadata>
<defs>
    <style>
      .cls-1 {
        fill: #e30613;
        fill-rule: evenodd;
      }
    </style>
  </defs>
  <path id="face" class="cls-1" d="M1058.53,455.662c-6.21-17.822-31.02-26.788-39.65-29.428v-11.8A89.517,89.517,0,0,0,1036,380.244a21.5,21.5,0,0,0,10.45-6.75c10.28-12.249,6.88-34.113,6.44-36.708,2.64-40.043-6.23-71.035-26.38-92.1-20.41-21.328-46.612-26.35-59.055-27.58a6.114,6.114,0,0,0-5.783-4.262H959.1a6.117,6.117,0,0,0-5.775,4.221c-12.452,1.232-38.687,6.346-59.061,27.629-20.164,21.063-29.017,52.069-26.377,92.131-0.463,2.735-3.8,24.458,6.431,36.667a21.832,21.832,0,0,0,13.146,7.535,89.585,89.585,0,0,0,14.644,30.409,3.543,3.543,0,0,0-.228.546v14.25c-8.626,2.64-33.427,11.606-39.641,29.428-1.67,4.787-.586,19.884-0.209,24.4a4.1,4.1,0,0,0,4.086,3.75,2.352,2.352,0,0,0,.345-0.017,4.081,4.081,0,0,0,3.756-4.4c-0.7-8.458-.947-18.942-0.209-21.048,4.442-12.751,22.8-20.433,31.872-23.523v28.436c-8-4.034-13.854-6.814-14.527-7.131a4.087,4.087,0,1,0-3.532,7.372c0.466,0.224,45.349,21.511,61.923,34.741v10.6a4.11,4.11,0,0,0,8.219,0V496.323a4.116,4.116,0,0,0-1.421-3.1c-8.931-7.665-27.416-17.958-42.443-25.766V420.75a74.346,74.346,0,0,0,22.626,15.969c6.662,2.985,25.235,3.176,28.895,3.192h0.008l0,0,0,0h0.008c3.66-.016,22.225-0.207,28.886-3.192a73.918,73.918,0,0,0,20.126-13.407v44.151c-15.023,7.808-33.5,18.1-42.431,25.764a4.115,4.115,0,0,0-1.42,3.1v12.511a4.11,4.11,0,0,0,8.219,0v-10.6c16.566-13.23,61.452-34.517,61.912-34.741a4.057,4.057,0,0,0,1.94-5.442,4.106,4.106,0,0,0-5.47-1.93c-0.67.317-6.52,3.1-14.53,7.134V434.818c9.08,3.089,27.45,10.772,31.88,23.525,0.74,2.106.48,12.59-.2,21.048a4.068,4.068,0,0,0,3.75,4.4,2.278,2.278,0,0,0,.34.017,4.089,4.089,0,0,0,4.09-3.75C1059.11,475.546,1060.19,460.449,1058.53,455.662Zm-37.9-205.27c17.67,18.518,25.73,45.878,24.23,81.193-6.14-1.742-17.92-4.416-35.5-6.443,0.69-15.338.83-70.656-30.592-97.864C991.064,230.174,1007.37,236.517,1020.63,250.392ZM960.4,225.345c40.664,18.152,41.324,82.019,40.744,98.9-11.464-1.044-24.938-1.759-40.744-1.759s-29.28.715-40.747,1.759C919.068,307.363,919.727,243.5,960.4,225.345ZM900.151,250.4c13.259-13.892,29.569-20.234,41.865-23.131-31.419,27.208-31.275,82.531-30.584,97.872-17.578,2.027-29.362,4.7-35.5,6.443C874.421,296.278,882.481,268.918,900.151,250.4Zm-24.432,89.773c7.673-2.355,35.091-9.519,84.677-9.519,49.624,0,77.044,7.18,84.684,9.527,0.87,7.021,1.12,20.84-4.94,28.078-2.88,3.43-6.89,5.09-12.28,5.09-11.24,0-15.54-2.059-20.98-4.676-7.613-3.646-17.084-8.187-46.484-8.187-29.416,0-38.879,4.541-46.488,8.187-5.442,2.617-9.744,4.676-20.981,4.676-5.393,0-9.406-1.66-12.28-5.074C874.074,360.449,875.045,345.854,875.719,340.174Zm111.444,89.109c-3.931,1.756-17.749,2.442-25.527,2.458-7.787-.016-21.6-0.7-25.536-2.458-23.99-10.731-35.886-33.326-40.083-47.929,10.744-.42,16.111-2.753,21.462-5.323,7.208-3.462,15.379-7.373,42.917-7.373,27.522,0,35.693,3.911,42.9,7.373,5.78,2.772,11.32,5.358,23.92,5.455C1022.99,396.094,1011.07,418.586,987.163,429.283Z" transform="translate(-861.344 -212.844)"/>
  <path id="logo" class="cls-1" d="M969.841,310.7h-8.865V292.13h13.816v-2.809H958.2v12.1h-8.867V280.183h11.712v-2.7H940.664V274.3h23.462v9.063H952.414v14.874h2.713v-12.1H977.87v9.172H964.054V307.52h2.71v-9.4h3.077V310.7Z" transform="translate(-861.344 -212.844)"/>
</svg>
