<svg xmlns="http://www.w3.org/2000/svg" width="54" height="41" viewBox="0 0 54 41">
  <metadata><?xpacket begin="﻿" id="W5M0MpCehiHzreSzNTczkc9d"?>
<x:xmpmeta xmlns:x="adobe:ns:meta/" x:xmptk="Adobe XMP Core 5.6-c140 79.160451, 2017/05/06-01:08:21        ">
   <rdf:RDF xmlns:rdf="http://www.w3.org/1999/02/22-rdf-syntax-ns#">
      <rdf:Description rdf:about=""/>
   </rdf:RDF>
</x:xmpmeta>
                                                                                                    
                                                                                                    
                                                                                                    
                                                                                                    
                                                                                                    
                                                                                                    
                                                                                                    
                                                                                                    
                                                                                                    
                                                                                                    
                                                                                                    
                                                                                                    
                                                                                                    
                                                                                                    
                                                                                                    
                                                                                                    
                                                                                                    
                                                                                                    
                                                                                                    
                                                                                                    
                           
<?xpacket end="w"?></metadata>
<defs>
    <style>
      .cls-1 {
        fill: #e20612;
        fill-rule: evenodd;
      }
    </style>
  </defs>
  <path id="checklista" class="cls-1" d="M420.92,5459.81h-29.3l1.053,3.55h25.1a4.324,4.324,0,1,1-4.6,4.31,4.04,4.04,0,0,1,.341-1.61H395.833a4.04,4.04,0,0,1,.341,1.61,4.606,4.606,0,0,1-9.194,0,4.319,4.319,0,0,1,2.806-3.97l-1.155-3.89h0l-3.023-10.18-4.731-15.92h-5.428a1.353,1.353,0,1,1,0-2.7h7.61l0.293,0.99h0l7.46,25.11h27.926l5.483-18.46h-35.8a1.353,1.353,0,1,1,0-2.7H428.01Zm-4.87,7.86a1.725,1.725,0,1,0,1.721-1.61A1.67,1.67,0,0,0,416.05,5467.67Zm-26.195,0a1.726,1.726,0,1,0,1.723-1.61A1.671,1.671,0,0,0,389.855,5467.67Z" transform="translate(-374 -5431)"/>
</svg>
