<svg xmlns="http://www.w3.org/2000/svg" width="73" height="57" viewBox="0 0 73 57">
  <metadata><?xpacket begin="﻿" id="W5M0MpCehiHzreSzNTczkc9d"?>
<x:xmpmeta xmlns:x="adobe:ns:meta/" x:xmptk="Adobe XMP Core 5.6-c140 79.160451, 2017/05/06-01:08:21        ">
   <rdf:RDF xmlns:rdf="http://www.w3.org/1999/02/22-rdf-syntax-ns#">
      <rdf:Description rdf:about=""/>
   </rdf:RDF>
</x:xmpmeta>
                                                                                                    
                                                                                                    
                                                                                                    
                                                                                                    
                                                                                                    
                                                                                                    
                                                                                                    
                                                                                                    
                                                                                                    
                                                                                                    
                                                                                                    
                                                                                                    
                                                                                                    
                                                                                                    
                                                                                                    
                                                                                                    
                                                                                                    
                                                                                                    
                                                                                                    
                                                                                                    
                           
<?xpacket end="w"?></metadata>
<defs>
    <style>
      .cls-1 {
        fill: #e20612;
        fill-rule: evenodd;
      }
    </style>
  </defs>
  <path id="features_3" class="cls-1" d="M992.456,4575.12H977.218v-4.59a4.549,4.549,0,0,0-4.544-4.54h-44.13a4.549,4.549,0,0,0-4.544,4.54v26.63a4.549,4.549,0,0,0,4.544,4.54h2.3v10.67a1.486,1.486,0,0,0,.926,1.38,1.444,1.444,0,0,0,.573.12,1.489,1.489,0,0,0,1.062-.44l10.374-10.37v3.22a4.542,4.542,0,0,0,4.543,4.54h27.53l11.735,11.74a1.531,1.531,0,0,0,1.061.44,1.449,1.449,0,0,0,.574-0.12,1.5,1.5,0,0,0,.926-1.38v-10.68h2.3a4.543,4.543,0,0,0,4.544-4.54v-26.62A4.549,4.549,0,0,0,992.456,4575.12Zm-49,24.02-9.612,9.61v-8.55a1.5,1.5,0,0,0-1.5-1.5h-3.8a1.543,1.543,0,0,1-1.544-1.54v-26.63a1.543,1.543,0,0,1,1.544-1.54h44.13a1.543,1.543,0,0,1,1.544,1.54v4.59H974.2v3h0.022v19.04a1.543,1.543,0,0,1-1.544,1.54H946.783v-0.02h-3v0.22A1.934,1.934,0,0,0,943.46,4599.14Zm50.54,7.14a1.545,1.545,0,0,1-1.544,1.55h-3.8a1.5,1.5,0,0,0-1.5,1.5v8.55l-9.612-9.61a1.507,1.507,0,0,0-1.062-.44H948.326a1.545,1.545,0,0,1-1.543-1.55v-4.58h25.891a4.549,4.549,0,0,0,4.544-4.54v-19.04h15.238a1.543,1.543,0,0,1,1.544,1.54v26.62Z" transform="translate(-924 -4566)"/>
</svg>
