<svg xmlns="http://www.w3.org/2000/svg" width="442.69" height="128.406" viewBox="0 0 442.69 128.406">
  <metadata><?xpacket begin="﻿" id="W5M0MpCehiHzreSzNTczkc9d"?>
<x:xmpmeta xmlns:x="adobe:ns:meta/" x:xmptk="Adobe XMP Core 5.6-c140 79.160451, 2017/05/06-01:08:21        ">
   <rdf:RDF xmlns:rdf="http://www.w3.org/1999/02/22-rdf-syntax-ns#">
      <rdf:Description rdf:about=""/>
   </rdf:RDF>
</x:xmpmeta>
                                                                                                    
                                                                                                    
                                                                                                    
                                                                                                    
                                                                                                    
                                                                                                    
                                                                                                    
                                                                                                    
                                                                                                    
                                                                                                    
                                                                                                    
                                                                                                    
                                                                                                    
                                                                                                    
                                                                                                    
                                                                                                    
                                                                                                    
                                                                                                    
                                                                                                    
                                                                                                    
                           
<?xpacket end="w"?></metadata>
<defs>
    <style>
      .cls-1 {
        fill-rule: evenodd;
        opacity: 0.1;
      }
    </style>
  </defs>
  <path id="illustration_right" class="cls-1" d="M1702.6,581.672h-46.54v39.493h46.54V581.672Zm-25.56,34.909h-16.39V603.71h16.39v12.871Zm0-17.454h-16.39V586.255h16.39v12.872Zm20.97,17.454h-16.38V603.71h16.38v12.871Zm0-17.454h-16.38V586.255h16.38v12.872Zm90.9-69.927V653.014h-23.38V593.667h-46.54v59.347h-86.31V529.2h-4.59V657.6H1793.5V529.2h-4.59Zm-27.97,123.814h-37.36V598.25h37.36v54.764ZM1588.54,627.7h-32.13v29.9h59.67V627.7h-27.54Zm-18.36,25.314H1561v-8.074h9.18v8.074Zm0-12.657H1561v-8.074h9.18v8.074Zm13.77,12.657h-9.18v-8.074h9.18v8.074Zm0-12.657h-9.18v-8.074h9.18v8.074Zm13.77,12.657h-9.18v-8.074h9.18v8.074Zm0-12.657h-9.18v-8.074h9.18v8.074Zm13.77,12.657h-9.18v-8.074h9.18v8.074Zm0-12.657h-9.18v-8.074h9.18v8.074Zm-27.54-8.074h32.13v-29.9h-32.13m0,17.24V627.7m0-20.731v8.074m13.77,12.657h-9.18v-8.074h9.18V627.7Zm0-12.657h-9.18v-8.074h9.18v8.074Zm13.77,12.657h-9.18v-8.074h9.18V627.7Zm0-12.657h-9.18v-8.074h9.18v8.074Zm213.42,11.574-5.28,10.685-1.78-.879,5.27-10.684Zm6.6-8.557-0.5.9c-0.57,1.056-1.71,3.172-3.37,3.616l-1.55,3.148-2.98-1.464,1.53-3.092c-0.75-1.657.32-4.132,0.8-5.218l0.31-.723Zm-2.52,1.71-3.02-1.485c-0.37,1.254-.46,2.449.42,2.883C1827.36,621.646,1828.21,620.917,1828.99,619.773Zm-16.1,27.833a6.272,6.272,0,0,1,4.4,1.029,4.766,4.766,0,0,1,.8.761l1.09-2.2,0.48-.985,1.63-3.292c0.23-.46-0.82-1.327-2.56-2.308l0.91-1.827-2.98-1.463-0.9,1.826a10.662,10.662,0,0,0-2.93-.784,0.5,0.5,0,0,0-.46.165l-2.23,4.523-1.02,2.061-0.04.084a0.773,0.773,0,0,0-.03.528A6.135,6.135,0,0,1,1812.89,647.606Zm11.25,4.184a1.508,1.508,0,0,0-1.75-1.373,1.6,1.6,0,0,0-.6.133,2.817,2.817,0,0,0,.45-1.517,2.371,2.371,0,0,0-1.48-2.4l-1.74,3.524a1.18,1.18,0,0,1-.23.32,7.624,7.624,0,0,1,.66,2.684,0.687,0.687,0,0,1-.63.743l-0.06,0a0.692,0.692,0,0,1-.69-0.638,4.572,4.572,0,0,0-1.61-3.525,5.091,5.091,0,0,0-3.67-.724l-0.38.079-0.27-.283a4.816,4.816,0,0,0-6.96-.393,0.683,0.683,0,0,1-.97-0.047,0.693,0.693,0,0,1,.04-0.979,6.892,6.892,0,0,1,3.63-1.652,1.393,1.393,0,0,1,.1-0.821l0.32-.656,0.61-1.229a1.784,1.784,0,0,0-.77.158,5.972,5.972,0,0,0-4.72-2.292,5.86,5.86,0,0,0-5.93,5.794,5.34,5.34,0,0,0,.18,1.392c-1.87.777-3.13,2.177-3.13,3.78a3.243,3.243,0,0,0,.37,1.461,2.135,2.135,0,0,0-1.41,1.864,2.387,2.387,0,0,0,2.34,2.11v0.029h26.87a1.42,1.42,0,0,0,.33.042l0.01,0A2.845,2.845,0,0,0,1824.14,651.79Zm-295.28-17.476-2.85,4.412a1.827,1.827,0,0,1-2.22.7h0a1.833,1.833,0,0,0-2.29.816l-9.36,17.046h11a1.812,1.812,0,0,0,1.46-.727l4.13-5.456a1.812,1.812,0,0,1,1.46-.727h2.61a1.822,1.822,0,0,1,1.5.786l3.71,5.338a1.82,1.82,0,0,0,1.5.786h0.38a1.83,1.83,0,0,0,1.7-2.5l-7.9-19.73a1.853,1.853,0,0,0-1.22-1.085l-1.59-.431A1.836,1.836,0,0,0,1528.86,634.314Zm3.34,17.22h-1.44a1.843,1.843,0,0,0-1.46.726l-1.59,2.105a1.826,1.826,0,0,0,1.46,2.927h4.49a1.827,1.827,0,0,0,1.5-2.867l-1.46-2.1A1.822,1.822,0,0,0,1532.2,651.534Zm-50.27-5.3-3.43,11.055h4.76l3.81-11.01,1.08-8.569h3.63l3.26,8.88-1.99,10.7h4.61l2.27-12.118-2.27-6.387-0.82-2.89,12.49,7.067-2.34,4.063,5.44,3.132,5.76-9.98-5.44-3.131-2.27,3.92-14.54-8.228-0.79-2.75,1.43-5.771,0.62,5.275,0.98,2.56,3.9,2.274-1.62-5.732-1.25-11.016-4.03-.165-0.71-1.949a6.149,6.149,0,0,0,4.89-5.706l-12.15-1.608a6.045,6.045,0,0,0-.14,1.285,6.136,6.136,0,0,0,2.73,5.11l-0.11-.012-2.43,2.042-3.12-.261-6.84,5.973v9.09l5.43,1.341Zm-1.17-18.16v-2.714l2.31-2.105V628.6Zm18.55-19.485,1.84,0.244c0.25-5.481-2.14-9.068-6.46-9.639a7.88,7.88,0,0,0-1.05-.07c-3.82,0-6.61,2.8-7.7,7.7l1.61,0.213Zm467.59,36.657v-7.986c0-5.428-3.18-8.6-8.62-8.6h-54.13c-7.31,0-11.08,3.455-11.08,8.6V647.63c0,5.375,3.62,8.062,11.08,8.062h54.13C1963.72,655.692,1966.9,652.083,1966.9,645.249Zm-9.85.615h-54.13v-7.372h54.13v7.372Zm-31.99-73.717v23.518h0v0l3.14,8.424h-5.28l-51.47-71.616-11.35,6.831,3.44,6.018v31.737h-3.63l2.44,17.2h1.19v5.2a7.517,7.517,0,0,0-4.67,7.038,7.264,7.264,0,0,0,2.5,5.769l-13.35,11.483h3.77l11.82-10.171a9.26,9.26,0,0,0,3.35.649,6.971,6.971,0,0,0,3.29-.85l12.81,10.372h3.84l0.03-.035-14.74-11.93a7.416,7.416,0,0,0,1.66-4.875,2.46,2.46,0,0,0-4.92,0,2.617,2.617,0,0,1-.55,1.792l-0.68-.546a1.235,1.235,0,0,0-1.58.025l-0.92.793a2.45,2.45,0,0,1-1.41-2.474c0-2.222,2.21-2.759,2.62-2.838a2.458,2.458,0,0,0,2.05-2.425v-6.974h2.74l3.44-17.2h-3.72V559.226l29.53,56.75v2.858h9.85v4.914h36.91v-4.914h14.77V572.147h-36.92Zm-21.28,12.778,0.03,0.042-10.04,6.524,5.16-13.225Zm-35.32-7.863H1866v-27.1l2.46,4.635v22.469Zm2.14-25.049-4.24-8.055,6.62-4.347Zm5.76-7.385,4.72,8.178-7.62,4.9Zm0.76,17.776,7.18-4.661-2.81,12.765Zm10.21-.5,5.29,7.708-7.95,5.089Zm-0.82,18.67,8.9-6.084-5.07,13.544Zm13.17,23.365-4.29-7.558,10.65-7.593Zm3.34,5.37,7.28-15.665,5.92,8.062Zm49.11-12.594h-17.22V581.976h17.22v14.743Zm-103.35,41.773h-2.46v4.914h39.37v-4.914h-4.92V631.12h4.92v-4.914h-39.37v4.914h4.92v7.372h-2.46Z" transform="translate(-1477.31 -529.188)"/>
</svg>
