<svg xmlns="http://www.w3.org/2000/svg" width="22" height="24" viewBox="0 0 22 24">
  <metadata><?xpacket begin="﻿" id="W5M0MpCehiHzreSzNTczkc9d"?>
<x:xmpmeta xmlns:x="adobe:ns:meta/" x:xmptk="Adobe XMP Core 5.6-c140 79.160451, 2017/05/06-01:08:21        ">
   <rdf:RDF xmlns:rdf="http://www.w3.org/1999/02/22-rdf-syntax-ns#">
      <rdf:Description rdf:about=""/>
   </rdf:RDF>
</x:xmpmeta>
                                                                                                    
                                                                                                    
                                                                                                    
                                                                                                    
                                                                                                    
                                                                                                    
                                                                                                    
                                                                                                    
                                                                                                    
                                                                                                    
                                                                                                    
                                                                                                    
                                                                                                    
                                                                                                    
                                                                                                    
                                                                                                    
                                                                                                    
                                                                                                    
                                                                                                    
                                                                                                    
                           
<?xpacket end="w"?></metadata>
<defs>
    <style>
      .cls-1 {
        fill: #e20612;
        fill-rule: evenodd;
      }
    </style>
  </defs>
  <path id="najczesciej_wybierana" class="cls-1" d="M956.3,413.414a4.192,4.192,0,0,0,.7-2.351,3.55,3.55,0,0,0-1.088-2.583,3.515,3.515,0,0,0-2.578-1.1h-2.521a6.367,6.367,0,0,0,.687-2.769,6.015,6.015,0,0,0-.5-2.682,3.152,3.152,0,0,0-1.461-1.464,4.859,4.859,0,0,0-2.163-.469,1.81,1.81,0,0,0-1.289.534,3.468,3.468,0,0,0-.888,1.557q-0.271.952-.437,1.825a2.457,2.457,0,0,1-.508,1.233q-0.7.765-1.533,1.846a12.73,12.73,0,0,1-1.962,2.236h-3.925a1.758,1.758,0,0,0-1.3.541,1.783,1.783,0,0,0-.537,1.305v9.23a1.787,1.787,0,0,0,.537,1.306,1.762,1.762,0,0,0,1.3.541h4.125a10.516,10.516,0,0,1,1.977.577q1.761,0.62,3.1.944a11.442,11.442,0,0,0,2.714.325H950.6a4.546,4.546,0,0,0,3.251-1.161,69.767,69.767,0,0,0,2.077-5.733,4.376,4.376,0,0,0-.043-0.621,4.159,4.159,0,0,0,.544-2.076A3.786,3.786,0,0,0,956.3,413.414Zm-17.9,6.62a0.9,0.9,0,0,1-1.29,0,0.911,0.911,0,0,1,0-1.3,0.9,0.9,0,0,1,1.29,0A0.911,0.911,0,0,1,938.4,420.034Zm16.464-7.788a0.95,0.95,0,0,1-.766.678,1.942,1.942,0,0,1,.358.685,2.62,2.62,0,0,1,.143.8,2.287,2.287,0,0,1-.759,1.716,2.009,2.009,0,0,1,.258,1,2.432,2.432,0,0,1-.251,1.06,1.605,1.605,0,0,1-.68.757,4.946,4.946,0,0,1,.072.808q0,2.408-2.751,2.408h-1.732a15.7,15.7,0,0,1-4.9-1.053c-0.048-.019-0.186-0.069-0.415-0.151l-0.509-.18q-0.165-.058-0.5-0.166c-0.225-.072-0.406-0.125-0.545-0.159s-0.3-.065-0.472-0.093a2.866,2.866,0,0,0-.451-0.044H940.5v-9.23h0.459a1.228,1.228,0,0,0,.508-0.129,2.449,2.449,0,0,0,.573-0.39c0.2-.173.379-0.344,0.551-0.512a8.214,8.214,0,0,0,.573-0.634c0.211-.255.375-0.46,0.5-0.613s0.269-.351.451-0.592,0.291-.384.329-0.433q0.788-.98,1.1-1.312a3.658,3.658,0,0,0,.852-1.579q0.265-.96.437-1.81a2.388,2.388,0,0,1,.545-1.226,2.077,2.077,0,0,1,1.833.678,3.789,3.789,0,0,1,.458,2.091,5.916,5.916,0,0,1-.688,2.315,5.914,5.914,0,0,0-.687,2.3h5.042a1.906,1.906,0,0,1,1.833,1.846A2.836,2.836,0,0,1,954.859,412.246Z" transform="translate(-935 -400)"/>
</svg>
