<?xml version="1.0" encoding="utf-8"?>
<!-- Generator: Adobe Illustrator 14.0.0, SVG Export Plug-In . SVG Version: 6.00 Build 43363)  -->
<!DOCTYPE svg PUBLIC "-//W3C//DTD SVG 1.1//EN" "http://www.w3.org/Graphics/SVG/1.1/DTD/svg11.dtd">
<svg version="1.1" id="Warstwa_1" xmlns="http://www.w3.org/2000/svg" xmlns:xlink="http://www.w3.org/1999/xlink" x="0px" y="0px"
	 width="16px" height="26px" viewBox="0 0 16 26" enable-background="new 0 0 16 26" xml:space="preserve">
<path fill="#E10E1A" d="M15.885,5.084l-1.6-4.063C14.042,0.405,13.454,0,12.8,0H3.2C2.546,0,1.958,0.405,1.715,1.021l-1.6,4.063
	c-0.153,0.387-0.153,0.82,0,1.207l1.6,4.063c0.243,0.617,0.831,1.022,1.485,1.022H4C4,12.272,4.716,13,5.6,13h0.8v0.624
	c0,1.933,1.041,3.697,2.651,4.496c0.832,0.413,1.348,1.253,1.348,2.192c0,1.298-1.122,2.438-2.4,2.438
	c-1.323,0-2.399-1.093-2.399-2.438c0-0.897-0.716-1.625-1.6-1.625c-0.883,0-1.6,0.728-1.6,1.625C2.4,23.448,4.912,26,8,26
	c3.036,0,5.601-2.604,5.601-5.688c0-2.19-1.205-4.149-3.144-5.112C9.936,14.942,9.6,14.323,9.6,13.624V13h0.8
	c0.884,0,1.6-0.728,1.6-1.625h0.8c0.654,0,1.243-0.405,1.486-1.022l1.6-4.063C16.038,5.904,16.038,5.471,15.885,5.084z M4.267,8.938
	H2.58l2.133-6.5H6.4L4.267,8.938z M7.777,8.938H6.09l2.133-6.5H9.91L7.777,8.938z M11.287,8.938H9.6l2.133-6.5h1.687L11.287,8.938z"
	/>
</svg>
