<svg xmlns="http://www.w3.org/2000/svg" viewBox="0 0 244 247" width="50" height="50">
	<style>
		tspan { white-space:pre }
		.shp0 { fill: #ffffff } 
	</style>
	<g id="Layer">
		<path id="Layer" fill-rule="evenodd" class="shp0" d="M0 0L220.4 0L220.4 246.8L0 246.8L0 0ZM2.8 243.6L217.6 243.6L217.6 2.8L2.8 2.8L2.8 243.6Z"/>
		<g id="Layer">
			<path id="Layer" class="shp0" d="M179.1 69.6L195.4 69.6L195.4 143.9L179.1 143.9L179.1 69.6Z"/>
		</g>
		<g id="Layer">
			<path id="Layer" class="shp0" d="M49.5 69.6L49.5 85.6L66.8 85.6L66.8 143.9L83.4 143.9L83.4 85.6L100 85.6L100 69.6L49.5 69.6Z"/>
		</g>
		<g id="Layer">
			<path id="Layer" class="shp0" d="M135.5 83.1C148.7 83.1 159 93.8 159 106.6C159 119.5 148.7 130.1 135.5 130.1L135.5 146.7C157.8 146.7 175.6 128.8 175.6 106.6C175.6 84.3 157.7 66.5 135.5 66.5L135.5 83.1ZM112.3 106.6C112.3 93.7 122.6 83.1 135.5 83.1L135.5 66.5C113.5 66.5 95.4 84.4 95.4 106.6C95.4 128.9 113.6 146.7 135.5 146.7L135.5 130.1C122.6 130.1 112.3 119.5 112.3 106.6Z"/>
		</g>
		<g id="Layer">
			<path id="Layer" class="shp0" d="M186.9 65.2C181.6 60.8 175.3 54.9 173.7 53C170.3 49.2 168.1 43.6 171.5 38.3C174.9 33.6 182.8 33 187.2 38.3C191.3 33 199.4 33.6 202.6 38.3C206 43.6 203.9 49.3 200.4 53C199.1 54.9 192.5 60.8 186.9 65.2Z"/>
		</g>
		<g id="Layer">
			<path id="Layer" fill-rule="evenodd" class="shp0" d="M42 225.4C44.5 225.4 46.7 223.2 46.7 220.4C46.7 217.9 44.5 215.7 42 215.7L42 215.8C39.5 215.8 37.3 218 37.3 220.5C37.3 223.3 39.5 225.5 42 225.5L42 225.4ZM47.6 220.4C47.6 223.9 45.1 226.4 42 226.4C38.9 226.4 36.4 223.8 36.4 220.4C36.4 217.3 38.9 214.8 42 214.8C45.1 214.8 47.6 217.3 47.6 220.4ZM42 221.1L42 219.8C42.9 219.8 43.9 219.8 43.9 219.2C43.9 218.3 43.3 218.3 42.3 218.3L42 218.3L42 217.4L42.6 217.4C43.5 217.4 44.8 217.7 44.8 219.3C44.8 220.6 43.9 220.9 42.9 220.9L44.5 224L43.6 224L42 221.1ZM39.8 217.3L39.8 223.9L40.7 223.9L40.7 220.8L42 220.8L42 219.8L40.7 219.8L40.7 218.2L42 218.2L42 217.3L39.8 217.3Z"/>
		</g>
		<g id="Layer">
			<path id="Layer" class="shp0" d="M49.5 151.8L49.5 167.8L66.8 167.8L66.8 226.1L83.4 226.1L83.4 167.8L100 167.8L100 151.8L49.5 151.8Z"/>
		</g>
		<g id="Layer">
			<path id="Layer" class="shp0" d="M179.1 151.8L195.4 151.8L195.4 226.1L179.1 226.1L179.1 151.8Z"/>
		</g>
		<g id="Layer">
			<path id="Layer" class="shp0" d="M135.5 165.3C148.7 165.3 159 176 159 188.8C159 201.7 148.7 212.3 135.5 212.3L135.5 228.9C157.8 228.9 175.6 211 175.6 188.8C175.6 166.5 157.7 148.7 135.5 148.7L135.5 165.3ZM112.3 188.8C112.3 175.9 122.6 165.3 135.5 165.3L135.5 148.7C113.5 148.7 95.4 166.6 95.4 188.8C95.4 211.1 113.6 228.9 135.5 228.9L135.5 212.3C122.6 212.3 112.3 201.6 112.3 188.8Z"/>
		</g>
	</g>
	<g id="Layer">
	</g>
<script xmlns=""/></svg>