<svg xmlns="http://www.w3.org/2000/svg" width="20" height="24" viewBox="0 0 20 24">
  <metadata><?xpacket begin="﻿" id="W5M0MpCehiHzreSzNTczkc9d"?>
<x:xmpmeta xmlns:x="adobe:ns:meta/" x:xmptk="Adobe XMP Core 5.6-c138 79.159824, 2016/09/14-01:09:01        ">
   <rdf:RDF xmlns:rdf="http://www.w3.org/1999/02/22-rdf-syntax-ns#">
      <rdf:Description rdf:about=""/>
   </rdf:RDF>
</x:xmpmeta>
                                                                                                    
                                                                                                    
                                                                                                    
                                                                                                    
                                                                                                    
                                                                                                    
                                                                                                    
                                                                                                    
                                                                                                    
                                                                                                    
                                                                                                    
                                                                                                    
                                                                                                    
                                                                                                    
                                                                                                    
                                                                                                    
                                                                                                    
                                                                                                    
                                                                                                    
                                                                                                    
                           
<?xpacket end="w"?></metadata>
<defs>
    <style>
      .cls-1 {
        fill: #e30613;
        fill-rule: evenodd;
      }
    </style>
  </defs>
  <path id="podjazd_niepelnosprawni" class="cls-1" d="M534.488,294.085a2.062,2.062,0,1,0-2.44-1.633A2.062,2.062,0,0,0,534.488,294.085Zm2.031,16.717a6.416,6.416,0,0,0,5.027-4.734l-0.985-1.252-0.677.135a4.6,4.6,0,1,1-7.2-4.153l-0.369-1.9a6.363,6.363,0,0,0-3.337,6.851A6.445,6.445,0,0,0,536.519,310.8Zm-1.865-15.868a1.817,1.817,0,0,0-1.454,2.127l1.134,5.818a1.87,1.87,0,0,0,2.192,1.468l3.3-.63,1.236-.236,3.317,4.222a1.231,1.231,0,0,0,1.716.212,1.2,1.2,0,0,0,.214-1.7l-3.778-4.808a1.229,1.229,0,0,0-1.2-.445l-3.509.669-0.154-.791,3.02-.577a0.9,0.9,0,0,0,.644-0.517,0.885,0.885,0,0,0,.083-0.546,0.916,0.916,0,0,0-1.075-.719l-1.819.347-1.2.229-0.523-2.686A1.818,1.818,0,0,0,534.654,294.934ZM548,311.592a0.856,0.856,0,0,0-.926-0.778L528.789,312.3a0.85,0.85,0,0,0,.069,1.7c0.024,0,.047,0,0.071,0l18.282-1.488A0.853,0.853,0,0,0,548,311.592Z" transform="translate(-528 -290)"/>
</svg>
