<?xml version="1.0" encoding="UTF-8"?>
<!-- Generator: Adobe Illustrator 14.0.0, SVG Export Plug-In  -->
<!DOCTYPE svg PUBLIC "-//W3C//DTD SVG 1.1//EN" "http://www.w3.org/Graphics/SVG/1.1/DTD/svg11.dtd">
<svg version="1.1" xmlns="http://www.w3.org/2000/svg" xmlns:xlink="http://www.w3.org/1999/xlink" xmlns:a="http://ns.adobe.com/AdobeSVGViewerExtensions/3.0/" x="0px" y="0px" width="12px" height="18px" viewBox="0 0 12 18" enable-background="new 0 0 12 18" xml:space="preserve">
<defs>
</defs>
<path fill="#FFFFFF" d="M11.907,14.465c-0.367-1.062-1.751-1.615-2.34-1.807v-0.577c0.543-0.694,0.856-1.439,0.993-1.988  c0.239-0.086,0.448-0.223,0.611-0.419c0.627-0.756,0.451-2.028,0.41-2.278c0.155-2.42-0.381-4.298-1.595-5.579  C8.693,0.457,7.035,0.18,6.328,0.124C6.261,0.049,6.167,0,6.059,0H5.907C5.801,0,5.707,0.048,5.64,0.122  C4.933,0.178,3.273,0.457,1.982,1.818C0.767,3.1,0.231,4.978,0.387,7.399C0.344,7.652,0.17,8.921,0.796,9.675  c0.199,0.239,0.462,0.394,0.771,0.469c0.129,0.491,0.395,1.127,0.834,1.744c0,0.003-0.001,0.006-0.001,0.009v0.763  c-0.589,0.192-1.973,0.745-2.339,1.807c-0.104,0.3-0.048,1.154-0.019,1.507c0.016,0.192,0.175,0.336,0.363,0.336  c0.01,0,0.021,0,0.031,0c0.201-0.018,0.35-0.194,0.333-0.395c-0.039-0.477-0.055-1.078-0.019-1.208  c0.21-0.61,1.048-1.045,1.65-1.272v1.328c-0.382-0.192-0.651-0.322-0.686-0.338c-0.183-0.086-0.4-0.008-0.486,0.173  C1.14,14.779,1.218,14.997,1.4,15.084c0.027,0.012,2.593,1.241,3.595,2.024v0.574c0,0.202,0.164,0.366,0.365,0.366  c0.202,0,0.365-0.164,0.365-0.366v-0.747c0-0.107-0.046-0.208-0.126-0.278c-0.523-0.453-1.586-1.054-2.47-1.52v-2.418  c0.331,0.298,0.718,0.563,1.167,0.767c0.417,0.188,1.539,0.2,1.759,0.201h0.001l0,0l0,0c0,0,0,0,0,0  c0.221-0.001,1.343-0.013,1.759-0.201c0.388-0.175,0.721-0.403,1.021-0.652v2.304c-0.883,0.466-1.946,1.067-2.469,1.52  c-0.08,0.07-0.126,0.171-0.126,0.278v0.747c0,0.202,0.164,0.366,0.365,0.366c0.202,0,0.365-0.164,0.365-0.366v-0.574  c1.001-0.782,3.568-2.012,3.595-2.024c0.182-0.087,0.259-0.305,0.173-0.488c-0.087-0.182-0.307-0.256-0.486-0.173  c-0.035,0.017-0.304,0.146-0.686,0.338v-1.328c0.601,0.227,1.439,0.662,1.649,1.269c0.037,0.134,0.021,0.735-0.018,1.212  c-0.016,0.201,0.133,0.377,0.334,0.395c0.009,0,0.02,0,0.029,0c0.188,0,0.348-0.145,0.364-0.336  C11.954,15.62,12.01,14.765,11.907,14.465z M9.462,2.329c0.996,1.055,1.462,2.608,1.404,4.608C10.488,6.836,9.874,6.706,9.007,6.6  C9.04,5.611,8.991,2.783,7.491,1.107C8.122,1.314,8.85,1.681,9.462,2.329z M5.984,0.884c2.202,1.044,2.318,4.504,2.293,5.638  C7.623,6.465,6.863,6.427,5.984,6.427c-0.879,0-1.639,0.038-2.293,0.095C3.666,5.389,3.781,1.929,5.984,0.884z M2.504,2.33  c0.613-0.649,1.342-1.016,1.973-1.223C2.977,2.782,2.928,5.611,2.96,6.6C2.093,6.706,1.479,6.836,1.101,6.937  C1.042,4.937,1.508,3.384,2.504,2.33z M1.083,7.7c0.531-0.156,2.123-0.541,4.9-0.541s4.37,0.385,4.901,0.541  c0.041,0.417,0.037,1.13-0.274,1.506c-0.146,0.175-0.353,0.26-0.634,0.26c-0.638,0-0.869-0.112-1.19-0.267  c-0.46-0.224-1.034-0.501-2.803-0.501c-1.769,0-2.343,0.278-2.804,0.501c-0.32,0.154-0.552,0.267-1.189,0.267  c-0.281,0-0.488-0.085-0.633-0.259C1.047,8.833,1.042,8.118,1.083,7.7z M7.518,12.818c-0.182,0.082-0.9,0.136-1.46,0.136  c-0.56,0-1.279-0.054-1.461-0.136c-1.303-0.588-1.985-1.792-2.26-2.639c0.559-0.043,0.873-0.181,1.162-0.321  c0.415-0.2,0.884-0.428,2.487-0.428c1.601,0,2.071,0.228,2.486,0.428c0.313,0.152,0.652,0.301,1.306,0.329  C9.499,11.033,8.817,12.232,7.518,12.818z"/>
<script xmlns=""/></svg>